<?xml version="1.0" encoding="utf-8"?>
<!-- Generator: Adobe Illustrator 24.3.0, SVG Export Plug-In . SVG Version: 6.00 Build 0)  -->
<svg version="1.1" id="Layer_1" xmlns="http://www.w3.org/2000/svg" xmlns:xlink="http://www.w3.org/1999/xlink" x="0px" y="0px"
	 viewBox="0 0 103 52" style="enable-background:new 0 0 103 52;" xml:space="preserve">
<style type="text/css">
	.st0{fill:#00A0E3;}
	.st1{fill:#E5262B;}
	.st2{fill:url(#SVGID_1_);}
	.st3{fill:url(#SVGID_2_);}
	.st4{fill:url(#SVGID_3_);}
	.st5{fill:url(#SVGID_4_);}
	.st6{fill:url(#SVGID_5_);}
	.st7{fill:url(#SVGID_6_);}
	.st8{fill:url(#SVGID_7_);}
	.st9{fill:url(#SVGID_8_);}
	.st10{fill:url(#SVGID_9_);}
	.st11{fill:#FFFFFF;}
</style>
<g>
	<path class="st0" d="M-52.88,196.18l-0.13,0.67c-2.43-0.91-5.05,0.18-5.16,0.23c-1.14,0.46-2.16,1.16-3,2.06
		c-0.69-0.98-1.63-1.75-2.71-2.24l-0.17-0.08c-1.03-0.44-2.16-0.63-3.37-0.63h-0.11c-0.29-0.01-0.55,0-0.79,0h-0.44
		c-0.26,2.3,0.25,3.31,2.21,3.79c0.82,0.15,1.47,0.46,1.93,0.9c0.74,0.84,1.03,1.94,0.81,3.11c-0.32,1.74-1.68,3.3-3.55,4.08
		c-0.94,0.4-1.72,1.11-2.21,2.01c-0.1,0.19-0.52,1.07-0.58,1.51l0,0c-0.02,0.07-0.01,0.15,0.02,0.22l0.08,0.11l0.13-0.01
		c2.72,0.12,5.25-0.98,7.34-3.21c1.9,3.15,5.71,3.09,5.75,3.09h0.14l0.06-0.13c0.44-0.96,0.5-1.78,0.19-2.46
		c-0.39-0.85-1.25-1.14-1.38-1.18c-1.02-0.44-1.69-1.08-2.01-1.93c-0.58-1.55,0.24-3.27,0.24-3.28c1.69-2.91,4.75-3.11,5.87-2.37
		l-2.59,14.41c0,0.05-0.17,1.27,0.61,2.16c0.49,0.56,1.25,0.84,2.23,0.84h0.07h0.19l3.33-18.09l2.92-0.05l0.03,0.05
		c0.1-0.01,2.48-0.19,3.29-3.31l0.07-0.25L-52.88,196.18z"/>
	<path class="st0" d="M-69.3,199.4c-0.4-0.6-0.52-1.81-0.37-3.22h-51.53c-0.17,0.93,0.04,1.92,0.58,2.58
		c0.55,0.66,1.33,0.98,2.24,0.98h5.55l-2.66,14.34h-0.07c-1.19,0-2.07-0.37-2.73-1.15c0.59-0.93,1.03-1.95,1.28-3.02
		c0.61-2.64,0-5.52-1.58-7.52c-1.29-1.62-3.1-2.51-5.08-2.51l-2.77,0.01l-0.14,0.79c-0.15,0.71,0.02,1.46,0.48,2.03
		c0.46,0.54,1.14,0.85,1.86,0.84h0.03c1.21,0.01,2.02,0.7,2.5,1.27c0.99,1.19,1.43,3,1.14,4.61c-0.5,2.73-3.21,4.94-5.92,4.84
		c-1.43-0.05-2.92-0.84-3.9-2.07c-0.79-0.98-1.11-2.1-0.92-3.14l1.51-8.24c0.17-0.93-0.04-1.8-0.58-2.45
		c-0.56-0.65-1.38-1.02-2.24-0.99h-0.22l-2.16,11.73c-0.39,2.11,0.22,4.21,1.72,5.92c1.71,1.94,4.2,3.01,6.78,2.91
		c1.9-0.09,3.86-0.82,5.52-2.08c1.1,1.09,2.94,1.92,4.82,2.08h3.67l3.34-18.2h2.77l-3.33,18.15h0.28c1.84,0,3.62-1.5,3.96-3.34
		l2.72-14.81h15.45l-0.37,1.99h-5.56l-0.37,0.05c-4.28,0.44-8.1,4.04-8.9,8.38c-0.38,2.09,0.04,3.94,1.21,5.35
		c1.3,1.57,3.4,2.42,5.9,2.42h8.45l0.46-2.67l0.02-0.23l1.78-9.69h2.69l-0.65,3.56c-0.17,0.93,0.04,1.8,0.58,2.45
		c0.56,0.65,1.38,1.02,2.24,0.99h0.22l1.6-8.76v-0.03c0.06-1.74-1.38-1.84-1.41-1.84H-84l0.37-1.99h9.09l-2.71,14.78
		c-0.17,0.92,0.04,1.78,0.58,2.43c0.55,0.65,1.37,1.01,2.22,0.99c0.12,0,0.22-0.08,0.24-0.2l3.3-18h1.83L-69.3,199.4z
		 M-88.33,205.35l-1.77,9.28l-4.62,0.12c-1.63,0-2.8-0.4-3.47-1.21s-0.85-1.95-0.57-3.45c0.48-2.63,2.97-4.69,5.67-4.69
		c0.13,0,0.26-0.01,0.39-0.04L-88.33,205.35z"/>
	<path class="st1" d="M-55.01,180.78c-1.5-0.22-3.03-0.31-4.55-0.27c-3.16,0.08-6.28,0.75-9.2,1.97
		c35.14-2.41,34.9,30.94,34.9,30.94c0.07-0.17,0.11-0.34,0.13-0.52c0.23-0.88,0.41-1.78,0.54-2.68
		C-31.08,196.08-40.87,182.87-55.01,180.78z"/>
	
		<linearGradient id="SVGID_1_" gradientUnits="userSpaceOnUse" x1="469.3771" y1="-135.166" x2="523.3132" y2="-122.0464" gradientTransform="matrix(1 0 0 -1 -580.6 92.49)">
		<stop  offset="0" style="stop-color:#E5262B"/>
		<stop  offset="0.5" style="stop-color:#932974"/>
		<stop  offset="1" style="stop-color:#00ADEE"/>
	</linearGradient>
	<path class="st2" d="M-105.76,229.96l1.55-8.48h2.91c1.04,0,1.83,0.33,2.38,0.99c0.55,0.66,0.73,1.51,0.54,2.55l-0.26,1.4
		c-0.36,2.05-2.14,3.54-4.21,3.53L-105.76,229.96z M-102.75,222.79l-1.07,5.86h1.12c0.58,0.01,1.14-0.21,1.55-0.62
		c0.43-0.44,0.72-1.01,0.81-1.62l0.26-1.41c0.12-0.65,0.04-1.19-0.23-1.6c-0.27-0.41-0.71-0.62-1.32-0.62H-102.75z"/>
	
		<linearGradient id="SVGID_2_" gradientUnits="userSpaceOnUse" x1="469.6957" y1="-136.4756" x2="523.6318" y2="-123.3573" gradientTransform="matrix(1 0 0 -1 -580.6 92.49)">
		<stop  offset="0" style="stop-color:#E5262B"/>
		<stop  offset="0.5" style="stop-color:#932974"/>
		<stop  offset="1" style="stop-color:#00ADEE"/>
	</linearGradient>
	<path class="st3" d="M-96.3,229.96L-96.3,229.96c-0.78,0-1.42-0.63-1.42-1.42c0-0.09,0.01-0.17,0.02-0.25l0.85-4.63h1.7
		L-96.3,229.96z M-94.87,222.15h-1.7l0.23-1.27h1.7L-94.87,222.15z"/>
	
		<linearGradient id="SVGID_3_" gradientUnits="userSpaceOnUse" x1="470.529" y1="-139.9003" x2="524.4637" y2="-126.7807" gradientTransform="matrix(1 0 0 -1 -580.6 92.49)">
		<stop  offset="0" style="stop-color:#E5262B"/>
		<stop  offset="0.5" style="stop-color:#932974"/>
		<stop  offset="1" style="stop-color:#00ADEE"/>
	</linearGradient>
	<path class="st4" d="M-94.6,226.86c0.18-0.99,0.54-1.79,1.09-2.4c0.49-0.59,1.22-0.92,1.99-0.91c0.31-0.01,0.62,0.07,0.89,0.24
		c0.25,0.17,0.44,0.41,0.56,0.68l0.13-0.81h1.61l-1.15,6.27c-0.11,0.76-0.53,1.45-1.15,1.9c-0.62,0.45-1.41,0.67-2.37,0.67
		c-0.67-0.01-1.32-0.18-1.91-0.49l0.21-0.48c0.18-0.41,0.64-0.63,1.08-0.51h0.01c0.28,0.07,0.57,0.1,0.86,0.1
		c0.47,0,0.83-0.1,1.08-0.29c0.27-0.23,0.45-0.55,0.49-0.91l0.1-0.57c-0.22,0.23-0.47,0.41-0.76,0.54c-0.28,0.13-0.59,0.19-0.9,0.19
		c-0.77,0-1.32-0.28-1.65-0.85c-0.33-0.57-0.41-1.32-0.24-2.24L-94.6,226.86z M-92.92,226.99c-0.1,0.55-0.09,0.99,0.04,1.31
		c0.13,0.32,0.4,0.48,0.82,0.48c0.24,0,0.47-0.04,0.69-0.14c0.2-0.1,0.38-0.24,0.51-0.42l0.5-2.75c-0.07-0.18-0.19-0.34-0.35-0.44
		c-0.19-0.11-0.4-0.17-0.62-0.16c-0.41,0-0.79,0.21-1.01,0.56c-0.29,0.44-0.47,0.94-0.55,1.45L-92.92,226.99z"/>
	
		<linearGradient id="SVGID_4_" gradientUnits="userSpaceOnUse" x1="470.2467" y1="-138.7399" x2="524.1813" y2="-125.6203" gradientTransform="matrix(1 0 0 -1 -580.6 92.49)">
		<stop  offset="0" style="stop-color:#E5262B"/>
		<stop  offset="0.5" style="stop-color:#932974"/>
		<stop  offset="1" style="stop-color:#00ADEE"/>
	</linearGradient>
	<path class="st5" d="M-86.37,229.84c-0.01,0.07-0.07,0.11-0.13,0.11c-0.78-0.07-1.36-0.75-1.3-1.53c0-0.05,0.01-0.09,0.02-0.14
		l0.85-4.63h1.7L-86.37,229.84z M-84.96,222.15h-1.7l0.23-1.27h1.7L-84.96,222.15z"/>
	
		<linearGradient id="SVGID_5_" gradientUnits="userSpaceOnUse" x1="470.5963" y1="-140.1774" x2="524.5309" y2="-127.0577" gradientTransform="matrix(1 0 0 -1 -580.6 92.49)">
		<stop  offset="0" style="stop-color:#E5262B"/>
		<stop  offset="0.5" style="stop-color:#932974"/>
		<stop  offset="1" style="stop-color:#00ADEE"/>
	</linearGradient>
	<path class="st6" d="M-81.54,222.12l-0.28,1.54h1.06l-0.22,1.19h-1.06l-0.59,3.21c-0.04,0.25-0.03,0.42,0.06,0.52
		c0.09,0.11,0.23,0.17,0.38,0.16c0.08,0,0.16,0,0.23-0.01c0.08-0.01,0.16-0.03,0.23-0.05l-0.02,0.31c-0.03,0.58-0.49,1.04-1.06,1.09
		h-0.06c-0.59,0-1.01-0.16-1.26-0.48c-0.26-0.32-0.32-0.83-0.19-1.53l0.59-3.21h-0.92l0.22-1.19h0.92l0.28-1.54L-81.54,222.12z"/>
	
		<linearGradient id="SVGID_6_" gradientUnits="userSpaceOnUse" x1="471.1099" y1="-142.2874" x2="525.0446" y2="-129.1692" gradientTransform="matrix(1 0 0 -1 -580.6 92.49)">
		<stop  offset="0" style="stop-color:#E5262B"/>
		<stop  offset="0.5" style="stop-color:#932974"/>
		<stop  offset="1" style="stop-color:#00ADEE"/>
	</linearGradient>
	<path class="st7" d="M-77.13,229.96c-0.04-0.15-0.06-0.3-0.08-0.45c-0.01-0.16-0.01-0.33,0-0.49c-0.23,0.3-0.51,0.56-0.83,0.76
		c-0.32,0.2-0.7,0.31-1.08,0.3c-0.66,0-1.14-0.17-1.43-0.51c-0.29-0.34-0.39-0.8-0.28-1.39c0.1-0.6,0.46-1.12,0.98-1.43
		c0.54-0.34,1.26-0.51,2.17-0.51h0.94l0.09-0.5c0.05-0.3,0.02-0.54-0.11-0.7c-0.13-0.17-0.35-0.25-0.66-0.25
		c-0.24-0.01-0.48,0.06-0.67,0.2c-0.18,0.14-0.29,0.34-0.33,0.56h-1.64v-0.04c0.07-0.53,0.38-0.99,0.94-1.38
		c0.6-0.4,1.31-0.6,2.03-0.58c0.75,0,1.33,0.19,1.73,0.57c0.4,0.38,0.54,0.93,0.4,1.63l-0.48,2.6c-0.05,0.27-0.08,0.55-0.09,0.83
		c0,0.26,0.02,0.52,0.07,0.77L-77.13,229.96z M-78.47,228.82c0.29,0,0.58-0.07,0.84-0.22c0.23-0.12,0.42-0.3,0.56-0.51l0.16-0.89
		h-0.94c-0.31-0.02-0.62,0.08-0.87,0.27c-0.21,0.16-0.35,0.39-0.4,0.65c-0.05,0.18,0,0.37,0.12,0.51
		C-78.87,228.77-78.67,228.84-78.47,228.82z"/>
	
		<linearGradient id="SVGID_7_" gradientUnits="userSpaceOnUse" x1="470.9901" y1="-141.7929" x2="524.9247" y2="-128.6746" gradientTransform="matrix(1 0 0 -1 -580.6 92.49)">
		<stop  offset="0" style="stop-color:#E5262B"/>
		<stop  offset="0.5" style="stop-color:#932974"/>
		<stop  offset="1" style="stop-color:#00ADEE"/>
	</linearGradient>
	<path class="st8" d="M-73.82,229.96h-0.52l1.66-9.08h1.7l-1.45,7.92C-72.55,229.47-73.14,229.96-73.82,229.96z"/>
	
		<linearGradient id="SVGID_8_" gradientUnits="userSpaceOnUse" x1="471.4025" y1="-143.4911" x2="525.3372" y2="-130.3715" gradientTransform="matrix(1 0 0 -1 -580.6 92.49)">
		<stop  offset="0" style="stop-color:#E5262B"/>
		<stop  offset="0.5" style="stop-color:#932974"/>
		<stop  offset="1" style="stop-color:#00ADEE"/>
	</linearGradient>
	<path class="st9" d="M-61.51,222.79h-2.4l-1.09,5.94c-0.13,0.71-0.75,1.22-1.47,1.22h-0.46l1.31-7.17H-68l0.24-1.31h6.49
		L-61.51,222.79z"/>
	
		<linearGradient id="SVGID_9_" gradientUnits="userSpaceOnUse" x1="471.8267" y1="-145.2339" x2="525.7614" y2="-132.1157" gradientTransform="matrix(1 0 0 -1 -580.6 92.49)">
		<stop  offset="0" style="stop-color:#E5262B"/>
		<stop  offset="0.5" style="stop-color:#932974"/>
		<stop  offset="1" style="stop-color:#00ADEE"/>
	</linearGradient>
	<path class="st10" d="M-58.29,227.59l3.04-6.11h1.79l-4.43,8.48l0,0c-1.01,0-1.86-0.73-2.02-1.72l-1.05-6.75h1.79L-58.29,227.59z"
		/>
</g>
<g>
	<path class="st11" d="M82.62,15.68l-0.13,0.67c-2.43-0.91-5.05,0.18-5.16,0.23c-1.14,0.46-2.16,1.16-3,2.05
		c-0.69-0.98-1.63-1.75-2.71-2.24l-0.17-0.08c-1.03-0.44-2.16-0.63-3.37-0.63h-0.11c-0.29-0.01-0.55,0-0.79,0h-0.44
		c-0.26,2.3,0.25,3.31,2.21,3.79c0.82,0.15,1.47,0.46,1.93,0.9c0.74,0.84,1.03,1.94,0.81,3.11c-0.32,1.74-1.68,3.3-3.55,4.08
		c-0.95,0.39-1.73,1.1-2.22,2.01c-0.1,0.19-0.52,1.07-0.58,1.51l0,0c-0.02,0.07-0.01,0.15,0.02,0.22l0.08,0.11l0.13-0.01
		c2.72,0.12,5.25-0.98,7.34-3.21c1.9,3.15,5.71,3.09,5.75,3.09h0.14l0.06-0.13c0.44-0.96,0.5-1.78,0.19-2.46
		c-0.39-0.85-1.25-1.14-1.38-1.18c-1.02-0.44-1.69-1.08-2.01-1.93c-0.58-1.55,0.24-3.27,0.24-3.28c1.69-2.91,4.75-3.11,5.87-2.37
		l-2.59,14.41c0,0.05-0.17,1.27,0.61,2.16c0.49,0.56,1.25,0.84,2.23,0.84h0.07h0.19l3.33-18.09l2.92-0.05l0.03,0.05
		c0.1-0.01,2.48-0.19,3.29-3.31l0.07-0.25L82.62,15.68z"/>
	<path class="st11" d="M66.2,18.9c-0.4-0.6-0.52-1.81-0.37-3.22H14.31c-0.17,0.93,0.04,1.92,0.58,2.58
		c0.55,0.66,1.33,0.98,2.24,0.98h5.55l-2.66,14.34h-0.07c-1.19,0-2.07-0.37-2.73-1.15c0.59-0.93,1.03-1.94,1.28-3.01
		c0.61-2.65,0-5.52-1.58-7.52c-1.29-1.62-3.1-2.51-5.08-2.51l-2.77,0.01l-0.14,0.79c-0.15,0.71,0.02,1.46,0.48,2.03
		c0.46,0.54,1.14,0.85,1.86,0.84h0.03c1.21,0.01,2.02,0.7,2.5,1.28c0.99,1.19,1.43,3,1.14,4.61c-0.5,2.73-3.21,4.94-5.92,4.84
		c-1.43-0.05-2.92-0.84-3.9-2.06c-0.79-0.98-1.11-2.1-0.92-3.14l1.51-8.24c0.17-0.93-0.04-1.8-0.58-2.45
		c-0.56-0.65-1.38-1.02-2.24-0.99H2.66L0.51,28.6c-0.39,2.11,0.22,4.21,1.72,5.92c1.71,1.94,4.2,3.01,6.78,2.91
		c1.9-0.09,3.86-0.82,5.52-2.08c1.1,1.1,2.94,1.92,4.82,2.09h3.67l3.34-18.2h2.77L25.8,37.38h0.28c1.84,0,3.62-1.5,3.96-3.34
		l2.71-14.81h15.46l-0.37,1.99h-5.56l-0.37,0.05c-4.28,0.44-8.1,4.04-8.9,8.38c-0.38,2.09,0.04,3.94,1.21,5.35
		c1.3,1.57,3.4,2.42,5.9,2.42h8.45l0.46-2.67l0.02-0.23l1.78-9.68h2.69l-0.65,3.56c-0.17,0.93,0.04,1.8,0.58,2.45
		c0.56,0.65,1.38,1.02,2.24,0.99h0.22l1.6-8.76v-0.03c0.06-1.74-1.38-1.84-1.41-1.84H51.5l0.37-1.99h9.09l-2.71,14.78
		c-0.17,0.92,0.04,1.78,0.58,2.43c0.55,0.65,1.37,1.01,2.22,0.99c0.12,0,0.22-0.08,0.24-0.2l3.3-18h1.83L66.2,18.9z M47.17,24.86
		l-1.77,9.28l-4.62,0.12c-1.63,0-2.8-0.4-3.47-1.21s-0.85-1.95-0.57-3.45c0.48-2.63,2.97-4.69,5.67-4.69c0.13,0,0.26-0.01,0.39-0.04
		L47.17,24.86z"/>
	<path class="st11" d="M80.49,0.28c-1.5-0.22-3.03-0.31-4.55-0.27c-3.16,0.08-6.28,0.75-9.2,1.97c35.14-2.41,34.9,30.94,34.9,30.94
		c0.07-0.17,0.11-0.34,0.13-0.52c0.23-0.88,0.41-1.78,0.54-2.68C104.43,15.58,94.63,2.37,80.49,0.28z"/>
	<path class="st11" d="M29.74,49.46l1.55-8.48h2.91c1.04,0,1.83,0.33,2.38,0.99s0.73,1.51,0.54,2.55l-0.26,1.4
		c-0.36,2.05-2.14,3.54-4.21,3.53L29.74,49.46z M32.75,42.3l-1.07,5.86h1.12c0.58,0.01,1.14-0.21,1.55-0.62
		c0.43-0.44,0.72-1.01,0.81-1.62l0.26-1.41c0.12-0.66,0.04-1.19-0.23-1.6c-0.27-0.41-0.71-0.61-1.31-0.61H32.75z"/>
	<path class="st11" d="M39.2,49.46L39.2,49.46c-0.78,0-1.42-0.63-1.42-1.42c0-0.09,0.01-0.17,0.02-0.25l0.85-4.63h1.7L39.2,49.46z
		 M40.62,41.65h-1.7l0.23-1.27h1.7L40.62,41.65z"/>
	<path class="st11" d="M40.9,46.36c0.18-0.99,0.54-1.79,1.09-2.4c0.49-0.59,1.22-0.92,1.99-0.91c0.31-0.01,0.62,0.07,0.89,0.24
		c0.25,0.17,0.44,0.41,0.56,0.68l0.13-0.81h1.61l-1.15,6.27c-0.11,0.76-0.53,1.45-1.15,1.9C44.25,51.78,43.46,52,42.51,52
		c-0.33,0-0.67-0.05-0.99-0.13c-0.32-0.08-0.63-0.2-0.93-0.35l0.21-0.48c0.18-0.41,0.64-0.63,1.08-0.51h0.01
		c0.28,0.07,0.57,0.1,0.86,0.1c0.47,0,0.83-0.1,1.08-0.29c0.27-0.23,0.45-0.55,0.49-0.91l0.1-0.57c-0.22,0.23-0.47,0.41-0.76,0.54
		c-0.28,0.13-0.59,0.19-0.9,0.19c-0.77,0-1.32-0.28-1.65-0.85c-0.33-0.57-0.41-1.32-0.24-2.24L40.9,46.36z M42.58,46.49
		c-0.1,0.55-0.09,0.99,0.04,1.31c0.13,0.32,0.4,0.48,0.82,0.48c0.24,0,0.47-0.04,0.69-0.14c0.2-0.1,0.38-0.24,0.51-0.42l0.5-2.75
		c-0.07-0.18-0.19-0.34-0.35-0.44c-0.19-0.11-0.4-0.17-0.62-0.16c-0.41,0-0.79,0.21-1.01,0.56c-0.29,0.44-0.47,0.94-0.55,1.45
		L42.58,46.49z"/>
	<path class="st11" d="M49.13,49.34c-0.01,0.06-0.07,0.11-0.13,0.11c-0.78-0.07-1.36-0.75-1.3-1.53c0-0.05,0.01-0.09,0.02-0.14
		l0.85-4.63h1.7L49.13,49.34z M50.54,41.65h-1.7l0.23-1.27h1.7L50.54,41.65z"/>
	<path class="st11" d="M53.96,41.62l-0.28,1.54h1.06l-0.22,1.19h-1.06l-0.59,3.21c-0.04,0.25-0.03,0.42,0.06,0.52
		c0.09,0.11,0.23,0.17,0.38,0.16c0.08,0,0.16,0,0.23-0.01c0.08-0.01,0.16-0.03,0.23-0.05l-0.02,0.31c-0.03,0.58-0.49,1.04-1.06,1.09
		h-0.06c-0.59,0-1.01-0.16-1.26-0.48c-0.26-0.32-0.32-0.83-0.19-1.53l0.59-3.21h-0.92l0.22-1.19h0.92l0.28-1.54L53.96,41.62z"/>
	<path class="st11" d="M58.37,49.46c-0.04-0.15-0.06-0.3-0.08-0.45c-0.01-0.16-0.01-0.33,0-0.49c-0.23,0.3-0.51,0.56-0.83,0.76
		c-0.32,0.2-0.7,0.31-1.08,0.3c-0.66,0-1.14-0.17-1.43-0.51c-0.29-0.34-0.39-0.8-0.29-1.38c0.1-0.6,0.46-1.12,0.98-1.43
		c0.54-0.34,1.26-0.51,2.17-0.51h0.94l0.09-0.5c0.06-0.3,0.02-0.54-0.11-0.7c-0.13-0.17-0.35-0.25-0.66-0.25
		c-0.24-0.01-0.48,0.06-0.67,0.2c-0.18,0.14-0.29,0.34-0.33,0.56h-1.64v-0.05c0.07-0.53,0.38-0.99,0.94-1.38
		c0.6-0.4,1.31-0.6,2.03-0.58c0.75,0,1.33,0.19,1.73,0.57c0.4,0.38,0.53,0.93,0.4,1.63l-0.48,2.6c-0.05,0.27-0.08,0.55-0.09,0.83
		c0,0.26,0.02,0.52,0.07,0.77L58.37,49.46z M57.03,48.33c0.29,0,0.58-0.08,0.84-0.22c0.23-0.12,0.42-0.3,0.56-0.51l0.16-0.89h-0.94
		c-0.31-0.02-0.62,0.08-0.87,0.27c-0.21,0.16-0.35,0.39-0.4,0.65c-0.05,0.18,0,0.37,0.12,0.51C56.63,48.27,56.83,48.34,57.03,48.33
		L57.03,48.33z"/>
	<path class="st11" d="M61.68,49.46h-0.52l1.66-9.08h1.7l-1.45,7.92C62.95,48.97,62.36,49.46,61.68,49.46z"/>
	<path class="st11" d="M73.99,42.3h-2.4l-1.09,5.94c-0.13,0.71-0.75,1.22-1.47,1.22h-0.46l1.31-7.17H67.5l0.24-1.31h6.49L73.99,42.3
		z"/>
	<path class="st11" d="M77.21,47.09l3.04-6.11h1.79l-4.43,8.48l0,0c-1.01,0-1.86-0.73-2.02-1.72l-1.05-6.75h1.79L77.21,47.09z"/>
</g>
</svg>
