<?xml version="1.0" encoding="utf-8"?>
<!-- Generator: Adobe Illustrator 22.1.0, SVG Export Plug-In . SVG Version: 6.00 Build 0)  -->
<svg version="1.1" id="Layer_1" xmlns="http://www.w3.org/2000/svg" xmlns:xlink="http://www.w3.org/1999/xlink" x="0px" y="0px"
	 viewBox="0 0 271.9 600" style="enable-background:new 0 0 271.9 600;" xml:space="preserve">
<style type="text/css">
	.st0{fill:#FFFFFF;}
	.st1{fill:#CBD2D7;}
	.st2{fill:#8E99A3;}
	.st3{fill:#0091D8;}
	.st4{fill:#066D96;}
	.st5{fill:#5AD4FF;}
	.st6{fill:#06637F;}
	.st7{fill:#45494D;}
	.st8{fill:#6C757D;}
	.st9{fill:#AFB8C0;}
	.st10{fill:#535A61;}
</style>
<g>
	<rect x="181.1" y="177.1" width="12.9" height="18.6"/>
	<path class="st0" d="M212.8,117.4c-0.8-1.4-2.4-1.9-3-2v0c0,0,0,0-0.1,0c-0.1,0-0.1,0-0.1,0v0c-0.6,0.1-2.2,0.6-3,2
		c-1,1.8-16.7,52.4-16.7,52.4v279.7h19.8h0.3h19.8V169.9C229.5,169.9,213.8,119.2,212.8,117.4z"/>
	<path class="st1" d="M228.4,166.1c-3.6-11.7-14.7-47.2-15.6-48.7c-0.7-1.2-2-1.7-2.7-1.9v50.6H228.4z"/>
	<rect x="210.1" y="175.1" class="st1" width="19.5" height="29.7"/>
	<rect x="210.1" y="213.7" class="st1" width="19.5" height="37.4"/>
	<rect x="210.1" y="260.1" class="st1" width="19.5" height="83.1"/>
	<rect x="210.1" y="352.1" class="st1" width="19.5" height="97.4"/>
	<path class="st2" d="M220.4,140.5v25.6h8C226.7,160.7,223.5,150.3,220.4,140.5z"/>
	<rect x="220.4" y="175.1" class="st2" width="9.2" height="29.7"/>
	<rect x="220.4" y="213.7" class="st2" width="9.2" height="37.4"/>
	<rect x="220.4" y="260.1" class="st2" width="9.2" height="83.1"/>
	<rect x="220.4" y="352.1" class="st2" width="9.2" height="97.4"/>
	<rect x="189.8" y="169.9" width="39.8" height="1.5"/>
	<rect x="189.8" y="208.4" width="39.8" height="1.5"/>
	<rect x="189.6" y="254.6" width="39.8" height="1.5"/>
	<rect x="189.6" y="347" width="39.8" height="1.5"/>
	<rect x="76.6" y="177.1" transform="matrix(-1 -1.224647e-16 1.224647e-16 -1 166.1027 372.8049)" width="12.9" height="18.6"/>
	<path class="st0" d="M57.8,117.4c0.8-1.4,2.4-1.9,3-2v0c0,0,0.1,0,0.1,0c0.1,0,0.1,0,0.1,0v0c0.6,0.1,2.2,0.6,3,2
		c1,1.8,16.7,52.4,16.7,52.4v279.7H61.1h-0.3H41.1V169.9C41.1,169.9,56.8,119.2,57.8,117.4z"/>
	<path class="st1" d="M79.9,166.1c-3.7-11.9-14.7-47-15.5-48.5c-0.7-1.2-2-1.7-2.7-1.9v50.4H79.9z"/>
	<rect x="61.7" y="175.1" class="st1" width="19.5" height="29.7"/>
	<rect x="61.7" y="352.1" class="st1" width="19.5" height="97.6"/>
	<rect x="61.7" y="260.1" class="st1" width="19.5" height="83.1"/>
	<rect x="61.7" y="213.7" class="st1" width="19.5" height="37.4"/>
	<rect x="41.1" y="169.9" width="39.8" height="1.5"/>
	<rect x="41.1" y="208.4" width="39.8" height="1.5"/>
	<rect x="41.2" y="254.6" width="39.8" height="1.5"/>
	<rect x="41.2" y="347" width="39.8" height="1.5"/>
	<rect x="86.9" y="223.3" width="96.8" height="1.5"/>
	<path class="st3" d="M136,0.6V0c0,0-0.1,0.1-0.3,0.3c-0.2-0.2-0.3-0.3-0.3-0.3v0.6c-5.6,6.1-54.2,61.5-48.1,145.4v391.4h48.1h0.5
		h48.1V145.9C190.3,62.1,141.6,6.6,136,0.6z"/>
	<path class="st4" d="M161.4,38.1v499.3h22.7V145.9C187.5,100.5,174.7,63.5,161.4,38.1z"/>
	<path class="st5" d="M135.2,140V1c-6.8,7.5-51.5,60-48.1,139H135.2z"/>
	<rect x="87.4" y="152.3" class="st5" width="47.7" height="385.1"/>
	<polygon class="st0" points="103.5,578.8 105.9,590 107.5,582 111.3,588.4 113.6,582.8 115.9,591.6 119,582.3 122.7,598.1 
		124.1,582.5 126.7,586.6 128.8,581.8 130.4,592.6 132.8,580.8 136,595.1 140.8,581.5 144.6,591.6 145.8,581.8 148.2,584.7 
		151.6,580.2 155.4,591 157.6,580.2 161.1,600 163.1,581.3 164.3,583.9 165.1,581.3 166.8,584.6 168.4,578.8 	"/>
	<g>
		<path class="st6" d="M184,372.1V219.5l-42.4-42.4l-0.3,0.3c0.4,0.7,0.6,1.5,0.5,2.5c-2.2,26.9-0.7,54.5-0.8,81.5
			c-0.1,14.2-0.1,28.5-0.1,42.7c0,8.2,0.5,16.7,0.2,25.1L184,372.1z"/>
		<path class="st7" d="M271.9,506.6c0,0-1.3-7.1-4.1-18c-2.8-10.9-10.9-17.2-10.9-17.2s-43.8-45.9-53.7-54.2
			c-9.9-8.4-14.9-27.1-14.9-27.1l-21-118.8H136h-0.2h-31.3L83.6,390c0,0-5.1,18.8-14.9,27.1c-9.9,8.4-53.7,54.2-53.7,54.2
			s-8.1,6.3-10.9,17.2c-2.8,10.9-4.1,18-4.1,18v6.8h2.8L0,520.3v6.3l135.9,17.2v0l0.1,0l0.1,0v0l135.9-17.2v-6.3l-2.8-6.8h2.8V506.6
			z"/>
		<polygon class="st8" points="90.2,532.4 90.2,562.3 101.1,562.3 103.5,578.8 132.8,578.8 132.8,531.1 		"/>
		<polygon class="st9" points="2.7,506 136,506 136,543.8 0,526.6 0,520.3 2.8,513.4 0,513.4 0,506.6 		"/>
		<path class="st1" d="M103.5,310.5l-14.2,87.9c0,0-6.2,16.2-10.5,20.5c-4.3,4.3-67.4,67.1-67.4,67.1l-6.3,20h111.5l-4.2-212
			L103.5,310.5z"/>
		<polygon class="st10" points="181.8,532.4 181.8,562.3 170.9,562.3 168.4,578.8 139.2,578.8 139.2,531.1 		"/>
		<polygon class="st10" points="269.3,506 135.9,506 135.9,543.8 271.9,526.6 271.9,520.3 269.2,513.4 271.9,513.4 271.9,506.6 		
			"/>
		<path class="st8" d="M168.4,310.5l14.2,87.9c0,0,6.2,16.2,10.5,20.5c4.3,4.3,67.4,67.1,67.4,67.1l6.3,20H155.4l4.2-212
			L168.4,310.5z"/>
		<path class="st10" d="M201.4,427.1c-4.3-4.3-7.4-7.4-8.2-8.2c-4.3-4.3-10.5-20.5-10.5-20.5l-14.2-87.9l-8.8-16.5l-4.2,212h46
			V427.1z"/>
		<path class="st0" d="M168.3,484.8c0,0,0.3-189.5,0-211c-0.3-21.5-6.6-45.6-6.6-45.6c-11.6-54.3-24.7-54.3-25.8-54.2
			c-1.1-0.1-14.1-0.1-25.8,54.2c0,0-6.3,24.1-6.6,45.6c-0.3,21.5,0,211,0,211c-12.9,0-13.4,27.4-13.4,27.4v31.7h37h8.7h0.2h8.7h37
			v-31.7C181.8,512.1,181.2,484.8,168.3,484.8z"/>
		<path class="st1" d="M156.5,207.3c-9.2-30.8-18-33.3-20.1-33.4v33.4H156.5z"/>
		<path class="st1" d="M168.3,484.8C168.3,484.8,168.3,484.7,168.3,484.8l-32,0v59.1h45.4v-31.7
			C181.8,512.1,181.2,484.8,168.3,484.8z"/>
		<path class="st1" d="M168.3,475.8c0-37.9,0.2-183.3,0-202c-0.3-21.5-6.6-45.6-6.6-45.6c-0.9-4.3-1.8-8.2-2.8-11.9h-22.6v259.5
			H168.3z"/>
		<path class="st9" d="M168.3,484.8C168.3,484.8,168.3,484.7,168.3,484.8l-9,0c1.4,1.1,2.6,2.4,3.6,3.9l0,0c0.1,0.1,0.2,0.2,0.3,0.3
			l0,0c1.8,1.8,3.1,3.8,3.9,6c1.2,2.4,1.9,5.2,1.9,8.4v40.4h12.6v-31.7C181.8,512.1,181.2,484.8,168.3,484.8z"/>
		<path class="st9" d="M168.3,273.7c-0.3-21.5-6.6-45.6-6.6-45.6c-0.9-4.3-1.8-8.2-2.8-11.9h-6.2v259.5h15.6
			C168.4,437.9,168.5,292.5,168.3,273.7z"/>
		<polygon class="st9" points="136,481.1 135.9,481.1 126.2,481.1 131.9,595.1 135.9,595.1 136,595.1 140.1,595.1 145.8,481.1 		"/>
		<polygon class="st10" points="157.5,210.7 143.3,210.7 143.3,201.8 136,201.8 135.9,201.8 128.6,201.8 128.6,210.7 114.5,210.7 
			113.8,213 135.9,213 136,213 158.1,213 		"/>
	</g>
	<rect x="87.4" y="146.1" width="96.8" height="1.5"/>
</g>
</svg>
