<?xml version="1.0" encoding="utf-8"?>
<!-- Generator: Adobe Illustrator 22.1.0, SVG Export Plug-In . SVG Version: 6.00 Build 0)  -->
<svg version="1.1" id="Layer_1" xmlns="http://www.w3.org/2000/svg" xmlns:xlink="http://www.w3.org/1999/xlink" x="0px" y="0px"
	 viewBox="0 0 485.4 370" style="enable-background:new 0 0 485.4 370;" xml:space="preserve">
<style type="text/css">
	.st0{fill:none;stroke:#B27B8F;stroke-width:11.9636;stroke-linecap:round;stroke-miterlimit:10;}
	.st1{fill:none;stroke:#FCE5A7;stroke-width:11.9636;stroke-linecap:round;stroke-linejoin:round;stroke-miterlimit:10;}
	.st2{fill:none;stroke:#B27B8F;stroke-width:9.1143;stroke-linecap:round;stroke-linejoin:round;stroke-miterlimit:10;}
	.st3{fill:none;stroke:#B27B8F;stroke-width:11.9636;stroke-linecap:round;stroke-linejoin:round;stroke-miterlimit:10;}
	.st4{fill:#FFE1EB;}
</style>
<g>
	<g>
		<polyline class="st0" points="10.3,380.8 31.7,352.5 10.3,324.2 31.7,295.9 10.3,267.6 31.7,239.3 10.3,211 31.7,182.7 
			10.3,154.4 31.7,126.1 10.3,97.8 31.7,69.5 10.3,41.1 31.7,12.8 		"/>
		<polyline class="st0" points="10.3,379 31.7,407.3 10.3,435.6 31.7,463.9 14.8,478.9 		"/>
		<line class="st1" x1="42" y1="482" x2="42" y2="-94.4"/>
		<line class="st0" x1="6" y1="-94.4" x2="6" y2="447.3"/>
		<line class="st0" x1="35.3" y1="478.5" x2="35.3" y2="-94.4"/>
		<polyline class="st0" points="31.7,18.3 10.3,-10 31.7,-38.3 10.3,-66.6 31.7,-94.9 		"/>
	</g>
	<g>
		<polyline class="st2" points="454.4,381.3 475.8,353 454.4,324.7 475.8,296.4 454.4,268.1 475.8,239.8 454.4,211.5 475.8,183.2 
			454.4,154.9 475.8,126.6 454.4,98.2 475.8,69.9 454.4,41.6 475.8,13.3 		"/>
		<polyline class="st2" points="454.4,379.5 475.8,407.8 454.4,436.1 475.8,464.4 466.2,474.1 		"/>
		<line class="st1" x1="444.5" y1="-93.9" x2="444.5" y2="480.8"/>
		<line class="st3" x1="450.1" y1="-93.9" x2="450.1" y2="474.9"/>
		<line class="st0" x1="479.4" y1="456.5" x2="479.4" y2="-93.9"/>
		<polyline class="st2" points="475.8,18.8 454.4,-9.5 475.8,-37.8 454.4,-66.1 475.8,-94.4 		"/>
	</g>
	<polyline class="st1" points="153.3,485.7 174.7,457.4 153.3,429.1 174.7,400.8 153.3,372.5 174.7,344.2 153.3,315.9 174.7,287.6 
		153.3,259.3 174.7,231 153.3,202.7 174.7,174.3 	"/>
	<line class="st1" x1="150.2" y1="67.1" x2="150.2" y2="474.9"/>
	<line class="st1" x1="175.9" y1="483.2" x2="175.9" y2="67.1"/>
	<polyline class="st1" points="174.7,179.8 153.3,151.5 174.7,123.2 153.3,94.9 174.7,66.6 	"/>
	<g>
		<polyline class="st1" points="333.6,486.9 312.2,458.6 333.6,430.3 312.2,402 333.6,373.7 312.2,345.4 333.6,317.1 312.2,288.8 
			333.6,260.5 312.2,232.2 333.6,203.9 312.2,175.5 		"/>
		<line class="st1" x1="336.7" y1="68.3" x2="336.7" y2="471.3"/>
		<line class="st1" x1="309.8" y1="477.3" x2="309.8" y2="68.3"/>
		<polyline class="st1" points="312.2,181 333.6,152.7 312.2,124.4 333.6,96.1 312.2,67.8 		"/>
	</g>
	<g>
		<path class="st4" d="M217.9,213.6C218.1,213.9,218.1,213.9,217.9,213.6L217.9,213.6z"/>
	</g>
</g>
</svg>
