<?xml version="1.0" encoding="utf-8"?>
<!-- Generator: Adobe Illustrator 22.1.0, SVG Export Plug-In . SVG Version: 6.00 Build 0)  -->
<svg version="1.1" id="Layer_1" xmlns="http://www.w3.org/2000/svg" xmlns:xlink="http://www.w3.org/1999/xlink" x="0px" y="0px"
	 viewBox="0 0 150 150" style="enable-background:new 0 0 150 150;" xml:space="preserve">
<style type="text/css">
	.st0{fill:#0091D8;}
	.st1{fill:#E20613;}
</style>
<g>
	<g>
		<path class="st0" d="M135.5,127c0,0.5,0,0.9,0,1.4c0.1,1.2-0.5,2.1-1.4,2.8c-0.1,0.1-0.3,0.2-0.5,0.2c-0.2,0-0.4,0-0.6,0
			c-38.3,0-76.5,0-114.8,0c-0.9,0-1.6-0.1-2.2-0.9c-0.2-0.2-0.4-0.4-0.7-0.5c0-10.7,0-21.4,0-32.1c0.6-0.6,1-0.9,1.6-1.5
			c0.3,0,0.6,0,0.9,0c38.4,0,76.8,0,115.2,0c0.3,0,0.5,0,0.8,0c1,0.8,1.6,1.7,1.5,3.1c0,3.7,0,7.5,0,11.2L135.5,127z M75.4,126.4
			c18.1,0,36.2,0,54.3,0c0.6,0,0.8-0.1,0.8-0.8c0-7.8,0-15.7,0-23.5c0-0.6-0.2-0.7-0.8-0.7c-36.2,0-72.4,0-108.6,0
			c-0.6,0-0.7,0.2-0.7,0.8c0,7.8,0,15.6,0,23.4c0,0.7,0.2,0.8,0.8,0.8C39.3,126.4,57.4,126.4,75.4,126.4z"/>
		<path class="st0" d="M133.9,96.3c0,0,0,0.1,0,0.1c-0.3,0-0.5,0-0.8,0c-38.4,0-76.8,0-115.2,0c-0.3,0-0.5,0-0.8,0c0,0,0-0.1,0-0.1
			C56,96.3,95,96.3,133.9,96.3z"/>
		<path class="st0" d="M40.5,121.4c-4.2,0-8.4,0-12.6,0c-0.9,0-2-0.8-2.2-1.7c-0.1-0.4-0.1-0.9-0.2-1.3c0-3,0-6,0-9
			c0-1.1,0.4-2.1,1.3-2.7c0.2-0.1,0.4-0.2,0.7-0.2c8.7,0,17.3,0,26,0c0.6,0,1.6,0.9,1.8,1.6c0.1,0.3,0.1,0.6,0.1,0.9
			c0,3.3,0,6.6,0,9.8c0,1.1-0.6,1.8-1.4,2.5c-0.2,0.1-0.5,0.1-0.7,0.1C49,121.4,44.7,121.4,40.5,121.4z M40.4,111.4
			c-3.1,0-6.3,0-9.4,0c-0.4,0-0.6,0-0.6,0.5c0,1.3,0,2.7,0,4c0,0.4,0.1,0.5,0.5,0.5c6.3,0,12.7,0,19,0c0.4,0,0.5-0.1,0.5-0.5
			c0-1.3,0-2.6,0-3.8c0-0.5-0.2-0.7-0.7-0.6C46.7,111.4,43.6,111.4,40.4,111.4z"/>
		<path class="st0" d="M115.5,116.4c1.5,0,2.9,0,4.4,0c0.5,0,0.6,0.2,0.6,0.7c0,1.3,0,2.6,0,3.8c0,0.4-0.1,0.5-0.5,0.5
			c-3,0-6,0-8.9,0c-0.4,0-0.5-0.1-0.5-0.5c0-1.3,0-2.7,0-4c0-0.4,0.1-0.5,0.5-0.5C112.5,116.4,114,116.4,115.5,116.4z"/>
		<path class="st0" d="M95.5,118.9c0,1.3-1.3,2.5-2.5,2.5c-1.2,0-2.5-1.3-2.5-2.5c0-1.3,1.2-2.5,2.5-2.5
			C94.2,116.4,95.5,117.6,95.5,118.9z"/>
		<path class="st0" d="M103,121.4c-1.3,0-2.5-1.3-2.5-2.5c0-1.3,1.3-2.5,2.5-2.5c1.2,0,2.5,1.2,2.5,2.5
			C105.5,120.1,104.2,121.4,103,121.4z"/>
		<path class="st0" d="M85.5,118.9c0,1.3-1.2,2.5-2.5,2.5c-1.3,0-2.4-1.1-2.5-2.4c0-1.3,1.1-2.6,2.4-2.6
			C84.2,116.4,85.4,117.6,85.5,118.9z"/>
	</g>
	<path class="st1" d="M49,33.8c0-0.1-0.1-0.2-0.2-0.3c-0.9-1.3-2.6-1.7-4-0.8c-1.3,0.9-1.7,2.6-0.8,4l26.5,40.4L49,33.8z"/>
	<path class="st1" d="M17.9,81.8c-0.1,0-0.2,0-0.3,0c-1.6,0.1-2.8,1.4-2.7,3c0.1,1.6,1.4,2.8,3,2.7l48.2-2.7L17.9,81.8z"/>
	<path class="st1" d="M132.1,82.1l-48.2,2.7l48.2,3c0.1,0,0.2,0,0.3,0c1.6-0.1,2.8-1.4,2.7-3C135.1,83.2,133.7,82,132.1,82.1z"/>
	<path class="st1" d="M106.3,36.5c0.7-1.4,0.1-3.1-1.3-3.8c-1.4-0.7-3.1-0.1-3.8,1.3L79.5,77.1l26.7-40.2
		C106.2,36.7,106.3,36.6,106.3,36.5z"/>
	<path class="st1" d="M37,62.9c-0.6,1.3-0.1,2.8,1.2,3.5l31.3,15.2L40.8,61.9c-0.1-0.1-0.2-0.1-0.3-0.2C39.2,61.1,37.6,61.6,37,62.9
		z"/>
	<path class="st1" d="M109.3,62.1L80.6,81.6l31.3-15c0.1-0.1,0.2-0.1,0.3-0.2c1.2-0.8,1.5-2.4,0.7-3.6
		C112.1,61.6,110.5,61.3,109.3,62.1z"/>
	<path class="st1" d="M74.9,40.9c-1.4,0.1-2.5,1.3-2.4,2.8L75,78.4l2.7-34.6c0-0.1,0-0.3,0-0.4C77.6,41.9,76.4,40.8,74.9,40.9z"/>
	<polygon class="st0" points="18.5,58.8 22.4,57.7 25.6,60.3 25.8,56.2 29.3,54 25.4,52.6 24.4,48.6 21.8,51.8 17.7,51.5 20,54.9 	
		"/>
	<polygon class="st0" points="124.5,60.6 127.7,58 131.7,59.1 130.2,55.3 132.5,51.8 128.3,52.1 125.8,48.9 124.8,52.8 120.9,54.3 
		124.4,56.5 	"/>
	<polygon class="st0" points="77,22.3 75.2,18.6 73.4,22.2 69.3,22.8 72.2,25.7 71.5,29.8 75.2,27.9 78.8,29.8 78.1,25.7 81.1,22.9 
			"/>
	<path class="st0" d="M41.4,26.1c1.2-0.7,1.6-2.2,0.9-3.3c-0.7-1.2-2.2-1.6-3.3-0.9c-1.2,0.7-1.6,2.2-0.9,3.3
		C38.7,26.4,40.2,26.8,41.4,26.1z"/>
	<path class="st0" d="M112.3,25.4c0.7-1.2,0.3-2.7-0.9-3.3c-1.2-0.7-2.7-0.3-3.3,0.9c-0.7,1.2-0.3,2.7,0.9,3.3
		C110.1,27,111.6,26.6,112.3,25.4z"/>
	<path class="st0" d="M4.9,82.2c-1.3,0-2.4,1.1-2.4,2.4c0,1.3,1.1,2.4,2.4,2.4c1.3,0,2.4-1.1,2.4-2.4C7.4,83.3,6.3,82.2,4.9,82.2z"
		/>
	<path class="st0" d="M145.1,82.6c-1.3,0-2.4,1.1-2.4,2.4c0,1.3,1.1,2.4,2.4,2.4c1.3,0,2.4-1.1,2.4-2.4
		C147.5,83.7,146.4,82.6,145.1,82.6z"/>
</g>
</svg>
