<?xml version="1.0" encoding="utf-8"?>
<!-- Generator: Adobe Illustrator 22.1.0, SVG Export Plug-In . SVG Version: 6.00 Build 0)  -->
<svg version="1.1" id="Layer_1" xmlns="http://www.w3.org/2000/svg" xmlns:xlink="http://www.w3.org/1999/xlink" x="0px" y="0px"
	 viewBox="0 0 150 150" style="enable-background:new 0 0 150 150;" xml:space="preserve">
<style type="text/css">
	.st0{fill:#99142B;}
	.st1{fill:#560E21;}
	.st2{fill:#6B0E20;}
	.st3{fill:#C0D8D5;}
	.st4{opacity:0.4;fill:#420816;}
	.st5{opacity:0.3;fill:#6B0E20;}
	.st6{fill:#FFF2BD;}
	.st7{fill:#FFDC9F;}
	.st8{display:none;fill:#E59A48;}
	.st9{fill:#FFFFFF;}
	.st10{fill:#EDF6F7;}
	.st11{fill:#CDE8E8;}
	.st12{fill:#0091D8;}
	.st13{fill:#0D5F7F;}
	.st14{fill:#31B4E8;}
	.st15{fill:#E20613;}
</style>
<g>
	<g>
		<path class="st0" d="M136.1,74.8c0,14.4-11.6,26-26,26c-14.4,0-26-11.6-26-26c0-14.4,11.6-26,26-26
			C124.5,48.8,136.1,60.4,136.1,74.8z"/>
		<path class="st1" d="M110.1,37.4c-20.6,0-37.4,16.7-37.4,37.4c0,20.6,16.7,37.4,37.4,37.4c20.6,0,37.4-16.7,37.4-37.4
			C147.5,54.1,130.8,37.4,110.1,37.4z M110.1,44.3c5.4,0,9.7,4.4,9.7,9.7c0,5.4-4.4,9.7-9.7,9.7c-5.4,0-9.7-4.4-9.7-9.7
			C100.4,48.7,104.7,44.3,110.1,44.3z M81.2,65.4c1.7-5.1,7.2-7.9,12.3-6.3c5.1,1.7,7.9,7.2,6.3,12.3c-1.7,5.1-7.2,7.9-12.3,6.3
			C82.3,76,79.5,70.5,81.2,65.4z M105.9,97.2c-3.2,4.4-9.3,5.3-13.6,2.2c-4.4-3.2-5.3-9.3-2.2-13.6c3.2-4.4,9.3-5.3,13.6-2.2
			C108.1,86.8,109,92.9,105.9,97.2z M105.2,74.8c0-2.7,2.2-4.9,4.9-4.9c2.7,0,4.9,2.2,4.9,4.9c0,2.7-2.2,4.9-4.9,4.9
			C107.4,79.7,105.2,77.5,105.2,74.8z M128,99.4c-4.4,3.2-10.4,2.2-13.6-2.2c-3.2-4.4-2.2-10.4,2.2-13.6c4.4-3.2,10.4-2.2,13.6,2.2
			C133.3,90.1,132.4,96.2,128,99.4z M132.8,77.6c-5.1,1.7-10.6-1.1-12.3-6.3c-1.7-5.1,1.1-10.6,6.3-12.3c5.1-1.7,10.6,1.1,12.3,6.3
			C140.7,70.5,137.9,76,132.8,77.6z"/>
	</g>
	<g>
		<path class="st2" d="M4.5,81.4v25.9c0,3,2.4,5.4,5.4,5.4h37.8c3,0,5.4-2.4,5.4-5.4V81.4H4.5z"/>
		<path class="st2" d="M50.9,67l-1.7-5.6c-0.9-2.9-3.9-4.5-6.8-3.6L6.3,68.9c-2.9,0.9-4.5,3.9-3.6,6.8l1.7,5.6L50.9,67z"/>
		<g>
			<path class="st3" d="M2.7,75.7l0.9,2.8l2.8,2.2l6.4-2l-9.6-7.3C2.5,72.6,2.3,74.2,2.7,75.7z"/>
			<polygon class="st3" points="8.1,68.4 19.1,76.7 25.5,74.8 14.4,66.4 			"/>
			<polygon class="st3" points="20.7,64.5 31.8,72.8 38.1,70.9 27.1,62.5 			"/>
			<polygon class="st3" points="50.8,67 39.8,58.6 33.4,60.6 44.4,69 			"/>
		</g>
		<polygon class="st3" points="11.7,92.6 19.8,81.4 26.4,81.4 18.4,92.6 		"/>
		<polygon class="st3" points="25,92.6 33,81.4 39.7,81.4 31.6,92.6 		"/>
		<polygon class="st3" points="52.9,81.4 44.9,92.6 38.2,92.6 46.3,81.4 		"/>
		<polygon class="st3" points="4.5,92.6 5.1,92.6 13.2,81.4 6.5,81.4 4.5,84.3 		"/>
		<rect x="11.7" y="98.8" class="st3" width="27.1" height="1.3"/>
		<rect x="11.7" y="102.1" class="st3" width="21.7" height="1.3"/>
		<rect x="4.5" y="81.4" class="st4" width="48.6" height="2.2"/>
	</g>
	<g>
		<path class="st5" d="M57.5,106.9h-30c0,2.9-2.4,5.3-5.3,5.3v16.1c2.9,0,5.3,2.4,5.3,5.3h30c0-2.9,2.4-5.3,5.3-5.3v-16.1
			C59.8,112.2,57.5,109.8,57.5,106.9z"/>
		<path class="st6" d="M55.2,104.8h-30c0,2.9-2.4,5.3-5.3,5.3v16.1c2.9,0,5.3,2.4,5.3,5.3h30c0-2.9,2.4-5.3,5.3-5.3v-16.1
			C57.6,110.1,55.2,107.7,55.2,104.8z"/>
		<path class="st7" d="M20,118.4v7.8c2.9,0,5.3,2.4,5.3,5.3h30c0-2.9,2.4-5.3,5.3-5.3v-7.8H20z"/>
		<path class="st8" d="M51.7,109.3H28.8c-1.1,0-2,0.9-2,2V125c0,1.1,0.9,2,2,2h22.9c1.1,0,2-0.9,2-2v-13.8
			C53.6,110.1,52.7,109.3,51.7,109.3z M52.8,125c0,0.7-0.5,1.2-1.2,1.2H28.8c-0.7,0-1.2-0.5-1.2-1.2v-13.8c0-0.7,0.5-1.2,1.2-1.2
			h22.9c0.7,0,1.2,0.5,1.2,1.2V125z"/>
	</g>
	<g>
		<path class="st9" d="M77.2,42.5l-2.1-2.1L66,49.6c-0.3,0.3-0.4,0.7-0.4,1.1c0,0,0,0,0,0v21.6c0,0.8,0.7,1.5,1.5,1.5
			c0.8,0,1.5-0.7,1.5-1.5V51.3L77.2,42.5z"/>
		<path class="st10" d="M85,75.8c0,7.5-8,13.7-18,13.7c-9.9,0-18-6.1-18-13.7c0-7.5,8-13.7,18-13.7C76.9,62.1,85,68.3,85,75.8z"/>
		<path class="st11" d="M67,62.1C67,62.1,67,62.1,67,62.1l-0.1,27.3c0,0,0,0,0.1,0c9.9,0,18-6.1,18-13.7C85,68.3,76.9,62.1,67,62.1z
			"/>
		<polygon class="st12" points="81.1,124.8 53,124.8 48.4,79 85.6,79 		"/>
		<polygon class="st13" points="66.9,79 66.9,124.8 81.1,124.8 85.6,79 		"/>
		<path class="st6" d="M81.7,127.3c0,0.4-0.3,0.7-0.7,0.7H53c-0.4,0-0.7-0.3-0.7-0.7v-1.9c0-0.4,0.3-0.7,0.7-0.7h28
			c0.4,0,0.7,0.3,0.7,0.7V127.3z"/>
		<path class="st6" d="M86.3,78.3c0,0.4-0.3,0.7-0.7,0.7H48.4c-0.4,0-0.7-0.3-0.7-0.7v-1.9c0-0.4,0.3-0.7,0.7-0.7h37.2
			c0.4,0,0.7,0.3,0.7,0.7V78.3z"/>
	</g>
	<g>
		<path class="st6" d="M111.9,79.4c-1,0-1.9,0.3-2.7,0.7c-1-2.3-3.2-3.8-5.8-3.8c-1.6,0-3.1,0.6-4.3,1.7c-1.1-2.9-4.2-4.9-7.8-4.9
			c-3.9,0-7.1,2.3-8,5.5c-1-0.8-2.2-1.2-3.5-1.2c-3.2,0-5.8,2.6-5.8,5.8c0,2.4,1.5,4.5,3.6,5.4c1.8,2.4,9,4.2,17.6,4.2
			c6.9,0,16.5-2.8,16.7-2.8c2.9,0,5.2-2.3,5.2-5.2C117.1,81.8,114.8,79.4,111.9,79.4z"/>
		<g>
			<path class="st14" d="M119.2,87.7c-0.1-2-2.2-3.6-4.8-3.6c-2.6,0-4.8,1.6-4.8,3.6h0c-0.1-2-2.2-3.6-4.8-3.6
				c-2.6,0-4.8,1.6-4.8,3.6h0c-0.1-2-2.2-3.6-4.8-3.6c-2.6,0-4.8,1.6-4.8,3.6h0c-0.1-2-2.2-3.6-4.8-3.6s-4.8,1.6-4.8,3.6h0
				c-0.1-2-2.2-3.6-4.8-3.6c-2.6,0-4.8,1.6-4.8,3.6h0l6.5,50h35.2L119.2,87.7L119.2,87.7z"/>
			<path class="st12" d="M99.9,87.7c-0.1-2-2.2-3.6-4.8-3.6c-2.6,0-4.8,1.6-4.8,3.6l0.6,50h8.4L99.9,87.7z"/>
			<path class="st12" d="M80.6,87.7c-0.1-2-2.2-3.6-4.8-3.6c-2.6,0-4.8,1.6-4.8,3.6h0l6.5,50h6.3L80.6,87.7z"/>
			<path class="st12" d="M109.6,87.7c0.1-2,2.2-3.6,4.8-3.6c2.6,0,4.8,1.6,4.8,3.6h0l-6.5,50h-6.3L109.6,87.7z"/>
		</g>
	</g>
	<g>
		<path class="st9" d="M93.8,122.8H36.7c-1.9,0-3.5,1.6-3.5,3.5v12.8c0,1.9,1.6,3.5,3.5,3.5h19.9c1.9,0,4-1.5,4.5-3.4l2.3-8h3.8
			l2.3,8c0.5,1.9,2.5,3.4,4.5,3.4h19.9c1.9,0,3.5-1.6,3.5-3.5v-12.8C97.3,124.4,95.7,122.8,93.8,122.8z"/>
		<path class="st12" d="M56.5,126.9H40.3c-1.2,0-2.1,1-2.1,2.1v7.4c0,1.2,1,2.1,2.1,2.1H53c1.2,0,2.4-0.9,2.7-2L58,129
			C58.4,127.9,57.7,126.9,56.5,126.9z"/>
		<path class="st15" d="M73.6,126.9h16.2c1.2,0,2.1,1,2.1,2.1v7.4c0,1.2-1,2.1-2.1,2.1H77.1c-1.2,0-2.4-0.9-2.7-2l-2.3-7.6
			C71.8,127.9,72.4,126.9,73.6,126.9z"/>
	</g>
	<g>
		<polygon class="st15" points="64.2,29.3 56.9,25.7 49.8,29.6 51,21.6 45.1,16 53.1,14.7 56.6,7.3 60.3,14.5 68.4,15.5 62.7,21.3 
					"/>
		<polygon class="st15" points="49.3,44.2 43.7,41.4 38.2,44.4 39.1,38.2 34.5,34 40.7,32.9 43.4,27.3 46.3,32.8 52.5,33.6 48.1,38 
					"/>
		<polygon class="st15" points="77.5,28.7 73.7,26.8 69.9,28.9 70.5,24.6 67.4,21.6 71.6,20.9 73.5,17 75.4,20.9 79.7,21.4 
			76.7,24.5 		"/>
	</g>
</g>
</svg>
