<?xml version="1.0" encoding="utf-8"?>
<!-- Generator: Adobe Illustrator 16.0.0, SVG Export Plug-In . SVG Version: 6.00 Build 0)  -->
<!DOCTYPE svg PUBLIC "-//W3C//DTD SVG 1.1//EN" "http://www.w3.org/Graphics/SVG/1.1/DTD/svg11.dtd">
<svg version="1.1" id="Layer_1" xmlns="http://www.w3.org/2000/svg" xmlns:xlink="http://www.w3.org/1999/xlink" x="0px" y="0px"
	 width="87px" height="87px" viewBox="-7.211 -7.254 87 87" enable-background="new -7.211 -7.254 87 87" xml:space="preserve">
<path id="Path_1635" fill="#ED1C24" d="M61.11,51.875h-19.1v-4.316c1.752,0.322,3.529,0.482,5.311,0.479
	c7.98,0,15.639-3.158,21.299-8.785l3.301-3.3c0.369-0.322,0.602-0.773,0.648-1.262c-0.007-0.506-0.205-0.99-0.554-1.355
	l-5.176-5.157V5.69c2.987-1.044,4.562-4.313,3.518-7.3s-4.313-4.563-7.3-3.518c-1.646,0.576-2.941,1.871-3.518,3.518H37.065
	l-5.061-5.08c-0.742-0.749-1.951-0.753-2.7-0.011l-0.011,0.011l-3.3,3.3c-8.334,8.355-11.027,20.804-6.896,31.857
	c0.429,1.13,0.926,2.232,1.49,3.301L8.174,52.338C3.323,53.789,0,58.254,0,63.318c0,1.057,0.855,1.91,1.91,1.91l0,0h68.756
	c1.056,0,1.91-0.854,1.91-1.91l0,0C72.569,56.994,67.436,51.871,61.11,51.875z M53.298,14.632l9.168-9.168l0.554,0.229v18.66
	L53.298,14.632z M64.929-1.602c1.055-0.015,1.921,0.829,1.937,1.884c0.014,1.055-0.83,1.921-1.885,1.936
	c-0.531,0.007-1.041-0.207-1.408-0.592c-0.361-0.342-0.562-0.82-0.554-1.318C63.018-0.747,63.874-1.602,64.929-1.602L64.929-1.602
	L64.929-1.602z M59.543,2.218c0.034,0.2,0.112,0.389,0.229,0.554l-9.168,9.168l-9.722-9.721L59.543,2.218z M26.1,2.391l32.7,32.7
	c0.743,0.748,1.951,0.754,2.7,0.012l0.011-0.012c0.748-0.742,0.753-1.951,0.011-2.699l-0.011-0.012L28.641-0.547v-0.115l1.91-1.91
	l4.278,4.3l0,0l28.648,28.649l0,0l4.394,4.315l-1.91,1.91c-6.629,6.615-16.275,9.205-25.326,6.8
	c-0.843-0.211-1.672-0.473-2.482-0.783c-5.813-2.178-10.669-6.337-13.713-11.746c-0.706-1.215-1.294-2.494-1.758-3.82
	c-1.116-2.914-1.687-6.008-1.681-9.129c-0.005-5.59,1.782-11.035,5.101-15.534H26.1z M22.911,35.491l0.229,0.267
	c0.307,0.42,0.611,0.821,0.937,1.221c0.145,0.197,0.305,0.383,0.478,0.555c0.5,0.572,1.013,1.146,1.547,1.699
	c3.016,3.043,6.65,5.4,10.657,6.914c0.478,0.172,0.954,0.346,1.433,0.479v5.252H12.923L22.911,35.491z M4.061,61.424
	c0.871-3.371,3.91-5.727,7.392-5.73H61.11c3.482,0.004,6.521,2.359,7.391,5.73H4.061z"/>
</svg>
