<svg height="512pt" viewBox="0 -26 512 512" width="512pt" xmlns="http://www.w3.org/2000/svg"><path d="m422.261719 0h-331.453125c-50.070313 0-90.808594 40.648438-90.808594 90.609375v338.859375c0 12.011719 7.28125 22.972656 18.558594 27.921875 3.980468 1.757813 8.203125 2.609375 12.390625 2.609375 7.511719 0 14.902343-2.738281 20.628906-7.949219 41.550781-37.589843 95.320313-58.289062 151.421875-58.289062h53.710938l165.609374.019531c49.449219 0 89.679688-40.320312 89.679688-89.882812v-214.359376c0-49.367187-40.261719-89.539062-89.738281-89.539062zm0 0" fill="#2999ff"/><path d="m512 89.539062v214.359376c0 49.5625-40.230469 89.882812-89.679688 89.882812l-160.609374-.019531v-393.761719h160.550781c49.476562 0 89.738281 40.171875 89.738281 89.539062zm0 0" fill="#3e7eff"/><path d="m132.464844 145.015625h48.4375c8.285156 0 15-6.71875 15-15 0-8.285156-6.714844-15-15-15h-48.4375c-21.050782 0-38.171875 17.121094-38.171875 38.167969v121.695312c0 8.28125 6.714843 15 15 15 8.28125 0 15-6.71875 15-15v-36.613281h56.609375c8.285156 0 15-6.714844 15-15s-6.714844-15-15-15h-56.609375v-55.082031c0-4.503906 3.664062-8.167969 8.171875-8.167969zm0 0" fill="#fff"/><path d="m261.710938 115.011719c-28.011719 0-50.8125 22.796875-50.8125 50.808593v109.058594c0 8.28125 6.722656 15 15 15 8.292968 0 15-6.71875 15-15v-37.429687h41.621093v37.429687c0 8.28125 6.710938 15 15 15 8.28125 0 15-6.71875 15-15v-109.058594c0-28.011718-22.800781-50.808593-50.808593-50.808593zm20.808593 92.4375h-41.621093v-41.628907c0-11.46875 9.339843-20.808593 20.8125-20.808593 11.46875 0 20.808593 9.339843 20.808593 20.808593zm0 0" fill="#fff"/><g fill="#f2e1df"><path d="m446.007812 259.878906h-11.878906v-94.058594c0-28.015624-22.792968-50.804687-50.808594-50.804687-28.011718 0-50.804687 22.789063-50.804687 50.804687v73.25c0 28.015626 22.792969 50.808594 50.804687 50.808594h62.6875c8.285157 0 15-6.71875 15-15 0-8.285156-6.714843-15-15-15zm-83.492187-20.808594v-73.25c0-11.472656 9.335937-20.804687 20.808594-20.804687 11.472656 0 20.804687 9.332031 20.804687 20.804687v94.058594h-20.804687c-11.472657 0-20.808594-9.332031-20.808594-20.808594zm0 0"/><path d="m312.519531 165.820312v109.058594c0 8.28125-6.71875 15-15 15-8.289062 0-15-6.71875-15-15v-37.429687h-20.808593v-30h20.808593v-41.628907c0-11.46875-9.339843-20.808593-20.808593-20.808593v-30c28.007812 0 50.808593 22.796875 50.808593 50.808593zm0 0"/></g></svg>