<svg id="Capa_1" enable-background="new 0 0 512 512" height="512" viewBox="0 0 512 512" width="512" xmlns="http://www.w3.org/2000/svg"><g><path d="m287.895 512h192.212v-136.795l-212.228-20.016z" fill="#e50058"/><path d="m267.879 291.403 20.016 83.802h192.212v-63.786z" fill="#ff9f22"/><path d="m267.879 247.634 20.016 63.785h192.212v-43.769z" fill="#e50058"/><path d="m480.107 227.618-212.228-20.016 20.016 60.048h192.212z" fill="#b40042"/><path d="m512 131.94h-224.105l-20.016 47.839 20.016 47.839h224.105z" fill="#e50058"/><path d="m256 512h31.895v-284.382l-51.911-20.016z" fill="#ffd422"/><path d="m204.094 207.602 20.016 304.398h31.89v-284.382z" fill="#fff47d"/><path d="m256 131.94-20.016 47.839 20.016 47.839h31.895v-95.678z" fill="#ff9f22"/><path d="m256 131.94h-31.89l-20.016 47.839 20.016 47.839h31.89z" fill="#ffd422"/><path d="m31.893 512h192.217v-136.795l-96.109-20.016-96.108 20.016z" fill="#ff415b"/><path d="m31.893 311.419v63.786h192.217v-63.786l-96.109-20.016z" fill="#ffd422"/><path d="m31.893 267.65v43.769h192.217v-43.769l-96.109-30.024z" fill="#ff415b"/><path d="m224.11 227.618-192.217-20.016v60.048h192.217z" fill="#e50058"/><path d="m0 131.94h224.11v95.678h-224.11z" fill="#ff415b"/><path d="m356.994 0c-43.257 0-81.054 23.805-100.994 58.999l-10.008 72.941 10.008 15h100.994c40.511 0 73.47-32.958 73.47-73.47-.001-40.511-32.959-73.47-73.47-73.47zm0 116.94h-85.994v-.947c0-47.417 38.577-85.993 85.994-85.993 23.969 0 43.47 19.5 43.47 43.47-.001 23.97-19.501 43.47-43.47 43.47z" fill="#ffd422"/><path d="m155.006 0c-40.511 0-73.47 32.958-73.47 73.47s32.958 73.47 73.47 73.47h100.994v-87.941c-19.94-35.194-57.737-58.999-100.994-58.999zm0 116.94c-23.969 0-43.47-19.5-43.47-43.47 0-23.969 19.5-43.47 43.47-43.47 47.417 0 85.994 38.576 85.994 85.993v.947z" fill="#fff47d"/></g></svg>