<?xml version="1.0" encoding="utf-8"?>
<!-- Generator: Adobe Illustrator 22.1.0, SVG Export Plug-In . SVG Version: 6.00 Build 0)  -->
<svg version="1.1" id="Layer_1" xmlns="http://www.w3.org/2000/svg" xmlns:xlink="http://www.w3.org/1999/xlink" x="0px" y="0px"
	 viewBox="0 0 150 150" style="enable-background:new 0 0 150 150;" xml:space="preserve">
<style type="text/css">
	.st0{fill:#312E51;}
	.st1{fill:#3B3B5F;}
	.st2{fill:#201C3F;}
	.st3{fill:#FF5D43;}
	.st4{fill:#FF9A2B;}
	.st5{fill:#FF7500;}
	.st6{fill:#FFFFFF;}
	.st7{fill:#6B0E20;}
	.st8{fill:#FFF2BD;}
	.st9{fill:#EEEEEE;}
	.st10{fill:#9CDFDC;}
	.st11{fill:url(#SVGID_1_);}
	.st12{fill:url(#SVGID_2_);}
	.st13{fill:#7ABFBC;}
	.st14{fill:url(#SVGID_3_);}
	.st15{fill:url(#SVGID_4_);}
	.st16{fill:url(#SVGID_5_);}
	.st17{fill:#E20613;}
	.st18{fill:#0D5F7F;}
	.st19{fill:#353551;}
	.st20{opacity:0.5;fill:#FFFFFF;}
	.st21{fill:#606060;}
</style>
<g>
	<ellipse transform="matrix(0.2298 -0.9732 0.9732 0.2298 32.5799 154.02)" class="st0" cx="113.6" cy="56.4" rx="9.7" ry="9.7"/>
	<ellipse transform="matrix(0.1602 -0.9871 0.9871 0.1602 39.7599 158.8543)" class="st1" cx="113.2" cy="56.1" rx="8.5" ry="8.5"/>
	<polygon class="st0" points="57.9,37.2 40.4,37.2 40.4,40.1 57.9,40.8 	"/>
	<path class="st0" d="M47.4,37.5c0,0,0.1-0.8-1.7-1.3c-1.8-0.5-18-1.5-16.7,2.1c1.4,3.6,16.7,3.7,17.6,2.7
		C47.6,39.9,47.4,37.5,47.4,37.5z"/>
	<path class="st1" d="M46.3,37.6c0,0,0.1-0.6-1.4-0.9c-1.5-0.3-14.7-1.2-13.5,1.2c1.1,2.4,13.6,2.6,14.4,1.9
		C46.5,39.2,46.3,37.6,46.3,37.6z"/>
	<polygon class="st0" points="38.6,48.2 20.3,48.2 20.3,54.6 38.3,54.6 	"/>
	<path class="st0" d="M68,44c-1.5-1.4-31.8-2-33.7-0.6c-1.9,1.4-0.1,22.5-0.1,22.5h34.5C68.7,65.9,69.5,45.4,68,44z"/>
	<polygon class="st0" points="27.1,47.4 27.4,55.2 22.4,55.3 22.4,47.4 	"/>
	<polygon class="st0" points="23.7,47.8 18.6,44.2 15.8,44.2 15.8,57.8 18,57.6 23.7,55.2 	"/>
	<ellipse class="st1" cx="15.8" cy="51" rx="2.3" ry="6.8"/>
	<ellipse class="st0" cx="15.8" cy="51" rx="1.6" ry="4.7"/>
	<ellipse class="st2" cx="16.1" cy="51" rx="0.5" ry="1.5"/>
	<polygon class="st0" points="54.4,39.7 54.9,43.1 49.7,43.1 50.3,39.5 	"/>
	<path class="st1" d="M33.4,48.8l-5.7,0l0.3,5.1l5.4-0.2C33.4,53.7,34.1,50.9,33.4,48.8z"/>
	<polygon class="st1" points="26.4,47.8 23.4,47.9 24,54.8 26.7,54.8 	"/>
	<path class="st1" d="M18.2,44.6c0,0,1,3.2,1.2,5.8c0.3,2.7-0.6,4.9-0.6,4.9s3.6,0.4,3.9-2.7c0.4-3,0-4-1.2-5.3
		C20.7,46.5,18.2,44.6,18.2,44.6z"/>
	<path class="st1" d="M56.6,37.6h-8.3c0,0,0.1,0.9,0,1.3c-0.1,0.4-0.4,0.8-0.4,0.8l8.8,0.1V37.6z"/>
	<path class="st0" d="M60,35.2c0,0-3.1,0.5-3.1,3.8c0.1,3.3,3.9,3.8,3.9,3.8L60,35.2z"/>
	<polygon class="st1" points="37.4,46.2 58.3,46.7 58.3,63.2 36.8,63.2 	"/>
	<polygon class="st1" points="59.9,47 60.8,56.8 67.3,56.8 67,46.7 	"/>
	<polygon class="st0" points="39.8,48.5 56.1,48.5 56.6,56 40.1,56 	"/>
	<path class="st1" d="M59.4,36.1l0.5,5.5c0,0-2.3-1.2-2.3-2.8C57.5,37.2,59.4,36.1,59.4,36.1z"/>
	<circle class="st3" cx="40.1" cy="45" r="0.5"/>
	<path class="st4" d="M43.2,45c0,0.3-0.2,0.5-0.5,0.5c-0.3,0-0.5-0.2-0.5-0.5c0-0.3,0.2-0.5,0.5-0.5C43,44.5,43.2,44.7,43.2,45z"/>
	<circle class="st5" cx="45.3" cy="45" r="0.5"/>
	<circle class="st6" cx="48" cy="45" r="0.5"/>
	<path class="st7" d="M113.6,41.3c-8.4,0-15.1,6.8-15.1,15.1c0,8.4,6.8,15.1,15.1,15.1s15.1-6.8,15.1-15.1
		C128.7,48.1,122,41.3,113.6,41.3z M119.4,48.8c1.8-1,4.1-0.4,5.1,1.4c1,1.8,0.4,4.1-1.4,5.1c-1.8,1-4.1,0.4-5.1-1.4
		C117,52.1,117.6,49.8,119.4,48.8z M107.8,64.1c-1.8,1-4.1,0.4-5.1-1.4c-1-1.8-0.4-4.1,1.4-5.1c1.8-1,4.1-0.4,5.1,1.4
		C110.2,60.8,109.6,63,107.8,64.1z M109.2,53.9c-1,1.8-3.3,2.4-5.1,1.4c-1.8-1-2.4-3.3-1.4-5.1c1-1.8,3.3-2.4,5.1-1.4
		C109.6,49.8,110.2,52.1,109.2,53.9z M113.6,69c-2.1,0-3.7-1.7-3.7-3.7c0-2.1,1.7-3.7,3.7-3.7s3.7,1.7,3.7,3.7
		C117.3,67.3,115.7,69,113.6,69z M113.6,51.3c-2.1,0-3.7-1.7-3.7-3.7s1.7-3.7,3.7-3.7s3.7,1.7,3.7,3.7S115.7,51.3,113.6,51.3z
		 M124.5,62.7c-1,1.8-3.3,2.4-5.1,1.4c-1.8-1-2.4-3.3-1.4-5.1c1-1.8,3.3-2.4,5.1-1.4C124.9,58.6,125.5,60.9,124.5,62.7z"/>
	<circle class="st8" cx="113.5" cy="56.4" r="2.5"/>
	<path class="st0" d="M114.2,56.4c0,0.4-0.3,0.7-0.7,0.7c-0.4,0-0.7-0.3-0.7-0.7c0-0.4,0.3-0.7,0.7-0.7
		C113.9,55.7,114.2,56,114.2,56.4z"/>
	<polygon class="st0" points="47.8,100.2 39,131.9 40.7,131.9 49.5,101.2 	"/>
	<g>
		<polygon class="st2" points="95.2,131.9 94.3,40.4 95.2,40.4 96.7,131.9 		"/>
		<polygon class="st6" points="91.7,30.6 104.1,37.3 99.8,43.8 87.2,37.2 		"/>
		<polygon class="st6" points="104.1,37.3 114.9,37.3 104.5,52 99.8,43.8 100.5,39.2 		"/>
		<path class="st6" d="M91.3,31.2c0,0-2.7-1.2-4.1,0.9c-1.5,2.3,0.5,5,0.5,5L91.3,31.2z"/>
		<ellipse transform="matrix(0.2298 -0.9732 0.9732 0.2298 33.1944 123.9127)" class="st6" cx="94.9" cy="41" rx="1.6" ry="1.6"/>
		<polygon class="st9" points="104.1,37.3 99.8,43.8 100.3,44.6 105.6,37.3 		"/>
		<path class="st9" d="M91.3,31.2l-3.8,5.5l-0.3-0.5l3.1-5.3C90.3,31,90.9,31,91.3,31.2z"/>
		<polygon class="st9" points="92.2,33.3 89.5,37.2 89.9,37.5 92.6,33.4 		"/>
		<polygon class="st9" points="90.5,37.6 92.9,33.6 93.5,33.9 91,37.9 		"/>
		<polygon class="st9" points="91.6,38.2 93.8,34 94.3,34.3 92.1,38.5 		"/>
		<polygon class="st9" points="92.6,38.7 94.9,34.5 95.5,34.8 93.2,39 		"/>
		<polygon class="st9" points="93.4,40.4 96.2,41.9 96.1,42 93.3,40.7 		"/>
		<path class="st2" d="M90,132.5h13.6c0,0-3.6-2.4-7.6-2.4C92.1,130.1,90,132.5,90,132.5z"/>
	</g>
	<g>
		<polygon class="st2" points="73.9,113.9 74.8,22.4 73.9,22.4 72.4,113.9 		"/>
		<polygon class="st6" points="77.4,12.5 65,19.3 69.3,25.7 81.9,19.1 		"/>
		<polygon class="st6" points="65,19.3 54.2,19.3 64.6,34 69.3,25.7 68.6,21.2 		"/>
		<path class="st6" d="M77.8,13.2c0,0,2.7-1.2,4.1,0.9c1.5,2.3-0.5,5-0.5,5L77.8,13.2z"/>
		<ellipse transform="matrix(0.9732 -0.2298 0.2298 0.9732 -3.2922 17.669)" class="st6" cx="74.2" cy="23" rx="1.6" ry="1.6"/>
		<polygon class="st9" points="65,19.3 69.3,25.7 68.8,26.6 63.5,19.3 		"/>
		<path class="st9" d="M77.8,13.2l3.8,5.5l0.3-0.5l-3.1-5.3C78.8,12.9,78.2,13,77.8,13.2z"/>
		<polygon class="st9" points="76.9,15.2 79.6,19.1 79.2,19.5 76.5,15.4 		"/>
		<polygon class="st9" points="78.7,19.6 76.2,15.5 75.6,15.8 78.2,19.9 		"/>
		<polygon class="st9" points="77.5,20.2 75.3,16 74.8,16.2 77,20.5 		"/>
		<polygon class="st9" points="76.5,20.7 74.2,16.5 73.6,16.8 75.9,21 		"/>
		<polygon class="st9" points="75.7,22.4 72.9,23.9 73,24 75.8,22.7 		"/>
		<path class="st2" d="M79.1,114.5H65.5c0,0,3.6-2.4,7.6-2.4C77,112.1,79.1,114.5,79.1,114.5z"/>
	</g>
	<g>
		<path class="st7" d="M111.3,65.1l34-0.5l2.2,43.3l-37.3-0.4L111.3,65.1z M118,101.8h24.5L142,70.9l-23.9,0.7L118,101.8z"/>
		<g>
			<rect x="118.3" y="66.3" class="st10" width="1.5" height="3.6"/>
			<rect x="121.7" y="66.3" class="st10" width="1.5" height="3.6"/>
			<rect x="125.2" y="66.3" class="st10" width="1.5" height="3.6"/>
			<rect x="128.6" y="66.3" class="st10" width="1.5" height="3.6"/>
			<rect x="132" y="66.3" class="st10" width="1.5" height="3.6"/>
			<rect x="135.4" y="66.3" class="st10" width="1.5" height="3.6"/>
			<rect x="138.8" y="66.3" class="st10" width="1.5" height="3.6"/>
			<rect x="142.2" y="66.3" class="st10" width="1.5" height="3.6"/>
		</g>
		<g>
			<rect x="117.9" y="102.8" class="st10" width="1.5" height="3.6"/>
			<rect x="121.3" y="102.8" class="st10" width="1.5" height="3.6"/>
			<rect x="124.7" y="102.8" class="st10" width="1.5" height="3.6"/>
			<rect x="128.1" y="102.8" class="st10" width="1.5" height="3.6"/>
			<rect x="131.5" y="102.8" class="st10" width="1.5" height="3.6"/>
			<rect x="134.9" y="102.8" class="st10" width="1.5" height="3.6"/>
			<rect x="138.4" y="102.8" class="st10" width="1.5" height="3.6"/>
			<rect x="141.8" y="102.8" class="st10" width="1.5" height="3.6"/>
		</g>
	</g>
	<g>
		<path class="st7" d="M3.6,75.6l31-0.5l2.2,43.3l-34.3-0.4L3.6,75.6z M7.3,112.3h24.5l-0.5-30.9L7.4,82.1L7.3,112.3z"/>
		<g>
			<rect x="7.6" y="76.8" class="st10" width="1.5" height="3.6"/>
			<rect x="11" y="76.8" class="st10" width="1.5" height="3.6"/>
			<rect x="14.4" y="76.8" class="st10" width="1.5" height="3.6"/>
			<rect x="17.9" y="76.8" class="st10" width="1.5" height="3.6"/>
			<rect x="21.3" y="76.8" class="st10" width="1.5" height="3.6"/>
			<rect x="24.7" y="76.8" class="st10" width="1.5" height="3.6"/>
			<rect x="28.1" y="76.8" class="st10" width="1.5" height="3.6"/>
			<rect x="31.5" y="76.8" class="st10" width="1.5" height="3.6"/>
		</g>
		<g>
			<rect x="7.2" y="113.3" class="st10" width="1.5" height="3.6"/>
			<rect x="10.6" y="113.3" class="st10" width="1.5" height="3.6"/>
			<rect x="14" y="113.3" class="st10" width="1.5" height="3.6"/>
			<rect x="17.4" y="113.3" class="st10" width="1.5" height="3.6"/>
			<rect x="20.8" y="113.3" class="st10" width="1.5" height="3.6"/>
			<rect x="24.2" y="113.3" class="st10" width="1.5" height="3.6"/>
			<rect x="27.6" y="113.3" class="st10" width="1.5" height="3.6"/>
			<rect x="31.1" y="113.3" class="st10" width="1.5" height="3.6"/>
		</g>
	</g>
	<linearGradient id="SVGID_1_" gradientUnits="userSpaceOnUse" x1="61.1547" y1="22.5733" x2="46.2136" y2="34.078">
		<stop  offset="0" style="stop-color:#808285"/>
		<stop  offset="0.4611" style="stop-color:#3E3F41"/>
		<stop  offset="0.8207" style="stop-color:#111212"/>
		<stop  offset="1" style="stop-color:#000000"/>
	</linearGradient>
	<polygon class="st11" points="54.2,19.3 25.1,17.3 57.9,58.1 64.6,34 	"/>
	<linearGradient id="SVGID_2_" gradientUnits="userSpaceOnUse" x1="108" y1="43.5334" x2="122.6423" y2="53.8428">
		<stop  offset="0" style="stop-color:#808285"/>
		<stop  offset="0.4611" style="stop-color:#3E3F41"/>
		<stop  offset="0.8207" style="stop-color:#111212"/>
		<stop  offset="1" style="stop-color:#000000"/>
	</linearGradient>
	<polygon class="st12" points="104.5,52 111.8,72.7 136.6,37.2 114.9,37.3 	"/>
	<path class="st2" d="M114.5,120.9H32.6c-1.4,0-2.5-1.1-2.5-2.5V63.2c0-1.4,1.1-2.5,2.5-2.5h81.9c1.4,0,2.5,1.1,2.5,2.5v55.1
		C117,119.8,115.8,120.9,114.5,120.9z"/>
	<rect x="32.2" y="63.5" class="st9" width="82.6" height="54.6"/>
	<rect x="36.2" y="68.5" class="st6" width="74.6" height="49.6"/>
	<rect x="38.4" y="70.6" class="st9" width="69.8" height="37.3"/>
	<polygon class="st9" points="71.3,84.9 71.3,92 74.7,88.4 	"/>
	<g>
		<path class="st13" d="M119.2,95.2c0,0.1-0.1,0.2-0.2,0.2c-0.1,0-0.2-0.1-0.2-0.2c0-0.1,0.1-0.2,0.2-0.2
			C119.2,95,119.2,95.1,119.2,95.2z"/>
		<path class="st13" d="M119,98.2c0,0.1-0.1,0.2-0.2,0.2c-0.1,0-0.2-0.1-0.2-0.2c0-0.1,0.1-0.2,0.2-0.2C118.8,97.9,119,98,119,98.2z
			"/>
		<path class="st13" d="M122.6,99.8c0,0.1-0.1,0.2-0.2,0.2c-0.1,0-0.2-0.1-0.2-0.2c0-0.1,0.1-0.2,0.2-0.2
			C122.6,99.6,122.6,99.7,122.6,99.8z"/>
		<path class="st13" d="M120.6,101.4c0,0.2-0.2,0.3-0.4,0.3c-0.2,0-0.3-0.2-0.3-0.4c0-0.2,0.2-0.3,0.4-0.3
			C120.5,101,120.6,101.2,120.6,101.4z"/>
		<path class="st13" d="M121.8,104c0,0.1-0.1,0.1-0.1,0.1c-0.1,0-0.1-0.1-0.1-0.1c0-0.1,0.1-0.1,0.1-0.1
			C121.8,103.8,121.8,103.9,121.8,104z"/>
		<path class="st13" d="M125.5,96.7c0,0.1-0.1,0.1-0.1,0.1c-0.1,0-0.1-0.1-0.1-0.1c0-0.1,0.1-0.1,0.1-0.1
			C125.5,96.6,125.5,96.6,125.5,96.7z"/>
		<path class="st13" d="M121.8,96.1C121.8,96.2,121.8,96.2,121.8,96.1c-0.1,0.1-0.2,0.1-0.2,0C121.7,96.1,121.7,96,121.8,96.1
			C121.8,96,121.8,96.1,121.8,96.1z"/>
		<path class="st13" d="M123.9,94.3C123.9,94.3,123.8,94.3,123.9,94.3c-0.1,0.1-0.2,0.1-0.2,0C123.7,94.2,123.7,94.2,123.9,94.3
			C123.8,94.2,123.9,94.2,123.9,94.3z"/>
		<path class="st13" d="M116.2,97.8C116.2,97.9,116.2,97.9,116.2,97.8c-0.1,0.1-0.2,0.1-0.2,0C116,97.8,116.1,97.7,116.2,97.8
			C116.2,97.7,116.2,97.8,116.2,97.8z"/>
		<path class="st13" d="M124.4,101.4c0,0.1-0.1,0.2-0.2,0.2c-0.1,0-0.2-0.1-0.2-0.2c0-0.1,0.1-0.2,0.2-0.2
			C124.3,101.2,124.4,101.3,124.4,101.4z"/>
		<path class="st13" d="M124,97.7c0,0.2-0.1,0.3-0.3,0.3c-0.2,0-0.3-0.1-0.3-0.3c0-0.2,0.1-0.3,0.3-0.3
			C123.9,97.4,124,97.5,124,97.7z"/>
	</g>
	<polygon class="st6" points="72.5,24.1 69.6,25.6 69.3,23.5 70.8,22.7 	"/>
	<linearGradient id="SVGID_3_" gradientUnits="userSpaceOnUse" x1="129.582" y1="30.7535" x2="129.5446" y2="34.937">
		<stop  offset="0" style="stop-color:#808285"/>
		<stop  offset="0.4611" style="stop-color:#3E3F41"/>
		<stop  offset="0.8207" style="stop-color:#111212"/>
		<stop  offset="1" style="stop-color:#000000"/>
	</linearGradient>
	<path class="st14" d="M121.6,35.1l15.7,0.1c0,0,0.4-1.9-0.5-2.6c-1-0.6-2.1,0.7-2.1,0.7s0.5-2-1-2.4c-1.5-0.5-3.5,1.9-3.5,1.9
		s0.8-1.9-0.9-1.9c-1.7-0.1-3.5,2.3-3.5,2.3s1.1-1.6-0.9-1.7C122.8,31.4,121.6,35.1,121.6,35.1z"/>
	<linearGradient id="SVGID_4_" gradientUnits="userSpaceOnUse" x1="80.9365" y1="10.617" x2="80.9365" y2="16.2199">
		<stop  offset="0" style="stop-color:#808285"/>
		<stop  offset="0.4611" style="stop-color:#3E3F41"/>
		<stop  offset="0.8207" style="stop-color:#111212"/>
		<stop  offset="1" style="stop-color:#000000"/>
	</linearGradient>
	<path class="st15" d="M90.9,17c0,0,0.7-2.9-0.7-3.8c-1.4-0.9-3.2,1-3.2,1s0.7-2.9-1.5-3.6c-2.2-0.7-5.2,2.8-5.2,2.8
		s1.2-2.8-1.3-2.9c-2.5-0.1-8.1,6.5-8.1,6.5H90.9z"/>
	<linearGradient id="SVGID_5_" gradientUnits="userSpaceOnUse" x1="22.7783" y1="24.5971" x2="22.8904" y2="28.4069">
		<stop  offset="0" style="stop-color:#808285"/>
		<stop  offset="0.4611" style="stop-color:#3E3F41"/>
		<stop  offset="0.8207" style="stop-color:#111212"/>
		<stop  offset="1" style="stop-color:#000000"/>
	</linearGradient>
	<path class="st16" d="M16.2,28.8l13.3-0.3c0,0,0.2-1.4-0.5-1.7c-0.7-0.3-1.6,0.4-1.6,0.4s0.9-1.6-1.1-1.7c-2-0.2-2.7,1.5-2.7,1.5
		s1-2.3-2.1-2.2c-2.8,0.1-3.2,2.6-3.2,2.6s0-0.3-0.9-0.3C16.6,27.1,16.2,28.8,16.2,28.8z"/>
	<path class="st17" d="M70.6,103.2c0,0,1.5,0.9,0.8,2.6s-2.9,0.6-2.9,0.6L70.6,103.2z"/>
	<polygon class="st18" points="59.7,138.8 59.7,102.1 60.8,102.1 61.3,139 	"/>
	<circle class="st2" cx="60.4" cy="103.8" r="1.7"/>
	<polygon class="st2" points="49.1,92 70.7,103 68.6,106.6 46.2,98.6 	"/>
	<path class="st19" d="M50.8,93.4l19.2,9.5c0,0-0.7,2.8-2.2,2.6c-1.6-0.2-19.2-7.2-19.2-7.2L50.8,93.4z"/>
	<polygon class="st18" points="49.1,92 44.3,89.8 41.4,96.9 46.2,98.6 	"/>
	<polygon class="st17" points="49.1,91.7 45.8,99 47.2,99.4 50.5,92.3 	"/>
	<polygon class="st17" points="68,101.6 66,105.7 66.6,105.9 68.7,101.9 	"/>
	<path class="st2" d="M50.4,139.6h21.9c0,0-4.3-2.6-11.9-2.9C52.7,136.4,50.4,139.6,50.4,139.6z"/>
	<path class="st20" d="M44.5,90.8l-2.6,5.6c0,0,2.5,1.4,3.6,0.8c1.1-0.6,2.6-4.9,2.6-4.9L44.5,90.8z"/>
	<path class="st19" d="M51.7,139.2h18c0,0-4.7-1.9-9.9-1.9S51.7,139.2,51.7,139.2z"/>
	<g>
		<polygon class="st21" points="84.5,137.9 85,111.5 121.7,111.4 121.3,137.9 		"/>
		<polygon class="st6" points="88.4,111.4 85,117.4 87.7,117.5 91,111.4 		"/>
		<polygon class="st6" points="93.5,111.4 90.1,117.4 92.8,117.5 96.1,111.4 		"/>
		<polygon class="st6" points="98.7,111.4 95.2,117.4 97.9,117.5 101.2,111.4 		"/>
		<polygon class="st6" points="103.8,111.4 100.3,117.4 103,117.5 106.3,111.4 		"/>
		<polygon class="st6" points="108.9,111.4 105.5,117.4 108.2,117.5 111.5,111.4 		"/>
		<polygon class="st6" points="114,111.4 110.6,117.4 113.3,117.5 116.6,111.4 		"/>
		<polygon class="st6" points="119.2,111.4 115.7,117.4 118.4,117.5 121.7,111.4 		"/>
		<g>
			<polygon class="st21" points="84.1,105.4 118.8,95.9 120.7,101.6 85,111.5 			"/>
			<g>
				<polygon class="st6" points="86.7,104.7 85,111.5 87.6,110.8 89.2,104.1 				"/>
				<polygon class="st6" points="91.7,103.4 90,110.1 92.6,109.5 94.1,102.7 				"/>
				<polygon class="st6" points="96.6,102 94.9,108.8 97.5,108.1 99.1,101.4 				"/>
				<polygon class="st6" points="101.6,100.7 99.8,107.4 102.4,106.8 104,100 				"/>
				<polygon class="st6" points="106.5,99.3 104.8,106.1 107.4,105.4 108.9,98.6 				"/>
				<polygon class="st6" points="111.4,98 109.7,104.7 112.3,104 113.9,97.3 				"/>
				<polygon class="st6" points="116.4,96.6 114.7,103.4 117.3,102.7 118.8,95.9 				"/>
			</g>
		</g>
		<path class="st0" d="M85.9,111.6c0,0.5-0.4,0.9-0.9,0.9s-0.9-0.4-0.9-0.9s0.4-0.9,0.9-0.9S85.9,111.1,85.9,111.6z"/>
	</g>
	<path class="st6" d="M87.4,136.1l0.1-15.5l31.7-0.4l-0.2,15.5l-0.1,0L87.4,136.1z M87.7,120.8l-0.1,15l31.1-0.4l0.2-15L87.7,120.8z
		"/>
	<rect x="87.5" y="123.3" class="st6" width="31.4" height="0.2"/>
	
		<rect x="103.3" y="120.6" transform="matrix(0.9999 -1.618337e-02 1.618337e-02 0.9999 -2.0625 1.6911)" class="st6" width="0.2" height="15.4"/>
</g>
</svg>
