<?xml version="1.0" encoding="utf-8"?>
<!-- Generator: Adobe Illustrator 22.1.0, SVG Export Plug-In . SVG Version: 6.00 Build 0)  -->
<svg version="1.1" id="Layer_1" xmlns="http://www.w3.org/2000/svg" xmlns:xlink="http://www.w3.org/1999/xlink" x="0px" y="0px"
	 viewBox="0 0 150 150" style="enable-background:new 0 0 150 150;" xml:space="preserve">
<style type="text/css">
	.st0{fill:#E20613;}
	.st1{fill:#0091D8;}
</style>
<g>
	<path class="st0" d="M6.4,54.8c-1.3,0-2.5,0-3.8-0.1c0-10,0-19.9-0.1-29.9c0.9-2.2,2.5-3.1,4.8-3c0.7,0,1.4,0,2-0.1
		c0.6,0,1.3,0,1.9,0c1.9,0,3.8,0,5.7,0c0.6,0,1.3,0,1.9,0c1.9,0,3.8,0,5.7,0c0.6,0,1.3,0,1.9,0c1.9,0,3.8,0,5.7,0c0.6,0,1.3,0,1.9,0
		c0.4,0,0.7,0,1.1,0.1c0,2.8,0,5.5,0.1,8.3l0,0c-7.3,0-14.6,0-22,0c-2.5,0-2.5,0-2.5,2.5c0,7.4-0.1,14.8-0.1,22.1
		c-0.8,0-1.5,0-2.3,0.1C7.7,54.8,7.1,54.8,6.4,54.8z"/>
	<path class="st0" d="M146.6,23.3c0.3,0.5,0.5,1,0.8,1.6c0,3.5,0.1,7,0.1,10.5c0,6.5-0.1,12.9-0.1,19.4c-0.9,0-1.8,0-2.7,0.1
		c-0.4,0-0.8,0-1.1,0c-0.3,0-0.5,0-0.8,0c-1.1,0-2.3,0-3.4-0.1c0-1.2-0.1-2.4-0.1-3.6c0-6.4,0-12.8,0-19.3c0-1.4-0.3-1.8-1.7-1.8
		c-7.1,0.1-14.2,0-21.3,0c-0.7,0-1.6,0.3-1.5-1c0.1-2.4,0.1-4.9,0.2-7.3c0.2,0,0.5,0,0.7-0.1c0.6,0,1.3,0,1.9,0c1.9,0,3.8,0,5.7,0
		c0.6,0,1.3,0,1.9,0c1.9,0,3.8,0,5.7,0c0.6,0,1.3,0,1.9,0c1.9,0,3.8,0,5.7,0c0.6,0,1.3,0,1.9,0c1.8,0.2,3.5,0.3,5.3,0.5
		C145.8,22.6,146.2,23,146.6,23.3z"/>
	<path class="st0" d="M35.1,128.2c-0.6,0-1.2,0-1.8,0c-0.6,0-1.3,0-1.9,0c-1.9,0-3.8,0-5.7,0c-0.6,0-1.3,0-1.9,0c-1.9,0-3.8,0-5.7,0
		c-0.6,0-1.3,0-1.9,0c-1.9,0-3.8,0-5.7,0c-0.6,0-1.3,0-1.9,0c-1.5-0.3-3-0.5-4.5-0.8c-0.4-0.4-0.8-0.8-1.2-1.2
		c-0.2-0.4-0.3-0.7-0.5-1.1c0-9.6,0-19.1-0.1-28.7c0-1,0.4-1.3,1.3-1.2c1.7,0.1,3.4,0.1,5.1,0c1.5-0.1,1.9,0.3,1.9,1.8
		c-0.1,6.9,0,13.7-0.1,20.6c0,1.7,0.3,2.3,2.1,2.2c6.9-0.1,13.9-0.1,20.8,0c0.6,0,1.6,0.5,1.6,0.8C35.3,123.2,35.2,125.7,35.1,128.2
		z"/>
	<path class="st0" d="M122.3,128.2c-1.9,0-3.8,0-5.7,0c-0.6,0-1.2,0-1.8-0.1c0,0,0,0,0,0c-0.1-2.3-0.1-4.5-0.2-6.8
		c-0.1-1.4,0.4-1.6,1.7-1.6c6.9,0.1,13.8,0,20.7,0c0.6,0,1.3-0.2,1.9-0.3l0,0c0.1-0.7,0.2-1.3,0.2-2c0-6.9,0-13.7,0-20.6
		c0-1.3,0.4-1.8,1.7-1.7c1.8,0.1,3.5,0.1,5.3,0c0.9,0,1.4,0.1,1.4,1.2c-0.1,9.6-0.1,19.2-0.1,28.7c-0.1,0.1-0.1,0.2-0.1,0.3
		c-0.8,0.8-1.5,1.5-2.3,2.3c-1.9,0.1-3.8,0.3-5.7,0.4c-0.6,0-1.3,0-1.9,0c-1.9,0-3.8,0-5.7,0c-0.6,0-1.3,0-1.9,0c-1.9,0-3.8,0-5.7,0
		C123.6,128.2,123,128.2,122.3,128.2z"/>
	<path class="st1" d="M129.5,43.8c0,12.6,0,25.1,0,37.7c0,0.9,0,1.9,0.1,2.8c0,6.7-0.1,13.5,0,20.2c0,1.4-0.2,1.9-1.8,1.9
		c-35.1-0.1-70.3-0.1-105.4,0c-1.7,0-2.1-0.4-2.1-2.1c0.1-19.6,0-39.2,0-58.9c0-1.1-0.1-1.8,1.5-1.8c35.7,0.1,71.4,0,107.1,0
		C129.1,43.7,129.3,43.8,129.5,43.8z"/>
</g>
</svg>
