<?xml version="1.0" encoding="utf-8"?>
<!-- Generator: Adobe Illustrator 16.0.0, SVG Export Plug-In . SVG Version: 6.00 Build 0)  -->
<!DOCTYPE svg PUBLIC "-//W3C//DTD SVG 1.1//EN" "http://www.w3.org/Graphics/SVG/1.1/DTD/svg11.dtd" [
	<!ENTITY ns_flows "http://ns.adobe.com/Flows/1.0/">
	<!ENTITY ns_extend "http://ns.adobe.com/Extensibility/1.0/">
	<!ENTITY ns_ai "http://ns.adobe.com/AdobeIllustrator/10.0/">
	<!ENTITY ns_graphs "http://ns.adobe.com/Graphs/1.0/">
]>
<svg version="1.1" id="Layer_1" xmlns:x="&ns_extend;" xmlns:i="&ns_ai;" xmlns:graph="&ns_graphs;"
	 xmlns="http://www.w3.org/2000/svg" xmlns:xlink="http://www.w3.org/1999/xlink" xmlns:a="http://ns.adobe.com/AdobeSVGViewerExtensions/3.0/"
	 x="0px" y="0px" width="87px" height="87px" viewBox="-7.003 -7.004 87 87" enable-background="new -7.003 -7.004 87 87"
	 xml:space="preserve">
<g id="Group_748" transform="translate(-104.75 -204.59)">
	<path id="Path_1464" fill="#ED1C24" stroke="#FFFFFF" stroke-width="0.5" d="M173.782,233.477l-5.088-0.864
		c-0.526-1.705-1.211-3.357-2.044-4.936l3-4.195c1.276-1.782,1.071-4.226-0.483-5.77l-4.514-4.513
		c-0.836-0.845-1.977-1.32-3.166-1.318c-0.93-0.003-1.836,0.289-2.589,0.833l-4.21,3c-1.633-0.867-3.348-1.571-5.118-2.105
		l-0.848-5.027c-0.359-2.162-2.231-3.745-4.423-3.741h-6.375c-2.191-0.004-4.063,1.58-4.422,3.741l-0.878,5.149
		c-1.704,0.531-3.353,1.224-4.925,2.069l-4.164-3c-1.783-1.272-4.225-1.067-5.77,0.485l-4.528,4.513
		c-1.548,1.547-1.753,3.986-0.484,5.77l3.029,4.255c-0.828,1.583-1.502,3.241-2.014,4.952l-5.027,0.847
		c-2.165,0.359-3.749,2.234-3.742,4.428v6.375c-0.004,2.191,1.58,4.063,3.741,4.422l5.149,0.88c0.533,1.702,1.228,3.351,2.075,4.922
		l-2.984,4.148c-1.277,1.781-1.072,4.227,0.484,5.77l4.513,4.514c1.539,1.553,3.978,1.758,5.755,0.484l4.255-3.029
		c1.533,0.8,3.134,1.459,4.785,1.969l0.848,5.088c0.359,2.162,2.23,3.745,4.422,3.741h6.391c2.191,0.005,4.063-1.579,4.422-3.741
		l0.863-5.088c1.705-0.526,3.358-1.211,4.938-2.044l4.194,3c1.782,1.273,4.225,1.069,5.771-0.484l4.512-4.513
		c1.549-1.547,1.754-3.986,0.484-5.77l-3-4.211c0.835-1.577,1.52-3.23,2.045-4.936l5.088-0.848c2.162-0.359,3.745-2.23,3.74-4.422
		V237.9c0.029-2.19-1.549-4.071-3.711-4.422L173.782,233.477z M173.434,244.277c0.002,0.195-0.14,0.363-0.333,0.393l-6.36,1.061
		c-0.795,0.131-1.437,0.72-1.637,1.5c-0.572,2.229-1.46,4.365-2.635,6.344c-0.412,0.695-0.377,1.567,0.09,2.227l3.74,5.27
		c0.107,0.162,0.09,0.375-0.045,0.516l-4.512,4.514c-0.076,0.078-0.18,0.121-0.289,0.119c-0.082,0-0.161-0.025-0.227-0.074
		l-5.254-3.742c-0.66-0.466-1.531-0.501-2.227-0.09c-1.979,1.176-4.115,2.063-6.345,2.635c-0.782,0.195-1.373,0.839-1.5,1.636
		l-1.075,6.36c-0.029,0.194-0.197,0.336-0.393,0.334h-6.375c-0.196,0.002-0.364-0.14-0.394-0.334l-1.06-6.36
		c-0.132-0.794-0.721-1.435-1.5-1.636c-2.173-0.568-4.26-1.426-6.205-2.547c-0.314-0.178-0.668-0.271-1.029-0.272
		c-0.424-0.003-0.838,0.13-1.182,0.379l-5.3,3.771c-0.067,0.045-0.146,0.071-0.227,0.076c-0.108-0.001-0.212-0.045-0.288-0.121
		l-4.513-4.514c-0.134-0.139-0.153-0.354-0.045-0.514l3.725-5.225c0.466-0.666,0.502-1.541,0.091-2.242
		c-1.188-1.971-2.085-4.103-2.666-6.33c-0.209-0.773-0.846-1.357-1.636-1.5l-6.406-1.09c-0.193-0.029-0.335-0.197-0.333-0.394
		v-6.375c-0.003-0.196,0.139-0.364,0.333-0.394l6.315-1.059c0.802-0.132,1.449-0.727,1.651-1.514
		c0.556-2.233,1.429-4.375,2.59-6.361c0.407-0.692,0.365-1.561-0.106-2.211l-3.77-5.3c-0.108-0.161-0.089-0.375,0.045-0.514
		l4.513-4.513c0.074-0.079,0.179-0.123,0.288-0.121c0.082,0,0.162,0.026,0.228,0.076l5.224,3.725
		c0.665,0.467,1.541,0.502,2.241,0.091c1.971-1.187,4.103-2.084,6.33-2.665c0.774-0.209,1.358-0.847,1.5-1.636l1.091-6.406
		c0.029-0.194,0.197-0.336,0.393-0.333h6.375c0.196-0.003,0.364,0.139,0.394,0.333l1.06,6.315c0.133,0.802,0.727,1.449,1.514,1.65
		c2.283,0.573,4.473,1.471,6.5,2.666c0.695,0.412,1.568,0.376,2.227-0.091l5.225-3.756c0.068-0.045,0.146-0.072,0.228-0.076
		c0.108,0,0.212,0.044,0.288,0.121l4.513,4.513c0.135,0.14,0.153,0.354,0.046,0.515l-3.74,5.254
		c-0.467,0.659-0.503,1.531-0.092,2.226c1.176,1.979,2.063,4.116,2.635,6.345c0.195,0.783,0.839,1.374,1.636,1.5l6.36,1.075
		c0.195,0.029,0.338,0.198,0.334,0.394v6.375L173.434,244.277z"/>
	<path id="Path_1465" fill="#ED1C24" stroke="#FFFFFF" stroke-width="0.5" d="M141.253,225.435c-8.639,0-15.643,7.003-15.643,15.643
		c0,8.639,7.004,15.643,15.643,15.643c8.64,0,15.643-7.004,15.643-15.643C156.891,232.441,149.89,225.441,141.253,225.435z
		 M141.253,252.635c-6.381,0-11.555-5.172-11.556-11.554c-0.001-6.382,5.172-11.556,11.554-11.556
		c6.382,0,11.556,5.172,11.556,11.554c0,0,0,0.001,0,0.002C152.803,247.46,147.632,252.631,141.253,252.635z"/>
</g>
</svg>
