<svg xmlns="http://www.w3.org/2000/svg" width="26.933" height="26.933" viewBox="0 0 26.933 26.933">
  <path id="ic_speaker_phone_24px" d="M7.121,7.336,8.613,8.829a5.267,5.267,0,0,1,7.453,0l1.493-1.493a7.384,7.384,0,0,0-10.438,0ZM12.34,1A11.444,11.444,0,0,0,4.25,4.351L5.722,5.822a9.375,9.375,0,0,1,13.236,0l1.472-1.472A11.444,11.444,0,0,0,12.34,1Zm2.985,9.4-5.971-.01a1.189,1.189,0,0,0-1.19,1.19V21.72a1.189,1.189,0,0,0,1.19,1.19h5.96a1.189,1.189,0,0,0,1.19-1.19V11.584a1.165,1.165,0,0,0-1.18-1.18Zm.146,10.428H9.208V12.482h6.263Z" transform="translate(13.195 -3.712) rotate(45)" fill="#fff"/>
</svg>
