<?xml version="1.0" encoding="utf-8"?>
<!-- Generator: Adobe Illustrator 16.0.0, SVG Export Plug-In . SVG Version: 6.00 Build 0)  -->
<!DOCTYPE svg PUBLIC "-//W3C//DTD SVG 1.1//EN" "http://www.w3.org/Graphics/SVG/1.1/DTD/svg11.dtd">
<svg version="1.1" id="Layer_1" xmlns="http://www.w3.org/2000/svg" xmlns:xlink="http://www.w3.org/1999/xlink" x="0px" y="0px"
	 width="50px" height="50px" viewBox="44.5 44.5 50 50" enable-background="new 44.5 44.5 50 50" xml:space="preserve">
<g id="Group_732" transform="translate(-1119 -2980)">
	<g id="Ellipse_1777" transform="translate(1119 2980)">
		<circle fill="none" cx="69.5" cy="69.5" r="24.5"/>
		<circle fill="none" stroke="#FFFFFF" cx="69.5" cy="69.499" r="24.323"/>
	</g>
	<g id="Ellipse_1778" transform="translate(1138 2999)">
		<circle fill="none" cx="50.5" cy="50.5" r="17.802"/>
		<circle fill="none" stroke="#FFFFFF" cx="50.5" cy="50.499" r="17.625"/>
	</g>
	<circle id="Ellipse_1779" fill="#FFFFFF" cx="1188.5" cy="3049.5" r="11.809"/>
	<g id="Group_714" transform="translate(1166 3027.012)">
		<path id="Path_1437" fill="#ED1C24" d="M22.441,16.672c-0.06,0.007-0.114,0.032-0.157,0.074l-1.578,1.579
			c-0.107,0.098-0.114,0.265-0.016,0.372c0.098,0.106,0.264,0.113,0.371,0.016c0.003-0.002,0.005-0.005,0.008-0.007l0.006-0.007
			l1.131-1.131v4.631h-4.631l1.134-1.133c0.106-0.1,0.112-0.266,0.013-0.372c-0.099-0.106-0.266-0.113-0.372-0.014
			c-0.005,0.005-0.008,0.008-0.011,0.011l-1.577,1.577c-0.104,0.103-0.105,0.27-0.002,0.372v0l0.002,0.002l1.578,1.578
			c0.101,0.103,0.267,0.106,0.373,0.003c0.103-0.1,0.105-0.265,0.004-0.369l-0.006-0.01l-1.132-1.123h4.628v4.621l-1.131-1.129
			c-0.1-0.104-0.267-0.109-0.372-0.008c-0.104,0.099-0.109,0.266-0.009,0.37c0.004,0.005,0.007,0.01,0.011,0.013l1.578,1.577
			c0.102,0.101,0.267,0.101,0.37,0l1.579-1.577c0.101-0.103,0.103-0.269,0.002-0.373c-0.099-0.101-0.261-0.104-0.364-0.008
			l-0.009,0.006l-1.128,1.129v-4.621h4.626l-1.131,1.124c-0.112,0.093-0.128,0.26-0.035,0.372c0.092,0.11,0.257,0.128,0.369,0.036
			c0.01-0.007,0.017-0.016,0.026-0.026l0.009-0.007l1.579-1.578c0.102-0.101,0.104-0.268,0.003-0.37c0-0.001,0-0.001-0.002-0.001
			l-0.001-0.002l-1.578-1.577c-0.101-0.106-0.267-0.11-0.373-0.01c-0.104,0.102-0.109,0.268-0.008,0.374
			c0.003,0.003,0.006,0.006,0.01,0.011l1.136,1.133h-4.63v-4.63l1.127,1.131c0.103,0.104,0.268,0.106,0.374,0.004
			c0.102-0.1,0.104-0.267,0.003-0.372l0,0l-0.006-0.007l-1.578-1.579C22.598,16.692,22.519,16.664,22.441,16.672z"/>
	</g>
</g>
</svg>
