<svg height="512pt" viewBox="0 -2 512 512" width="512pt" xmlns="http://www.w3.org/2000/svg"><path d="m32 0h384c17.671875 0 32 14.328125 32 32v288c0 17.671875-14.328125 32-32 32h-384c-17.671875 0-32-14.328125-32-32v-288c0-17.671875 14.328125-32 32-32zm0 0" fill="#448aff"/><path d="m416 508.878906-148.59375-92.878906h-171.40625c-17.671875 0-32-14.328125-32-32v-288c0-17.671875 14.328125-32 32-32h384c17.671875 0 32 14.328125 32 32v288c0 17.671875-14.328125 32-32 32h-64zm0 0" fill="#82b1ff"/><g fill="#fff"><path d="m304 288h-32v-64h16c17.671875 0 32-14.328125 32-32s-14.328125-32-32-32-32 14.328125-32 32h-32c0-33.257812 25.476562-60.976562 58.617188-63.773438 33.140624-2.796874 62.902343 20.253907 68.476562 53.042969 5.578125 32.789063-14.890625 64.382813-47.09375 72.699219zm0 0"/><path d="m272 320h32v32h-32zm0 0"/><path d="m128 160h-32v-64h64v32h-32zm0 0"/><path d="m480 384h-64v-32h32v-32h32zm0 0"/></g></svg>