<?xml version="1.0" encoding="iso-8859-1"?>
<!-- Generator: Adobe Illustrator 22.1.0, SVG Export Plug-In . SVG Version: 6.00 Build 0)  -->
<svg version="1.1" id="Layer_1" xmlns="http://www.w3.org/2000/svg" xmlns:xlink="http://www.w3.org/1999/xlink" x="0px" y="0px"
	 viewBox="0 0 40 40" style="enable-background:new 0 0 40 40;" xml:space="preserve">
<g>
	<polygon style="fill:#FFFFFF;" points="7.939,10.424 14.391,13.698 8.372,17.887 	"/>
	<g>
		<path style="fill:#FFFFFF;" d="M23.052,27.345c-0.021,2.46,0.006,4.828-0.077,7.192c-0.051,1.433-1.211,2.533-2.867,2.504
			c-4.718-0.083-9.438-0.116-14.156-0.169c-1.036-0.012-2.072-0.018-3.108-0.036c-1.738-0.03-2.802-1.13-2.805-2.863
			C0.035,31.693,0.014,29.412,0,27.147C7.785,27.214,15.408,27.279,23.052,27.345z M1.884,31.504
			c1.119,0.012,2.281,0.025,3.342,0.037c0.009-0.846,0.019-1.719,0.028-2.548c-1.083-0.01-2.227-0.02-3.344-0.03
			C1.902,29.779,1.893,30.628,1.884,31.504z"/>
		<path style="fill:#FFFFFF;" d="M0.174,25.233c0.025-0.744-0.062-1.552,0.103-2.305c0.282-1.29,1.292-1.984,2.628-1.972
			c2.713,0.025,5.425,0.058,8.138,0.088c3.074,0.034,6.149,0.066,9.223,0.102c1.8,0.021,2.863,1.112,2.848,2.914
			c-0.004,0.493-0.01,0.986-0.014,1.426C15.474,25.402,7.859,25.318,0.174,25.233z"/>
	</g>
	<path style="fill:#FFFFFF;" d="M40,18.931c0-8.808-7.166-15.973-15.973-15.973c-6.137,0-11.474,3.481-14.147,8.571l2.568,1.32
		c2.193-4.159,6.559-7.002,11.579-7.002c7.215,0,13.084,5.87,13.084,13.084c0,6.256-4.415,11.498-10.292,12.781v2.943
		C34.3,33.33,40,26.786,40,18.931z"/>
	<path style="fill:#FFFFFF;" d="M25.196,17.09c-0.062,0-0.117,0-0.173,0c-0.315,0-0.631,0-0.946,0c-0.031,0-0.056-0.004-0.08-0.029
		c-0.354-0.371-0.709-0.741-1.063-1.112c-0.008-0.008-0.02-0.014-0.017-0.033c0.757,0,1.514,0,2.266,0
		c0.015-0.011,0.013-0.022,0.013-0.031c0-0.768,0.001-1.537-0.001-2.305c-0.001-0.332-0.153-0.569-0.46-0.703
		c-0.241-0.105-0.489-0.137-0.745-0.066c-0.027,0.007-0.053,0.017-0.078,0.029c-0.027,0.013-0.051,0.031-0.08,0.049
		c-0.062-0.093-0.114-0.196-0.165-0.298c-0.082-0.165-0.159-0.333-0.222-0.507c-0.062-0.173-0.037-0.333,0.084-0.474
		c0.119-0.138,0.279-0.216,0.443-0.285c0.269-0.114,0.546-0.195,0.843-0.19c0.446,0.007,0.801,0.191,1.072,0.544
		c0.286,0.374,0.43,0.802,0.495,1.262c0.032,0.226,0.038,0.453,0.038,0.68c-0.001,0.74,0,1.481,0,2.221c0,0.022,0,0.043,0,0.063
		c0.021,0.016,0.042,0.009,0.061,0.009c0.192,0.001,0.383,0.001,0.575,0c0.03,0,0.052,0.006,0.074,0.028
		c0.369,0.379,0.739,0.756,1.118,1.144c-0.614,0-1.218,0-1.818,0c-0.016,0.027-0.01,0.047-0.01,0.066
		c0,1.076-0.003,2.151,0.001,3.227c0.002,0.415,0.184,0.734,0.559,0.923c0.24,0.121,0.505,0.14,0.77,0.125
		c0.443-0.025,0.823-0.216,1.171-0.475c0.484-0.361,0.898-0.79,1.208-1.311c0.2-0.336,0.325-0.698,0.359-1.089
		c0.002-0.021,0.007-0.043-0.004-0.068c-0.154,0.009-0.308,0.028-0.464,0.016c-0.343-0.026-0.663-0.11-0.926-0.347
		c-0.212-0.191-0.33-0.435-0.391-0.709c-0.072-0.322-0.102-0.648-0.019-0.971c0.097-0.378,0.289-0.693,0.644-0.886
		c0.199-0.108,0.417-0.154,0.641-0.172c0.304-0.025,0.605-0.009,0.895,0.1c0.288,0.108,0.529,0.282,0.736,0.507
		c0.428,0.464,0.677,1.01,0.748,1.637c0.091,0.802-0.062,1.558-0.433,2.269c-0.43,0.824-1.023,1.514-1.776,2.06
		c-0.528,0.383-1.118,0.625-1.763,0.728c-0.271,0.043-0.542,0.067-0.816,0.057c-0.295-0.012-0.571-0.1-0.833-0.232
		c-0.501-0.252-0.924-0.601-1.26-1.052c-0.101-0.136-0.182-0.284-0.237-0.446c-0.021-0.061-0.032-0.122-0.032-0.186
		c0.001-1.229,0.001-2.459,0.001-3.688C25.196,17.146,25.196,17.122,25.196,17.09z"/>
</g>
</svg>
