<?xml version="1.0" encoding="utf-8"?>
<!-- Generator: Adobe Illustrator 22.1.0, SVG Export Plug-In . SVG Version: 6.00 Build 0)  -->
<svg version="1.1" id="Layer_1" xmlns="http://www.w3.org/2000/svg" xmlns:xlink="http://www.w3.org/1999/xlink" x="0px" y="0px"
	 viewBox="0 0 100 100" style="enable-background:new 0 0 100 100;" xml:space="preserve">
<style type="text/css">
	.st0{fill:#E20613;}
	.st1{fill:#83D0F5;}
	.st2{fill:none;stroke:#FFFFFF;stroke-width:4.8592;stroke-linecap:round;stroke-linejoin:round;stroke-miterlimit:10;}
	.st3{fill:none;stroke:#FFFFFF;stroke-width:4.8592;stroke-linejoin:round;stroke-miterlimit:10;}
</style>
<g>
	<path id="XMLID_2_" class="st0" d="M66.7,91.8c1.4-1,2.8-2.1,4-3.4c2.6-2.6,4.6-5.6,6.1-8.9c-27.3,29.8-53.5,1.9-53.5,1.9
		c0,0.1,0.1,0.3,0.3,0.5c0.5,0.9,1.1,1.8,1.7,2.7C34.7,98,53.3,101.2,66.7,91.8z"/>
	<g>
		<g>
			<path class="st1" d="M53.6,6c-1.6,2.2-3.1,5.1-4.3,8c-1,2.5-1.7,4.9-1.7,6.6c0.9-1,1.7-1.5,2.4-1.5c3.1,0,9.6,12.5,9.6,17.8
				c0-0.7,0-13.2,0-16.2C59.6,17,56.6,10,53.6,6z"/>
		</g>
		<path class="st1" d="M77.6,61.7c-0.9-1.4-2.4-2.5-3.9-3.6c-1.5-1.1-3-2.3-4.4-3.4v-7.5c0-16.1,0-19.3,0-21
			c0-5.3-3.3-11.7-4.9-11.7c-1.5,0-4.9,6.4-4.9,11.7v10.2c-0.2-4-3.6-11.2-6.5-14.9C50,25.3,46.5,33,46.5,36.8c0,1.5,0,30.7,0,38.9
			h13.1c0,0,0-1.2,0-3.1h18.8c0,0,0-4.6,0-6.2C78.5,64.9,78.4,63.1,77.6,61.7z"/>
		<path class="st1" d="M34.2,58.1c-1.4,1.1-2.9,2.2-3.9,3.6c-0.9,1.3-0.9,3.1-0.9,4.7c0,1.6,0,6.2,0,6.2h11V53.2
			C38.5,54.8,36.4,56.5,34.2,58.1z"/>
		<g>
			<g>
				<line class="st2" x1="34.8" y1="85.7" x2="34.8" y2="79.5"/>
				<line class="st2" x1="65.1" y1="85.7" x2="65.1" y2="79.5"/>
			</g>
			<path class="st2" d="M59.6,60.5c0,0,0-20.5,0-23.6c0-5.3-6.6-17.8-9.6-17.8c-3.1,0-9.6,12.5-9.6,17.8c0,1.5,0,15.4,0,23.6"/>
			<g>
				<g>
					<path class="st3" d="M40.4,43.2c0,3.2-6.7,9.5-14.1,15c-1.4,1.1-2.9,2.2-3.9,3.6c-0.9,1.3-0.9,3.1-0.9,4.7c0,1.6,0,6.2,0,6.2
						h18.9"/>
				</g>
				<g>
					<path class="st3" d="M40.4,43.2c0,3.2-6.7,9.5-14.1,15c-1.4,1.1-2.9,2.2-3.9,3.6c-0.9,1.3-0.9,3.1-0.9,4.7c0,1.6,0,6.2,0,6.2
						h18.9"/>
				</g>
				<g>
					<path class="st3" d="M59.7,43.2c0,3.2,6.7,9.5,14.1,15c1.4,1.1,2.9,2.2,3.9,3.6c0.9,1.3,0.9,3.1,0.9,4.7c0,1.6,0,6.2,0,6.2
						H59.6"/>
				</g>
			</g>
			<path class="st3" d="M59.6,36.9c0,0,0-13.1,0-16.2c0-5.3-6.6-17.8-9.6-17.8c-2.1,0-5.8,5.8-7.9,11.1c-1,2.5-1.7,5-1.7,6.7
				c0,3.1,0,16.2,0,16.2"/>
			<g>
				<path class="st2" d="M40.3,26.2c0-5.3-3.3-11.7-4.8-11.7c-1.5,0-4.8,6.4-4.8,11.7c0,1.7,0,5,0,21"/>
				<path class="st2" d="M59.6,26.2c0-5.3,3.3-11.7,4.9-11.7c1.5,0,4.9,6.4,4.9,11.7c0,1.7,0,5,0,21"/>
			</g>
			<path class="st2" d="M53.6,81.8c0,5.6-3.6,14.8-3.6,14.8s-3.6-9.2-3.6-14.8"/>
			<line class="st2" x1="50" y1="74.8" x2="50" y2="57.9"/>
			<line class="st2" x1="47.5" y1="32.8" x2="52.5" y2="32.8"/>
			<polyline class="st2" points="40.3,67 40.3,75.8 59.6,75.8 59.6,67 			"/>
		</g>
	</g>
</g>
</svg>
