<svg xmlns="http://www.w3.org/2000/svg" width="32.597" height="31.652" viewBox="0 0 32.597 31.652">
  <g id="Group_717" data-name="Group 717" transform="translate(-101.252 -105.98)">
    <path id="Path_1441" data-name="Path 1441" d="M151.442,106.48h19.807a.493.493,0,0,1,.493.493v29.665a.493.493,0,0,1-.493.493H151.442a.493.493,0,0,1-.493-.493V106.973a.494.494,0,0,1,.493-.493Zm19.314.987h-18.82v28.678h18.82Z" transform="translate(-43.795 0)" fill="#ed1c24" stroke="#ed1c24" stroke-width="1"/>
    <path id="Path_1442" data-name="Path 1442" d="M216.134,132.963a2.928,2.928,0,1,1-2.07.858,2.919,2.919,0,0,1,2.07-.858Zm1.5,1.43a2.119,2.119,0,1,0,.621,1.5A2.112,2.112,0,0,0,217.632,134.393Z" transform="translate(-98.583 -22.937)" fill="#ed1c24" stroke="#ed1c24" stroke-width="1"/>
    <path id="Path_1444" data-name="Path 1444" d="M212.906,264.763a3.16,3.16,0,1,1-2.234.926,3.149,3.149,0,0,1,2.234-.926Zm1.676,1.484a2.37,2.37,0,1,0,.694,1.676A2.363,2.363,0,0,0,214.582,266.247Z" transform="translate(-95.355 -140.136)" fill="#ed1c24" stroke="#ed1c24" stroke-width="1"/>
    <path id="Path_1446" data-name="Path 1446" d="M197.642,246.733a5.926,5.926,0,1,1-4.191,1.736,5.908,5.908,0,0,1,4.191-1.736Zm3.493,2.434a4.94,4.94,0,1,0,1.447,3.493A4.924,4.924,0,0,0,201.135,249.167Z" transform="translate(-80.091 -124.873)" fill="#ed1c24" stroke="#ed1c24" stroke-width="1"/>
    <path id="Path_1447" data-name="Path 1447" d="M151.442,215.554a.493.493,0,1,0,0,.987h19.807a.493.493,0,0,0,0-.987Z" transform="translate(-43.795 -97.113)" fill="#ed1c24" stroke="#ed1c24" stroke-width="1"/>
    <path id="Path_1448" data-name="Path 1448" d="M370.644,265.261a.492.492,0,0,0-.779.6,5.428,5.428,0,0,1-.006,6.506.492.492,0,1,0,.79.586A6.424,6.424,0,0,0,370.644,265.261Z" transform="translate(-238.613 -141.199)" fill="#ed1c24" stroke="#ed1c24" stroke-width="1"/>
    <path id="Path_1449" data-name="Path 1449" d="M353.737,280.636a.492.492,0,0,0-.779.6,2.614,2.614,0,0,1-.006,3.134.492.492,0,1,0,.79.586A3.609,3.609,0,0,0,353.737,280.636Z" transform="translate(-223.56 -154.888)" fill="#ed1c24" stroke="#ed1c24" stroke-width="1"/>
    <path id="Path_1450" data-name="Path 1450" d="M103.85,268.749a.492.492,0,0,0-.779-.6,6.424,6.424,0,0,0-.006,7.693.492.492,0,1,0,.79-.586A5.428,5.428,0,0,1,103.85,268.749Z" transform="translate(0 -143.769)" fill="#ed1c24" stroke="#ed1c24" stroke-width="1"/>
    <path id="Path_1451" data-name="Path 1451" d="M125.415,284.124a.492.492,0,1,0-.779-.6,3.609,3.609,0,0,0-.006,4.321.492.492,0,0,0,.79-.586A2.614,2.614,0,0,1,125.415,284.124Z" transform="translate(-19.711 -157.458)" fill="#ed1c24" stroke="#ed1c24" stroke-width="1"/>
    <path id="Path_1452" data-name="Path 1452" d="M307.173,127.434a.7.7,0,1,0-.7-.7A.7.7,0,0,0,307.173,127.434Z" transform="translate(-182.263 -17.408)" fill="#ed1c24" stroke="#ed1c24" stroke-width="1" fill-rule="evenodd"/>
    <path id="Path_1453" data-name="Path 1453" d="M172.966,127.434a.7.7,0,1,0-.7-.7A.7.7,0,0,0,172.966,127.434Z" transform="translate(-62.773 -17.408)" fill="#ed1c24" stroke="#ed1c24" stroke-width="1" fill-rule="evenodd"/>
  </g>
</svg>
