<?xml version="1.0" encoding="utf-8"?>
<!-- Generator: Adobe Illustrator 22.1.0, SVG Export Plug-In . SVG Version: 6.00 Build 0)  -->
<svg version="1.1" id="Layer_1" xmlns="http://www.w3.org/2000/svg" xmlns:xlink="http://www.w3.org/1999/xlink" x="0px" y="0px"
	 viewBox="0 0 100 100" style="enable-background:new 0 0 100 100;" xml:space="preserve">
<style type="text/css">
	.st0{fill:#E20613;}
	.st1{fill:#83D0F5;}
	.st2{fill:none;}
	.st3{fill:none;stroke:#FFFFFF;stroke-width:4.6292;stroke-linecap:round;stroke-linejoin:round;stroke-miterlimit:10;}
	.st4{fill:none;stroke:#FFFFFF;stroke-width:4.6292;stroke-linecap:square;stroke-linejoin:round;stroke-miterlimit:10;}
	.st5{fill:none;stroke:#FFFFFF;stroke-width:4.6292;stroke-linejoin:round;stroke-miterlimit:10;}
</style>
<g>
	<path id="XMLID_3_" class="st0" d="M71.9,48.8c1.8,1.3,3.5,2.8,5.1,4.4c3.3,3.4,5.8,7.2,7.6,11.5c-34.4-38.5-68.6-2.8-68.6-2.8
		c0-0.1,0.2-0.4,0.4-0.7c0.7-1.2,1.4-2.3,2.2-3.4C30.9,40.6,54.9,36.6,71.9,48.8z"/>
	<g>
		<g>
			<polygon class="st1" points="74.8,25.3 74.8,31.3 68.7,38.5 92.7,38.5 85.4,29.4 88.7,25.3 			"/>
		</g>
		<rect x="63.7" y="18.1" class="st1" width="11.5" height="13"/>
		<g>
			<path class="st2" d="M25.4,76.7c-3.1,1-4.9,3.8-4.1,6.3c0.8,2.5,3.9,3.8,7,2.8c3.1-1,4.9-3.8,4.1-6.3
				C31.6,76.9,28.4,75.7,25.4,76.7z"/>
			<path class="st2" d="M55.4,76.9c-3.1-2-7-1.5-8.7,1.2c-1.7,2.7-0.6,6.4,2.5,8.4c3.1,2,7,1.5,8.7-1.2
				C59.7,82.7,58.5,78.9,55.4,76.9z"/>
			<path class="st1" d="M77.9,72.5c0.9,1.8,1,3.8,0,5.5c-1.7,2.6-5.4,3.1-8.4,1.1c-3-1.9-4.1-5.6-2.4-8.1c0.8-1.3,2.1-2,3.6-2.2
				c-2.6-1.1-5.3-1.9-8.2-2.6c-1.1,1.4-3,2.5-5.4,2.8c-4.1,0.7-7.7-1-8.2-3.7c0-0.2,0-0.4,0-0.6C26.6,64.8,8.4,77.1,7.4,92.4h83.9
				C90.7,84.6,85.7,77.5,77.9,72.5z M28.2,85.8c-3.1,1-6.2-0.3-7-2.8c-0.8-2.5,1.1-5.3,4.1-6.3c3.1-1,6.2,0.3,7,2.8
				C33.2,82,31.3,84.8,28.2,85.8z M57.9,85.4c-1.7,2.7-5.6,3.2-8.7,1.2c-3.1-2-4.3-5.8-2.5-8.4c1.7-2.7,5.6-3.2,8.7-1.2
				C58.5,78.9,59.7,82.7,57.9,85.4z"/>
		</g>
		<path class="st3" d="M57.6,53.2c18.2,3.7,32.1,19.1,33.5,38.1"/>
		<path class="st3" d="M7.3,91.4c1.6-21.8,19.7-39,41.9-39c0.4,0,0.7,0,1,0"/>
		<line class="st3" x1="17.7" y1="37.6" x2="17.7" y2="47.6"/>
		<line class="st3" x1="22.7" y1="42.6" x2="12.7" y2="42.6"/>
		<path class="st3" d="M63.7,62.9c0.4,2.7-2.5,5.4-6.6,6.1c-4.1,0.7-7.7-1-8.2-3.7c-0.2-1.6,0.6-3.1,2.2-4.3"/>
		<path class="st3" d="M34,66.7c-3.9,0.5-7.3-1.3-7.7-4.1c-0.4-2.8,2.5-5.5,6.3-6c3.9-0.5,7.3,1.3,7.7,4.1"/>
		<path class="st3" d="M59,83.5c-0.9,3.3-4.6,5.1-8.2,4.1c-3.7-1-5.9-4.4-5-7.7c0.9-3.3,4.6-5.1,8.2-4.1"/>
		<polyline class="st4" points="58,13 74.8,13 74.8,31.3 68.7,38.5 92.7,38.5 85.4,29.4 92.7,20.2 82.4,20.2 		"/>
		<line class="st5" x1="58" y1="31.2" x2="74.6" y2="31.2"/>
		<line class="st3" x1="57.4" y1="7.6" x2="57.4" y2="68.3"/>
		<path class="st3" d="M32.4,79.5c0.8,2.5-1.1,5.3-4.1,6.3c-3.1,1-6.2-0.3-7-2.8c-0.8-2.5,1.1-5.3,4.1-6.3
			C28.4,75.7,31.6,76.9,32.4,79.5z"/>
		<path class="st3" d="M75.1,69.8c3.2,1.7,4.6,5.2,3.2,7.8c-1.4,2.6-5.1,3.4-8.3,1.7c-3.2-1.7-4.6-5.2-3.2-7.8"/>
		<line class="st3" x1="34.4" y1="21.7" x2="34.4" y2="31.7"/>
		<line class="st3" x1="39.4" y1="26.7" x2="29.4" y2="26.7"/>
	</g>
</g>
</svg>
