<?xml version="1.0" encoding="utf-8"?>
<!-- Generator: Adobe Illustrator 22.1.0, SVG Export Plug-In . SVG Version: 6.00 Build 0)  -->
<svg version="1.1" id="Layer_1" xmlns="http://www.w3.org/2000/svg" xmlns:xlink="http://www.w3.org/1999/xlink" x="0px" y="0px"
	 viewBox="0 0 150 150" style="enable-background:new 0 0 150 150;" xml:space="preserve">
<style type="text/css">
	.st0{fill:#0091D8;}
	.st1{fill:#E20613;}
</style>
<g>
	<g>
		<path class="st0" d="M82.4,121.6c0,0,25.1-10.8,32-24c0.2-0.5,0.5-0.9,0.7-1.4c0-0.1,0-0.2-0.1-0.3c-7.8-0.3-12.3-3.1-14.3-9
			c-0.5-1.5-0.8-3.1-0.8-4.7c-0.1-4.2-0.1-8.5,0-12.7c0.2-8.9,7.3-14.6,16.1-13c0.6,0.1,1.1,0.2,1.8,0.4
			c-2.3-13.4-17.9-33.2-42.9-34c-25-0.7-42.4,17.7-45.9,33.6c2.5,0,5.1-0.3,7.5,0.1c5.8,1,10.1,6.3,10.3,12.2
			c0.1,4.8,0.1,9.6,0,14.3c-0.1,7-5.8,12.6-12.7,12.8C27.2,96,21,91,20.6,84.1c-0.9-13.9-1.1-27.9,6.3-40.5
			c9.4-16,23.3-25.5,42-27.2c0.5,0,1,0,1.6,0c2,0,4,0,6,0c0.5,0,1.1,0,1.6,0c15.4,1.5,28.1,8.3,37.3,20.6
			c12.2,16.2,14.1,34.7,8.7,53.6c-6.1,21.1-40.2,36.6-40.2,36.6S84.5,124,82.4,121.6z M106.5,75.9C106.5,75.9,106.5,75.9,106.5,75.9
			c0,2.3-0.1,4.6,0,6.9c0.2,3.6,3.1,6.4,6.5,6.5c3.2,0.1,6.5-2.5,6.7-5.9c0.3-4.9,0.3-9.9,0-14.8c-0.2-3.5-3.4-6.1-6.7-5.9
			c-3.6,0.2-6.4,2.9-6.5,6.7C106.4,71.5,106.5,73.7,106.5,75.9z M27,75.8C27,75.8,27,75.8,27,75.8c0,2.3-0.1,4.6,0,6.9
			c0.1,3.6,2.9,6.3,6.4,6.6c3.1,0.2,6.6-2.5,6.8-5.8c0.3-4.9,0.3-9.9,0-14.8c-0.2-3.8-3.3-6.1-7.1-5.9c-3.5,0.2-6,2.9-6,6.7
			C26.9,71.6,27,73.7,27,75.8z"/>
		<path class="st0" d="M76.5,16.5c-2,0-4,0-6,0c0-0.1,0.1-0.3,0.1-0.5c1.9,0,3.9,0,5.8,0C76.5,16.2,76.5,16.4,76.5,16.5z"/>
		<path class="st0" d="M70.6,16.1c0,0.2,0,0.3-0.1,0.5c-0.5,0-1,0-1.6,0c0-0.1,0-0.3,0-0.4C69.5,16.1,70.1,16.1,70.6,16.1z"/>
		<path class="st0" d="M76.5,16.5c0-0.1-0.1-0.3-0.1-0.4c0.5,0,1.1,0,1.6,0c0.1,0.1,0.1,0.3,0.1,0.4C77.6,16.5,77,16.5,76.5,16.5z"
			/>
	</g>
	<circle class="st1" cx="72.5" cy="127.3" r="7.7"/>
</g>
</svg>
