<?xml version="1.0" encoding="utf-8"?>
<!-- Generator: Adobe Illustrator 22.1.0, SVG Export Plug-In . SVG Version: 6.00 Build 0)  -->
<svg version="1.1" id="Layer_1" xmlns="http://www.w3.org/2000/svg" xmlns:xlink="http://www.w3.org/1999/xlink" x="0px" y="0px"
	 viewBox="0 0 100 100" style="enable-background:new 0 0 100 100;" xml:space="preserve">
<style type="text/css">
	.st0{fill:#83D0F5;}
	.st1{fill:none;stroke:#FFFFFF;stroke-width:4.2947;stroke-linejoin:round;stroke-miterlimit:10;}
	.st2{fill:none;stroke:#FFFFFF;stroke-width:4.2947;stroke-linecap:round;stroke-linejoin:round;stroke-miterlimit:10;}
	.st3{fill:#006DC2;stroke:#FFFFFF;stroke-width:4.2947;stroke-miterlimit:10;}
	.st4{fill:none;stroke:#FFFFFF;stroke-width:4.2947;stroke-miterlimit:10;}
	.st5{fill:#E20613;}
</style>
<g>
	<g>
		<path class="st0" d="M56.1,58.6c0,1.5-1.2,2.7-2.6,2.7h-5.2c-1.4,0-2.6-1.2-2.6-2.7v-1.2c0-1.5,1.2-2.7,2.6-2.7h5.2
			c1.4,0,2.6,1.2,2.6,2.7V58.6z"/>
		<path class="st0" d="M69.4,37l-0.5-7.3c0,0,0-3.7-2.6-7.2c-1.9-0.4-4.1-0.7-6.6-0.7c-18.8,0-18.8,13.6-18.8,13.6l-0.1,0.9
			c10.5-0.6,15.2-5.5,15.2-5.5S61.4,35.9,69.4,37z"/>
		<g>
			<g>
				<path class="st0" d="M91.8,7.5c0-0.8-0.2-1.5-0.5-2.1c-0.3,0-0.5-0.1-0.8-0.1c-2.8,0-5,2.3-5,5c0,0.8,0.2,1.5,0.5,2.1
					c0.3,0,0.5,0.1,0.8,0.1C89.6,12.6,91.8,10.3,91.8,7.5z"/>
			</g>
			<path class="st0" d="M80.4,80L75,78.8l-1.1,0.3v-7l-0.1,0l8-9.4l1.8-5.6c0,0-0.1,0.1-0.1,0.1c-0.4,0.4-2,1.7-5.1,3.2
				c-2.2,1.3-3.7,2.1-3.7,2.1c-6.5,3.4-15.1,5.5-24.5,5.5H50c-6.1,0-11.8-0.9-16.8-2.4c0,0.9,0.5,7.3,9.3,14.6
				c-0.9-0.2-1.9-0.4-2.8-0.7v18.1h52.4v-5.8C92.1,85.3,87.5,81.2,80.4,80z"/>
			<g>
				<path class="st1" d="M86.9,44c0,20.4-16.5,36.9-36.9,36.9c-20.4,0-36.9-16.5-36.9-36.9C13.1,23.6,29.6,7.1,50,7.1
					C70.4,7.1,86.9,23.6,86.9,44z"/>
				<path class="st1" d="M73.9,71.6v11.7C68.2,87.7,59.4,91,50.1,91h-0.3c-9.3,0-18-3.3-23.7-7.6V71.6"/>
				<path class="st2" d="M74.6,62.4c-6.5,3.4-15.1,5.5-24.5,5.5H50c-9.4,0-18-2.1-24.5-5.5"/>
				<g>
					<path class="st1" d="M7.9,97.5v-5.8c0-6.5,4.7-10.6,11.8-11.8"/>
					<path class="st1" d="M92.1,97.5v-5.8c0-6.5-4.7-10.6-11.8-11.8l-6.1-1.3"/>
				</g>
				<line class="st1" x1="86.9" y1="45.1" x2="86.9" y2="12.7"/>
				<g>
					<path class="st2" d="M56.1,58.1c4.7-0.2,8.1-1.5,10.5-3.3"/>
					<path class="st2" d="M56.1,58.6c0,1.5-1.2,2.7-2.6,2.7h-5.2c-1.4,0-2.6-1.2-2.6-2.7v-1.2c0-1.5,1.2-2.7,2.6-2.7h5.2
						c1.4,0,2.6,1.2,2.6,2.7V58.6z"/>
					<g>
						<path class="st2" d="M61.5,66.7c5.5-6.3,6.7-15.9,6.7-15.9c6.5-5.1,1.7-10.4,1.7-10.4l-1-10.8c0,0,0-13.6-18.8-13.6
							c-18.8,0-18.8,13.6-18.8,13.6l-0.4,4.1"/>
						<path class="st2" d="M30.2,40.4c0,0-4.9,5.3,1.7,10.4c0,0,1.1,9.2,6.3,15.5"/>
					</g>
					<g>
						<g>
							<g>
								<path class="st3" d="M42.4,43.5c0,0.4-0.3,0.7-0.7,0.7c-0.4,0-0.7-0.3-0.7-0.7c0-0.4,0.3-0.7,0.7-0.7
									C42.1,42.8,42.4,43.1,42.4,43.5z"/>
							</g>
						</g>
						<g>
							<g>
								<path class="st3" d="M59.1,43.3c0,0.4-0.3,0.7-0.7,0.7c-0.4,0-0.7-0.3-0.7-0.7c0-0.4,0.3-0.7,0.7-0.7
									C58.7,42.6,59.1,42.9,59.1,43.3z"/>
							</g>
						</g>
					</g>
				</g>
				<g>
					<g>
						<path class="st4" d="M86.8,2.5c-2.8,0-5,2.3-5,5c0,2.8,2.3,5.1,5,5.1c2.8,0,5-2.3,5-5.1C91.8,4.8,89.6,2.5,86.8,2.5z"/>
					</g>
				</g>
			</g>
		</g>
		<path class="st2" d="M55.9,30.8c0,0,5.4,5.2,13.4,6.3"/>
		<path class="st2" d="M57.5,27c0,0-2,9.2-18.7,9.4"/>
	</g>
	<path id="XMLID_1_" class="st5" d="M69,76.8c1.6-1.1,3.1-2.4,4.5-3.8c2.9-2.9,5.2-6.2,6.8-9.9c-30.5,33.2-59.7,2.1-59.7,2.1
		c0,0.1,0.1,0.3,0.3,0.6c0.6,1,1.2,2,1.9,3C33.4,83.8,54.1,87.4,69,76.8z"/>
</g>
</svg>
