<?xml version="1.0" encoding="utf-8"?>
<!-- Generator: Adobe Illustrator 22.1.0, SVG Export Plug-In . SVG Version: 6.00 Build 0)  -->
<svg version="1.1" id="Layer_1" xmlns="http://www.w3.org/2000/svg" xmlns:xlink="http://www.w3.org/1999/xlink" x="0px" y="0px"
	 viewBox="0 0 150 150" style="enable-background:new 0 0 150 150;" xml:space="preserve">
<style type="text/css">
	.st0{fill:#F5C698;}
	.st1{fill:#E20613;}
	.st2{fill:#F6C799;}
	.st3{fill:#EABD94;}
	.st4{fill:#16191C;}
	.st5{fill:#E2B288;}
	.st6{fill:#560E21;}
	.st7{fill:#23292B;}
	.st8{fill:#FCFCFC;}
	.st9{fill:#FFFFFF;}
	.st10{fill:#2D3C51;}
	.st11{fill:#35A5AA;}
	.st12{fill-rule:evenodd;clip-rule:evenodd;fill:#FFFFFF;}
	.st13{fill:#0091D8;}
	.st14{fill:#FEFEFF;}
	.st15{fill:#0D5F7F;}
</style>
<g>
	<path class="st0" d="M72.4,108.1l29.2-11c0-0.1-12.2-4.6-14.2-5.5c0,0-3.4-1.7-3.7-8.6c0,0-0.4-4-0.2-5.5H72.4h0H61.2
		C61.4,79,61,83,61,83c-0.3,6.9-3.7,8.6-3.7,8.6c-2,0.9-14.2,5.4-14.2,5.5L72.4,108.1L72.4,108.1L72.4,108.1L72.4,108.1L72.4,108.1z
		"/>
	<path class="st1" d="M113.5,112.7c-0.3-13.4-13.7-16.3-13.7-16.3c-8.2,5.9-27.5,5.8-27.5,5.8s-19.2,0.1-27.5-5.8
		c0,0-13.3,2.9-13.7,16.3l-0.9,14.9h84L113.5,112.7z"/>
	<ellipse class="st2" cx="72.7" cy="53.8" rx="22.2" ry="28.7"/>
	<path class="st3" d="M72.5,25.3l0.1,57.2c-12.2,0-22.3-12.6-22.3-28.5S60.3,25.3,72.5,25.3z"/>
	<path class="st4" d="M62.7,35.8c0,0,20.1,10.3,29.1,11.2c0,0,2.5,1.3,1.9,9c-0.6,7.7-2,11.9-2.5,13.1c-0.7,2-3.6,17.6,0.8,22.9
		c0,0-2.1-14.5,2.4-18.7c0,0,7.5-11.9,8.2-24.8c0,0,0.2-19.2-11.3-29c0,0-14.4-13.1-34.6-2.4c0,0-8.9,4.6-13.7,19.3
		c0,0-2.9,7.7,2.3,21c6.3,16.2,6.5,17.3,7.1,20.1c0,0,1.2,9.7-4,15.6c0,0,12.3-12.9,7.4-20.7S50.4,54.8,50.6,53
		C50.6,53,51.6,37.6,62.7,35.8z"/>
	<path class="st5" d="M61.1,81.5c0.1-0.9,0.1-2,0.1-2.9c0,0,0-0.1,0-0.1c3.3,2.6,7.2,4.1,11.4,4.1c0,0,0,0,0.1,0
		c3.9,0,7.6-1.3,10.8-3.7c0,1.8,0.2,4.2,0.2,4.2c0.3,6.9,3.7,8.6,3.7,8.6c0.2,0.1,0.9,0.4,0.9,0.4L61.1,81.5z"/>
	<path class="st6" d="M104.1,45.5c0,0,5.4,5.9,1,15.6c0,0-6.1,12.2-27.1,12.9v-2.1c0,0,31.1-0.6,26-22.8L104.1,45.5z"/>
	<path class="st1" d="M77.9,75.6h-10c-1.5,0-2.8-1.2-2.8-2.8l0,0c0-1.5,1.2-2.8,2.8-2.8h10c1.5,0,2.8,1.2,2.8,2.8l0,0
		C80.6,74.3,79.4,75.6,77.9,75.6z"/>
	<path class="st1" d="M101.4,54.1L101.4,54.1c-1.6,0-2.9-1.3-2.9-2.9V44c0-1.6,1.3-2.9,2.9-2.9h0c1.6,0,2.9,1.3,2.9,2.9v7.1
		C104.3,52.8,103,54.1,101.4,54.1z"/>
	<g>
		<g>
			<path class="st7" d="M105.2,71.4l-0.6,2.2c0,0.1-0.1,0.2-0.1,0.3c0,0,0,0,0,0.1c0,0,0,0,0.1,0c0,0,0.1,0,0.1,0
				c0.1-0.1,0.2-0.2,0.3-0.4l0.1,0.1c-0.3,0.5-0.7,0.8-1,0.8c-0.1,0-0.2,0-0.3-0.1c-0.1-0.1-0.1-0.2-0.1-0.3c0-0.1,0-0.2,0.1-0.3
				l0.4-1.5c0-0.1,0.1-0.3,0.1-0.3c0,0,0-0.1-0.1-0.1c0,0-0.1-0.1-0.2-0.1c0,0-0.1,0-0.1,0l0-0.1l1.1-0.2H105.2z M105,70
				c0.1,0,0.2,0,0.3,0.1c0.1,0.1,0.1,0.2,0.1,0.3c0,0.1,0,0.2-0.1,0.3c-0.1,0.1-0.2,0.1-0.3,0.1c-0.1,0-0.2,0-0.3-0.1
				c-0.1-0.1-0.1-0.2-0.1-0.3c0-0.1,0-0.2,0.1-0.3C104.8,70,104.9,70,105,70z"/>
		</g>
		<g>
			<path class="st7" d="M104.6,68.3c-2.2,0-4,1.8-4,4c0,2.2,1.8,4,4,4c2.2,0,4-1.8,4-4C108.6,70.1,106.8,68.3,104.6,68.3z
				 M104.6,75.9c-2,0-3.6-1.6-3.6-3.6s1.6-3.6,3.6-3.6c2,0,3.6,1.6,3.6,3.6S106.6,75.9,104.6,75.9z"/>
		</g>
	</g>
	<g>
		<path class="st8" d="M45.3,89.8l0-3h3.4v8.8h-6.4v-5.9L45.3,89.8z M41.9,89.7v6v0.4h0.4h6.4h0.4v-0.4v-8.8v-0.4h-0.4h-3.5
			L41.9,89.7z"/>
		
			<rect x="43" y="91.1" transform="matrix(-1 -1.224647e-16 1.224647e-16 -1 90.9318 182.6802)" class="st8" width="4.9" height="0.4"/>
		
			<rect x="43" y="92.5" transform="matrix(-1 -1.224647e-16 1.224647e-16 -1 90.9318 185.408)" class="st8" width="4.9" height="0.4"/>
		
			<rect x="43" y="93.9" transform="matrix(-1 -1.224647e-16 1.224647e-16 -1 90.9318 188.1358)" class="st8" width="4.9" height="0.4"/>
	</g>
	<path class="st1" d="M147.1,95l-0.9,0c-0.1-0.5-0.3-1-0.6-1.4l0,0l0.6-0.6c0.1-0.1,0.1-0.4,0-0.5l-1.1-1c-0.1-0.1-0.4-0.1-0.5,0
		l-0.7,0.6c-0.4-0.2-0.7-0.4-1.4-0.5v0l0.1-0.9c0-0.2-0.1-0.3-0.3-0.3l-1.5,0c-0.2,0-0.2,0.1-0.2,0.3l0,0.9c-0.5,0.1-1,0.3-1.4,0.6
		l0,0l-0.6-0.6c-0.1-0.1-0.4-0.1-0.5,0l-1,1.1c-0.1,0.1-0.1,0.4,0,0.5l0.6,0.7c-0.2,0.4-0.4,0.7-0.5,1.4h0l-0.9,0
		c-0.2,0-0.3,0.1-0.3,0.3l0,1.5c0,0.2,0.1,0.3,0.3,0.3l0.9,0c0.1,0.5,0.3,0.9,0.6,1.3l0,0l-0.6,0.6c-0.1,0.1-0.1,0.4,0,0.5l1.1,1
		c0.1,0.1,0.4,0.1,0.5,0l0.6-0.6c0.4,0.2,0.8,0.4,1.4,0.5v0l0,0.9c0,0.2,0.1,0.4,0.3,0.4l1.5,0c0.2,0,0.4-0.2,0.3-0.4l-0.1-0.9
		c0.5-0.1,0.9-0.3,1.3-0.6v0l0.7,0.6c0.1,0.1,0.4,0.1,0.5,0l1-1.1c0.1-0.1,0.1-0.4,0-0.5l-0.6-0.6c0.2-0.4,0.4-0.7,0.5-1.4h0l0.9,0
		c0.2,0,0.4-0.1,0.4-0.3l0-1.5C147.5,95.1,147.3,95,147.1,95z M140.9,98.2C140.8,98.2,140.8,98.2,140.9,98.2
		c-0.1-0.1-0.2-0.1-0.2-0.1c0,0-0.1,0-0.1-0.1c0,0-0.1,0-0.1-0.1c0,0,0,0,0,0c-0.1-0.1-0.2-0.1-0.2-0.2c-0.1-0.1-0.1-0.1-0.2-0.2
		c0,0,0-0.1-0.1-0.1c-0.1-0.1-0.1-0.2-0.2-0.3c-0.1-0.3-0.2-0.5-0.2-0.8c0-0.6,0.2-1.2,0.7-1.6c0,0,0.1-0.1,0.1-0.1c0,0,0,0,0,0
		c0,0,0.1,0,0.1-0.1c0.1-0.1,0.2-0.1,0.3-0.2c0,0,0.1,0,0.1,0c0.3-0.1,0.5-0.2,0.8-0.2c0.4,0,0.7,0.1,1,0.2c0,0,0.1,0,0.1,0
		c0,0,0.1,0.1,0.1,0.1c0,0,0.1,0,0.1,0.1c0,0,0,0,0,0c0,0,0.1,0,0.1,0.1c0,0,0.1,0.1,0.1,0.1c0,0,0,0,0.1,0.1
		c0.1,0.1,0.1,0.1,0.2,0.2c0,0,0,0.1,0.1,0.1c0,0,0,0.1,0.1,0.1c0,0,0.1,0.1,0.1,0.1c0.1,0.3,0.2,0.6,0.2,0.9c0,0.2,0,0.4-0.1,0.5
		c0,0,0,0.1,0,0.1c0,0.1,0,0.1,0,0.2c0,0,0,0.1,0,0.1c0,0,0,0,0,0.1c0,0,0,0.1-0.1,0.1c0,0,0,0.1-0.1,0.1c0,0,0,0,0,0.1
		c0,0,0,0,0,0.1c0,0,0,0,0,0c0,0,0,0.1-0.1,0.1c0,0,0,0,0,0c0,0,0,0.1-0.1,0.1c0,0,0,0,0,0c0,0-0.1,0.1-0.2,0.1c0,0,0,0,0,0
		c0,0-0.1,0-0.1,0.1c0,0-0.1,0-0.1,0.1c0,0,0,0,0,0c0,0-0.1,0-0.1,0.1c-0.3,0.2-0.6,0.3-1,0.3C141.5,98.3,141.2,98.3,140.9,98.2
		C140.9,98.2,140.9,98.2,140.9,98.2z"/>
	<polygon class="st9" points="127.6,91.9 128.1,94.2 111.2,94.2 111.2,77.7 129.8,77.7 129.8,91.2 	"/>
	<rect x="111.2" y="77.7" class="st10" width="18.6" height="2.1"/>
	<rect x="114.3" y="81.7" class="st10" width="12.5" height="0.7"/>
	<rect x="114.3" y="84.1" class="st10" width="12.5" height="0.7"/>
	<rect x="114.3" y="86.5" class="st10" width="12.5" height="0.7"/>
	<rect x="114.3" y="89" class="st10" width="12.5" height="0.7"/>
	<polygon class="st10" points="129.8,91.3 128.2,94.2 127.3,91.7 	"/>
	<polygon class="st6" points="22.2,59.8 33.3,49.7 44.4,59.7 44.3,73.4 22.5,73.4 	"/>
	<rect x="24.2" y="54.6" class="st9" width="18.4" height="17.9"/>
	<polygon class="st11" points="44.4,75.4 22.2,75.4 22.2,60.2 30.1,68.1 36.7,68.2 44.4,60.2 	"/>
	<polygon class="st6" points="22.2,75.4 44.4,75.4 36.6,68.1 30.1,68.1 	"/>
	<polygon class="st1" points="22.3,75.4 22.3,60.2 30.1,68.1 	"/>
	<polygon class="st1" points="44.4,75.4 44.4,60.2 36.6,68.1 	"/>
	<path class="st1" d="M15.2,75.8l-0.9,0c-0.1-0.6-0.3-1-0.6-1.4l0,0l0.6-0.7c0.1-0.1,0.1-0.4,0-0.5l-1.1-1.1c-0.1-0.1-0.4-0.1-0.5,0
		l-0.7,0.6c-0.4-0.3-0.7-0.4-1.5-0.5v0l0.1-0.9c0-0.2-0.2-0.3-0.4-0.3l-1.5,0c-0.2,0-0.3,0.2-0.3,0.3l0,0.9c-0.6,0.1-1,0.3-1.4,0.6
		l0,0l-0.7-0.6c-0.1-0.1-0.4-0.1-0.5,0l-1.1,1.1c-0.1,0.1-0.1,0.4,0,0.5l0.6,0.7c-0.3,0.4-0.4,0.7-0.5,1.5h0l-0.9,0
		c-0.2,0-0.3,0.1-0.3,0.3l0,1.5c0,0.2,0.1,0.3,0.3,0.3l0.9,0c0.1,0.6,0.3,1,0.6,1.4l0,0l-0.6,0.7c-0.1,0.1-0.1,0.4,0,0.5L6,81.9
		c0.1,0.1,0.4,0.1,0.5,0l0.7-0.7c0.4,0.3,0.9,0.4,1.5,0.5v0l0,0.9c0,0.2,0.1,0.4,0.3,0.4l1.6,0c0.2,0,0.4-0.2,0.4-0.4l-0.1-0.9
		c0.6-0.1,0.9-0.3,1.3-0.6v0l0.7,0.6c0.1,0.1,0.4,0.1,0.5,0l1.1-1.1c0.1-0.1,0.1-0.4,0-0.5l-0.6-0.7c0.3-0.4,0.4-0.7,0.5-1.5h0
		l0.9,0c0.2,0,0.4-0.1,0.4-0.3l0-1.5C15.6,75.9,15.4,75.8,15.2,75.8z M8.7,79.1C8.7,79.1,8.7,79.1,8.7,79.1C8.6,79,8.5,79,8.5,79
		c0,0-0.1,0-0.1-0.1c0,0-0.1,0-0.1-0.1c0,0,0,0,0,0c-0.1-0.1-0.2-0.1-0.2-0.2c-0.1-0.1-0.1-0.2-0.2-0.2c0,0,0-0.1-0.1-0.1
		c-0.1-0.1-0.1-0.2-0.2-0.3c-0.1-0.3-0.2-0.6-0.2-0.9c0-0.7,0.3-1.3,0.7-1.7c0,0,0.1-0.1,0.1-0.1c0,0,0,0,0,0c0,0,0.1,0,0.1-0.1
		c0.1-0.1,0.2-0.1,0.3-0.2c0,0,0.1,0,0.1,0c0.3-0.1,0.6-0.2,0.9-0.2c0.4,0,0.7,0.1,1,0.2c0,0,0.1,0,0.1,0c0,0,0.1,0.1,0.1,0.1
		c0,0,0.1,0,0.1,0.1c0,0,0,0,0,0c0,0,0.1,0,0.1,0.1c0,0,0.1,0.1,0.1,0.1c0,0,0.1,0.1,0.1,0.1c0.1,0.1,0.1,0.1,0.2,0.2
		c0,0,0,0.1,0.1,0.1c0,0,0,0.1,0.1,0.1c0,0,0.1,0.1,0.1,0.1c0.1,0.3,0.2,0.6,0.2,1c0,0.2,0,0.4-0.1,0.6c0,0,0,0.1,0,0.1
		c0,0.1,0,0.1-0.1,0.2c0,0,0,0.1,0,0.1c0,0,0,0,0,0.1c0,0,0,0.1-0.1,0.1c0,0,0,0.1-0.1,0.1c0,0,0,0,0,0.1c0,0,0,0,0,0.1c0,0,0,0,0,0
		c0,0,0,0.1-0.1,0.1c0,0,0,0,0,0c0,0,0,0.1-0.1,0.1c0,0,0,0,0,0c-0.1,0.1-0.1,0.1-0.2,0.1c0,0,0,0,0,0c0,0-0.1,0-0.1,0.1
		c0,0-0.1,0-0.1,0.1c0,0,0,0,0,0c0,0-0.1,0-0.1,0.1c-0.3,0.2-0.6,0.3-1,0.3C9.3,79.3,9,79.2,8.7,79.1C8.8,79.1,8.7,79.1,8.7,79.1z"
		/>
	<path class="st1" d="M8.2,84.7l-0.4,0.1c-0.1-0.3-0.3-0.4-0.5-0.6l0,0l0.2-0.4c0-0.1,0-0.2-0.1-0.3l-0.7-0.4c-0.1,0-0.2,0-0.3,0.1
		l-0.3,0.4c-0.3-0.1-0.4-0.1-0.8-0.1l0,0l-0.1-0.5c0-0.1-0.1-0.1-0.2-0.1l-0.8,0.2c-0.1,0-0.1,0.1-0.1,0.2l0.1,0.4
		c-0.3,0.1-0.5,0.3-0.6,0.5l0,0l-0.4-0.2c-0.1,0-0.2,0-0.3,0.1L2.7,85c0,0.1,0,0.2,0.1,0.3l0.4,0.3c-0.1,0.3-0.1,0.4-0.1,0.8l0,0
		l-0.4,0.1c-0.1,0-0.1,0.1-0.1,0.2l0.2,0.8c0,0.1,0.1,0.2,0.2,0.1l0.4-0.1c0.1,0.3,0.3,0.4,0.5,0.6l0,0l-0.2,0.4
		c0,0.1,0,0.2,0.1,0.3L4.4,89c0.1,0,0.2,0,0.3-0.1l0.2-0.4c0.3,0.1,0.5,0.1,0.8,0.1l0,0L5.9,89c0,0.1,0.1,0.2,0.2,0.1L6.8,89
		c0.1,0,0.2-0.1,0.1-0.2l-0.2-0.4c0.3-0.1,0.4-0.3,0.6-0.5l0,0L7.8,88c0.1,0,0.2,0,0.3-0.1l0.4-0.7c0-0.1,0-0.2-0.1-0.3L8,86.7
		c0.1-0.3,0.1-0.4,0.1-0.8l0,0l0.4-0.1c0.1,0,0.2-0.1,0.2-0.2l-0.2-0.8C8.4,84.7,8.3,84.7,8.2,84.7z M5.4,87.3
		C5.4,87.3,5.4,87.3,5.4,87.3c-0.1,0-0.1,0-0.1,0c0,0,0,0-0.1,0c0,0,0,0-0.1,0c0,0,0,0,0,0c0,0-0.1,0-0.1-0.1c0,0-0.1-0.1-0.1-0.1
		c0,0,0,0,0,0c0,0-0.1-0.1-0.1-0.1c-0.1-0.1-0.2-0.3-0.2-0.4c-0.1-0.3,0-0.7,0.1-0.9c0,0,0,0,0-0.1c0,0,0,0,0,0c0,0,0,0,0,0
		c0,0,0.1-0.1,0.1-0.1c0,0,0,0,0,0C4.9,85.1,5.1,85,5.2,85c0.2-0.1,0.4-0.1,0.5,0c0,0,0,0,0.1,0c0,0,0.1,0,0.1,0c0,0,0,0,0.1,0
		c0,0,0,0,0,0c0,0,0,0,0.1,0c0,0,0.1,0,0.1,0c0,0,0,0,0,0c0,0,0.1,0.1,0.1,0.1c0,0,0,0,0,0c0,0,0,0,0,0c0,0,0,0,0.1,0.1
		c0.1,0.1,0.2,0.3,0.3,0.4c0,0.1,0,0.2,0,0.3c0,0,0,0,0,0.1c0,0,0,0.1,0,0.1c0,0,0,0,0,0.1c0,0,0,0,0,0c0,0,0,0,0,0.1c0,0,0,0,0,0.1
		c0,0,0,0,0,0c0,0,0,0,0,0c0,0,0,0,0,0c0,0,0,0,0,0.1c0,0,0,0,0,0c0,0,0,0,0,0c0,0,0,0,0,0c0,0,0,0.1-0.1,0.1c0,0,0,0,0,0
		c0,0,0,0,0,0c0,0,0,0,0,0c0,0,0,0,0,0c0,0,0,0,0,0c-0.1,0.1-0.3,0.2-0.5,0.3C5.7,87.3,5.6,87.3,5.4,87.3
		C5.4,87.3,5.4,87.3,5.4,87.3z"/>
	<g>
		<g>
			<path class="st12" d="M110.6,54.6l0.1,0.1c0,0,0,0,0.1,0.1l0.2,0.2c0,0,0,0,0,0l0.2,0.4c0,0,0,0,0,0l0.2,0.6l0.2,0.6c0,0,0,0,0,0
				l0.1,0.4c0,0,0,0.1,0,0.1l0,0.2c0,0,0,0.1,0,0.1l0,0c0,0-0.1,0.1-0.1,0.1l-0.3,0.1c0,0,0,0,0,0l-0.4,0.1c-0.1,0-0.1,0.1-0.2,0.1
				l-0.1,0.2c0,0,0,0.1,0,0.1l-0.1,0.5c0,0,0,0.1,0,0.1l0.1,0.8c0,0,0,0,0,0l0.2,1.1c0,0,0,0,0,0l0.3,1c0,0,0,0,0,0l0.3,0.7
				c0,0,0,0,0,0.1l0.3,0.3c0,0,0.1,0.1,0.1,0.1l0.2,0c0,0,0.1,0,0.1,0l0.4-0.2c0,0,0,0,0,0l0,0c0.1,0,0.2,0,0.2,0.1l0.1,0.1
				c0,0,0,0,0,0l0.2,0.3c0,0,0,0,0,0.1l0.2,0.6c0,0,0,0,0,0l0.2,0.6c0,0,0,0,0,0l0.1,0.5c0,0,0,0,0,0l0,0.2c0,0.1,0,0.1,0,0.2l0,0.1
				c0,0.1-0.1,0.1-0.2,0.1l-0.5,0.1c0,0,0,0-0.1,0l-0.8,0c0,0-0.2,0-0.4,0l-0.2-0.1c-0.1,0-0.1,0-0.2-0.1c0,0-0.1-0.1-0.2-0.2
				c0,0,0,0,0,0l-0.3-0.3c0,0-0.1-0.1-0.1-0.1l-0.6-0.9c0,0,0,0,0,0l-0.6-1.3c0,0,0,0,0,0l-0.5-1.5c0,0,0,0,0,0l-0.3-1.3
				c0,0,0,0,0,0l-0.2-1.2c0,0,0,0,0,0l0-1.1c0,0,0,0,0,0l0.1-0.9c0,0,0,0,0,0l0.2-0.7c0,0,0,0,0,0l0.2-0.5c0,0,0,0,0-0.1l0.2-0.3
				c0,0,0,0,0.1,0l0.5-0.3c0,0,0,0,0.1,0L110.6,54.6L110.6,54.6z"/>
			<path class="st12" d="M111.3,54.3l0.1,0.1c0,0,0,0,0,0l0.2,0.2c0,0,0,0,0,0l0.1,0.3l0.2,0.4l0.2,0.4c0,0,0,0,0,0l0.1,0.4l0.1,0.5
				l0.1,0.4c0,0,0,0,0,0l-0.1,0.3c0,0,0,0.1-0.1,0.1l-0.2,0.1c0,0,0,0-0.1,0l-0.2,0c0,0-0.1,0-0.1-0.1l0,0c0,0,0,0,0-0.1l0-0.2
				c0,0,0,0,0,0l0-0.3l0-0.3c0,0,0,0,0,0l-0.1-0.4l-0.1-0.4c0,0,0,0,0,0l-0.1-0.3c0,0,0,0,0,0l-0.1-0.3c0,0,0,0,0,0l-0.1-0.3
				c0,0,0,0,0,0l-0.1-0.2c0,0,0,0,0,0l-0.1-0.2c0,0,0,0,0,0l0-0.1c0,0,0-0.1,0-0.1l0,0c0,0,0,0,0,0l0.2-0.1c0,0,0,0,0,0L111.3,54.3
				L111.3,54.3z"/>
			<path class="st12" d="M114.6,65.2l0.1-0.2c0,0,0,0,0,0l0-0.2c0,0,0,0,0,0l-0.1-0.3c0,0,0,0,0,0l-0.1-0.3l-0.1-0.4c0,0,0,0,0,0
				l-0.2-0.4c0,0,0,0,0,0l-0.2-0.4c0,0,0,0,0,0l-0.3-0.3c0,0,0,0,0,0l-0.2-0.1c0,0-0.1,0-0.1,0l-0.2,0.1c0,0,0,0,0,0l-0.1,0.1
				c0,0-0.1,0.1,0,0.1l0,0c0,0,0,0,0,0l0.1,0.2l0.2,0.2c0,0,0,0,0,0l0.2,0.3c0,0,0,0,0,0l0.1,0.3l0.1,0.3l0.1,0.3c0,0,0,0,0,0
				l0.1,0.3c0,0,0,0,0,0l0,0.3l0,0.2c0,0,0,0,0,0l0,0.2c0,0,0,0,0,0l0,0c0,0.1,0.1,0.1,0.1,0.1l0.1,0c0,0,0,0,0.1,0l0.2-0.1
				c0,0,0,0,0,0L114.6,65.2L114.6,65.2L114.6,65.2z"/>
		</g>
		<g>
			<path class="st9" d="M132.5,57.4c-0.1-0.7-0.2-1.5-0.4-2.2c-0.2-0.7-0.5-1.4-0.8-2c-0.3-0.6-0.7-1.3-1.2-1.8
				c-0.5-0.6-1-1.1-1.5-1.6c-1.2-1-2.5-1.7-4-2.2c-1.5-0.5-3-0.6-4.5-0.5c-0.7,0.1-1.5,0.2-2.2,0.4c-0.7,0.2-1.4,0.5-2,0.8
				c-0.6,0.3-1.3,0.7-1.8,1.2c-0.6,0.5-1.1,1-1.6,1.5c-0.5,0.6-0.9,1.2-1.3,1.8l0.2,0.3c0,0,0,0,0,0.1l0.1,0.3
				c2.4-4.6,7.7-6.9,12.8-5.4c5.7,1.8,8.8,7.8,7.1,13.5c-1.8,5.7-7.8,8.8-13.5,7.1c-1.2-0.4-2.3-0.9-3.2-1.7l-0.6,0.1
				c0,0-0.1,0-0.1,0l-0.2,0c1.1,0.9,2.4,1.7,3.9,2.1c1.5,0.5,3,0.6,4.5,0.5c0.7-0.1,1.5-0.2,2.2-0.4c0.7-0.2,1.4-0.5,2-0.8
				c0.6-0.3,1.3-0.7,1.8-1.2c0.6-0.5,1.1-1,1.6-1.5c1-1.2,1.7-2.5,2.2-4C132.5,60.4,132.7,58.9,132.5,57.4z"/>
		</g>
		<g>
			<path class="st9" d="M114.8,62.3V61l1.2-1c2-1.7,2.9-2.8,2.9-3.8c0-0.7-0.4-1.3-1.5-1.3c-0.8,0-1.4,0.4-1.9,0.7l-0.6-1.5
				c0.7-0.5,1.7-0.9,2.9-0.9c2,0,3.1,1.2,3.1,2.8c0,1.5-1.1,2.7-2.4,3.9l-0.8,0.7v0h3.4v1.7H114.8z"/>
			<path class="st9" d="M126.2,62.3v-2.1h-4v-1.4l3.4-5.5h2.6v5.2h1.1v1.6h-1.1v2.1H126.2z M126.2,58.6v-2c0-0.5,0-1.1,0.1-1.7h-0.1
				c-0.3,0.6-0.5,1.1-0.8,1.7l-1.2,2v0H126.2z"/>
		</g>
		<path class="st9" d="M121.2,48.3c1.1-0.2,2.2-0.4,3.2-0.6c-1.1-0.3-2.1-0.5-3.2-0.8l-3.1-1.3l-0.1,0l1,1.7l0.2,0.3l-0.2,0.3
			l-1,1.6l0.1,0L121.2,48.3z"/>
		<path class="st9" d="M125.6,67.6c-0.8,0.6-1.6,1.2-2.5,1.8c1-0.2,2-0.4,3-0.6l3.1-0.1l0-0.1l-1.5-1l-0.2-0.2l0-0.3l0.2-1.8l-0.1,0
			L125.6,67.6z"/>
	</g>
	<g>
		<path class="st9" d="M30,30.9c-1.6,0.9-1.7,1.5-0.8,3c-0.9-1.6-1.5-1.7-3-0.8c1.6-0.9,1.7-1.5,0.8-3C27.9,31.6,28.5,31.8,30,30.9z
			"/>
		<path class="st9" d="M34.8,34.3c-1.6,0.9-1.7,1.5-0.8,3c-0.9-1.6-1.5-1.7-3-0.8c1.6-0.9,1.7-1.5,0.8-3
			C32.7,35.1,33.3,35.3,34.8,34.3z"/>
		<path class="st9" d="M36.5,28.2c-2.1,1.2-2.3,2-1.1,4.1c-1.2-2.1-2-2.3-4.1-1.1c2.1-1.2,2.3-2,1.1-4.1
			C33.6,29.3,34.3,29.5,36.5,28.2z"/>
	</g>
	<path class="st9" d="M18.6,93c-3.5,0.1-4.3,0.9-4.2,4.4c-0.1-3.5-0.9-4.3-4.4-4.2c3.5-0.1,4.3-0.9,4.2-4.4
		C14.3,92.3,15.1,93,18.6,93z"/>
	<g>
		<path class="st13" d="M87.5,122.5c0-6.4,7.3-11.7,16.2-11.7c8.9,0,16.2,5.2,16.2,11.7c0,6.4-7.3,11.7-16.2,11.7
			c-0.3,0-0.6,0-0.9,0c-1.7,1.5-4.9,3.5-10.3,3c0,0,3.2-1.3,4.3-4.1C91.2,131.1,87.5,127.1,87.5,122.5z"/>
		<path class="st1" d="M136.7,115c0-6.4-7.3-11.7-16.2-11.7s-16.2,5.2-16.2,11.7s7.3,11.7,16.2,11.7c0.3,0,0.6,0,0.9,0
			c1.7,1.5,4.9,3.5,10.3,3c0,0-3.2-1.3-4.3-4.1C132.9,123.6,136.7,119.6,136.7,115z"/>
		<g>
			<path class="st6" d="M136.7,115c0,0.5,0,1-0.1,1.5h-32.1c-0.1-0.5-0.1-1-0.1-1.5c0-6.4,7.3-11.7,16.2-11.7
				C129.4,103.3,136.7,108.5,136.7,115z"/>
		</g>
		<g>
			<circle class="st14" cx="114.4" cy="116.3" r="1.8"/>
			
				<ellipse transform="matrix(0.1602 -0.9871 0.9871 0.1602 -13.5801 216.6178)" class="st14" cx="120.5" cy="116.3" rx="1.8" ry="1.8"/>
			<circle class="st14" cx="126.6" cy="116.3" r="1.8"/>
		</g>
		<path class="st15" d="M118.9,126.5c-0.7,1.3-1.6,2.4-2.8,3.4c-8.3-2-14-8.1-13.1-14.3c0.3-1.8,1.1-3.4,2.3-4.8
			c0.1-0.1,0.2-0.2,0.3-0.3c-0.1,0.1-0.1,0.2-0.2,0.3c-0.7,1.3-1,2.7-1,4.1C104.4,121,110.7,126,118.9,126.5z"/>
	</g>
</g>
</svg>
