<svg xmlns="http://www.w3.org/2000/svg" width="79.954" height="85.009" viewBox="0 0 79.954 85.009">
  <g id="Group_707" data-name="Group 707" transform="translate(-117 -391)">
    <path id="Path_1432" data-name="Path 1432" d="M186.06,423.325v-3.268a29.857,29.857,0,0,0-7.786-20.484A26.859,26.859,0,0,0,158.343,391h-2.7a26.859,26.859,0,0,0-19.931,8.572,29.856,29.856,0,0,0-7.786,20.484v3.268A11.728,11.728,0,0,0,117,435v5.108a11.714,11.714,0,0,0,11.7,11.7h6.591a2.149,2.149,0,0,0,2.143-2.143V425.431a2.149,2.149,0,0,0-2.143-2.142h-3.072v-3.233c0-14.127,10.072-24.77,23.413-24.77h2.7c13.359,0,23.413,10.644,23.413,24.77v3.233h-3.072a2.149,2.149,0,0,0-2.143,2.142v24.217a2.149,2.149,0,0,0,2.143,2.143h3c-.874,11.179-8.572,13.769-12.144,14.359a7.537,7.537,0,0,0-7.162-5.2H157a7.528,7.528,0,0,0,0,15.055h5.376a7.539,7.539,0,0,0,7.251-5.536,20.289,20.289,0,0,0,7.268-2.482c3.875-2.269,8.465-6.894,9.073-16.216a11.71,11.71,0,0,0,10.983-11.679v-5.108a11.667,11.667,0,0,0-10.894-11.661Zm-52.88,24.181h-4.447a7.416,7.416,0,0,1-7.411-7.411v-5.108a7.416,7.416,0,0,1,7.411-7.411h4.447Zm29.2,24.217H157a3.233,3.233,0,0,1,0-6.465h5.376a3.233,3.233,0,1,1,0,6.465Zm30.306-31.628a7.416,7.416,0,0,1-7.412,7.411h-4.446v-19.93h4.446a7.416,7.416,0,0,1,7.412,7.411Zm0,0" transform="translate(0)" fill="#ed1c24"/>
  </g>
</svg>
