<?xml version="1.0" encoding="utf-8"?>
<!-- Generator: Adobe Illustrator 16.0.0, SVG Export Plug-In . SVG Version: 6.00 Build 0)  -->
<!DOCTYPE svg PUBLIC "-//W3C//DTD SVG 1.1//EN" "http://www.w3.org/Graphics/SVG/1.1/DTD/svg11.dtd" [
	<!ENTITY ns_flows "http://ns.adobe.com/Flows/1.0/">
	<!ENTITY ns_extend "http://ns.adobe.com/Extensibility/1.0/">
	<!ENTITY ns_ai "http://ns.adobe.com/AdobeIllustrator/10.0/">
	<!ENTITY ns_graphs "http://ns.adobe.com/Graphs/1.0/">
]>
<svg version="1.1" id="Layer_1" xmlns:x="&ns_extend;" xmlns:i="&ns_ai;" xmlns:graph="&ns_graphs;"
	 xmlns="http://www.w3.org/2000/svg" xmlns:xlink="http://www.w3.org/1999/xlink" xmlns:a="http://ns.adobe.com/AdobeSVGViewerExtensions/3.0/"
	 x="0px" y="0px" width="87px" height="87px" viewBox="-6.866 -6.876 87 87" enable-background="new -6.866 -6.876 87 87"
	 xml:space="preserve">
<path id="Path_1633" fill="#ED1C24" stroke="#FDE7E8" stroke-width="0.75" d="M61.558,59.272h-9.064
	c-1.252,0.001-2.266,1.017-2.264,2.268c0.001,1.25,1.014,2.263,2.264,2.264h9.064c1.252-0.001,2.265-1.017,2.264-2.268
	C63.821,60.286,62.808,59.273,61.558,59.272z M41.158,27.546H13.972c-2.503,0-4.531,2.029-4.532,4.532v27.194
	c0.001,2.502,2.029,4.531,4.532,4.531h27.194c2.503,0,4.531-2.029,4.532-4.531v-27.19c-0.001-2.503-2.029-4.531-4.532-4.532
	L41.158,27.546z M41.158,57.006c-0.001,1.251-1.016,2.266-2.267,2.267H16.238c-1.251-0.001-2.265-1.016-2.266-2.267V34.348
	c0.001-1.251,1.015-2.266,2.266-2.266H38.9c1.252,0,2.266,1.015,2.267,2.266V57.01L41.158,57.006z M63.828,18.485H42.858
	l19.88-13.677c1.059-0.765,1.35-2.214,0.671-3.328c-0.604-1.047-1.941-1.407-2.988-0.804c-0.05,0.028-0.099,0.059-0.146,0.092
	c0,0-21.778,15.036-23.615,16.146L12.996,0.772c-0.997-0.684-2.358-0.43-3.042,0.567C9.921,1.386,9.891,1.435,9.862,1.485
	c-0.68,1.114-0.389,2.563,0.668,3.328L30.41,18.489H9.44c-5.006,0-9.064,4.059-9.064,9.065l0,0v36.259
	c0,5.006,4.059,9.064,9.064,9.064l0,0h54.389c5.006,0,9.064-4.059,9.064-9.064l0,0V27.55C72.893,22.543,68.834,18.485,63.828,18.485
	L63.828,18.485z M68.36,63.808c0,2.504-2.028,4.532-4.531,4.532l0,0H9.44c-2.503,0-4.531-2.028-4.531-4.532l0,0V27.55
	c0-2.502,2.029-4.531,4.531-4.532h54.389c2.502,0,4.531,2.029,4.531,4.532V63.808z M57.029,27.55c-3.755,0-6.8,3.044-6.8,6.8
	c0,3.755,3.045,6.799,6.8,6.799c3.756,0,6.801-3.044,6.801-6.799l0,0C63.829,30.595,60.784,27.55,57.029,27.55z M59.295,36.615
	h-4.537v-4.533h4.532L59.295,36.615z M61.558,52.478h-9.064c-1.252,0.002-2.266,1.018-2.264,2.269
	c0.001,1.25,1.014,2.263,2.264,2.264h9.064c1.252-0.001,2.265-1.017,2.264-2.269C63.821,53.492,62.808,52.479,61.558,52.478z"/>
</svg>
