<?xml version="1.0" encoding="utf-8"?>
<!-- Generator: Adobe Illustrator 22.1.0, SVG Export Plug-In . SVG Version: 6.00 Build 0)  -->
<svg version="1.1" id="Layer_1" xmlns="http://www.w3.org/2000/svg" xmlns:xlink="http://www.w3.org/1999/xlink" x="0px" y="0px"
	 viewBox="0 0 150 150" style="enable-background:new 0 0 150 150;" xml:space="preserve">
<style type="text/css">
	.st0{fill:#0091D8;}
	.st1{fill:none;stroke:#E20613;stroke-width:9.401;stroke-miterlimit:10;}
</style>
<g>
	<g>
		<path class="st0" d="M27,69.9c0-14,0-28.1,0-42.1c0-0.7,0.1-0.8,0.8-0.8c14,0,28.1,0,42.1,0c0,14.1,0,28.2,0,42.3
			c0,0.6-0.3,0.6-0.7,0.6c-4.5,0-9.1,0-13.6,0C46.1,70,36.6,69.9,27,69.9z M61.9,63.9c2.2,0.1,2.2,0.1,2-2c0-0.3,0-0.6,0-0.9
			c0-0.9,0-1.9,0-2.8c0-0.3,0-0.6,0-0.9c0-0.9,0-1.9,0-2.8c0-0.3,0-0.6,0-0.9c0-0.9,0-1.9,0-2.8c0-0.3,0-0.6,0-0.9
			c0-0.9,0-1.9,0-2.8c0-0.3,0-0.6,0-0.9c0-0.9,0-1.9,0-2.8c0-0.3,0-0.6,0-0.9c0-0.9,0-1.9,0-2.8c0-0.3,0-0.6,0-0.9
			c0-0.9,0-1.9,0-2.8c0-0.3,0-0.6,0-0.9C64,33,64,33,62.6,33c-0.3,0-0.6,0-0.9,0c-0.9,0-1.9,0-2.8,0c-0.3,0-0.6,0-0.9,0
			c-0.9,0-1.9,0-2.8,0c-0.3,0-0.6,0-0.9,0c-0.9,0-1.9,0-2.8,0c-0.3,0-0.6,0-0.9,0c-0.9,0-1.9,0-2.8,0c-0.3,0-0.6,0-0.9,0
			c-0.9,0-1.9,0-2.8,0c-0.3,0-0.6,0-0.9,0c-0.9,0-1.9,0-2.8,0c-0.3,0-0.6,0-0.9,0c-0.9,0-1.9,0-2.8,0c-0.3,0-0.6,0-0.9,0
			c-2.5-0.1-2.5-0.1-2.4,2.4c0,0.3,0,0.6,0,0.9c0,0.9,0,1.9,0,2.8c0,0.3,0,0.6,0,0.9c0,0.9,0,1.9,0,2.8c0,0.3,0,0.6,0,0.9
			c0,0.9,0,1.9,0,2.8c0,0.3,0,0.6,0,0.9c0,0.9,0,1.9,0,2.8c0,0.3,0,0.6,0,0.9c0,0.9,0,1.9,0,2.8c0,0.3,0,0.6,0,0.9
			c0,0.9,0,1.9,0,2.8c0,0.3,0,0.6,0,0.9c0,0.9,0,1.9,0,2.8c0,0.3,0,0.6,0,0.9C33,64,33,64,34.3,64c0.1,0,0.2,0,0.4,0
			c0.3,0,0.6,0,0.9,0c0.9,0,1.9,0,2.8,0c0.3,0,0.6,0,0.9,0c0.9,0,1.9,0,2.8,0c0.3,0,0.6,0,0.9,0c0.9,0,1.9,0,2.8,0
			c0.3,0,0.6,0,0.9,0c0.9,0,1.9,0,2.8,0c0.3,0,0.6,0,0.9,0c0.9,0,1.9,0,2.8,0c0.3,0,0.6,0,0.9,0c0.9,0,1.9,0,2.8,0
			c0.3,0,0.6,0,0.9,0c0.9,0,1.9,0,2.8,0C61.3,63.9,61.6,63.9,61.9,63.9z"/>
		<path class="st0" d="M69.9,123c-14.1,0-28.1,0-42.2,0c-0.6,0-0.8-0.1-0.8-0.8c0-14.1,0-28.1,0-42.2c4.7,0,9.4,0,14.1,0
			c9.6,0,19.2,0,28.8,0c0,5.3,0,10.6,0,15.9C70,105,69.9,114,69.9,123z M33,87.9c0,0.3,0,0.6,0,0.9c0,0.9,0,1.9,0,2.8
			c0,0.3,0,0.6,0,0.9c0,0.9,0,1.9,0,2.8c0,0.3,0,0.6,0,0.9c0,0.9,0,1.9,0,2.8c0,0.3,0,0.6,0,0.9c0,0.9,0,1.9,0,2.8
			c0,0.3,0,0.6,0,0.9c0,0.9,0,1.9,0,2.8c0,0.3,0,0.6,0,0.9c0,0.9,0,1.9,0,2.8c0,0.3,0,0.6,0,0.9c0,0.9,0,1.9,0,2.8
			c0,0.3,0,0.6,0,0.9c0,0.3,0,0.6,0,0.8c-0.2,1,0.3,1.2,1.1,1c0.3,0,0.6,0,0.9,0c0.9,0,1.9,0,2.8,0c0.3,0,0.6,0,0.9,0
			c0.9,0,1.9,0,2.8,0c0.3,0,0.6,0,0.9,0c0.9,0,1.9,0,2.8,0c0.3,0,0.6,0,0.9,0c0.9,0,1.9,0,2.8,0c0.3,0,0.6,0,0.9,0
			c0.9,0,1.9,0,2.8,0c0.3,0,0.6,0,0.9,0c0.9,0,1.9,0,2.8,0c0.3,0,0.6,0,0.9,0c0.9,0,1.9,0,2.8,0c0.3,0,0.6,0,0.9,0
			c2.8,0.1,2.8,0.1,2.6-2.6c0-0.3,0-0.6,0-0.9c0-0.9,0-1.9,0-2.8c0-0.3,0-0.6,0-0.9c0-0.9,0-1.9,0-2.8c0-0.3,0-0.6,0-0.9
			c0-0.9,0-1.9,0-2.8c0-0.3,0-0.6,0-0.9c0-0.9,0-1.9,0-2.8c0-0.3,0-0.6,0-0.9c0-0.9,0-1.9,0-2.8c0-0.3,0-0.6,0-0.9
			c0-0.9,0-1.9,0-2.8c0-0.3,0-0.6,0-0.9c0-0.9,0-1.9,0-2.8c0-0.3,0-0.6,0-0.9c0.2-0.9,0-1.4-1-1.2c-0.3,0.1-0.6,0-0.8,0
			c-0.3,0-0.6,0-0.9,0c-0.9,0-1.9,0-2.8,0c-0.3,0-0.6,0-0.9,0c-0.9,0-1.9,0-2.8,0c-0.3,0-0.6,0-0.9,0c-0.9,0-1.9,0-2.8,0
			c-0.3,0-0.6,0-0.9,0c-0.9,0-1.9,0-2.8,0c-0.3,0-0.6,0-0.9,0c-0.9,0-1.9,0-2.8,0c-0.3,0-0.6,0-0.9,0c-0.9,0-1.9,0-2.8,0
			c-0.3,0-0.6,0-0.9,0c-0.9,0-1.9,0-2.8,0c-0.3,0-0.6,0-0.9,0C33,85.9,33,85.9,33,87.9C33,87.9,33,87.9,33,87.9z"/>
		<path class="st0" d="M123,80.1c0,14.1,0,28.1,0,42.2c0,0.6-0.1,0.8-0.8,0.8c-14.1,0-28.1,0-42.2,0c0-14.1,0-28.2,0-42.3
			c0-0.6,0.3-0.6,0.7-0.6c4.3,0,8.6,0,12.8,0C103.4,80,113.2,80.1,123,80.1z M113.8,117c1,0,2,0,3.1,0c0-1,0.1-2.1,0.1-3.1
			c0-0.3,0-0.6,0-0.9c0-0.9,0-1.9,0-2.8c0-0.3,0-0.6,0-0.9c0-0.9,0-1.9,0-2.8c0-0.3,0-0.6,0-0.9c0-0.9,0-1.9,0-2.8
			c0-0.3,0-0.6,0-0.9c0-0.9,0-1.9,0-2.8c0-0.3,0-0.6,0-0.9c0-0.9,0-1.9,0-2.8c0-0.3,0-0.6,0-0.9c0-0.9,0-1.9,0-2.8
			c0-0.3,0-0.6,0-0.9c0-0.9,0-1.9,0-2.8c0-0.3,0-0.6,0-0.9c0.1-0.4,0-0.6-0.5-0.6c-0.6,0-1.3,0-1.9,0c-0.3,0-0.6,0-0.9,0
			c-0.9,0-1.9,0-2.8,0c-0.3,0-0.6,0-0.9,0c-0.9,0-1.9,0-2.8,0c-0.3,0-0.6,0-0.9,0c-0.9,0-1.9,0-2.8,0c-0.3,0-0.6,0-0.9,0
			c-0.9,0-1.9,0-2.8,0c-0.3,0-0.6,0-0.9,0c-0.9,0-1.9,0-2.8,0c-0.3,0-0.6,0-0.9,0c-0.9,0-1.9,0-2.8,0c-0.3,0-0.6,0-0.9,0
			c-0.9,0-1.9,0-2.8,0c-2.4-0.2-2.4-0.2-2.2,2.2c0,0.9,0,1.9,0,2.8c0,0.3,0,0.6,0,0.9c0,0.9,0,1.9,0,2.8c0,0.3,0,0.6,0,0.9
			c0,0.9,0,1.9,0,2.8c0,0.3,0,0.6,0,0.9c0,0.9,0,1.9,0,2.8c0,0.3,0,0.6,0,0.9c0,0.9,0,1.9,0,2.8c0,0.3,0,0.6,0,0.9
			c0,0.9,0,1.9,0,2.8c0,0.3,0,0.6,0,0.9c0,0.9,0,1.9,0,2.8c0,0.3,0,0.6,0,0.9c0,0.6,0,1.3,0,1.9c0,0.5,0.2,0.6,0.6,0.5
			c0.3,0,0.6,0,0.9,0c0.9,0,1.9,0,2.8,0c0.3,0,0.6,0,0.9,0c0.9,0,1.9,0,2.8,0c0.3,0,0.6,0,0.9,0c0.9,0,1.9,0,2.8,0
			c0.3,0,0.6,0,0.9,0c0.9,0,1.9,0,2.8,0c0.3,0,0.6,0,0.9,0c0.9,0,1.9,0,2.8,0c0.3,0,0.6,0,0.9,0c0.9,0,1.9,0,2.8,0
			c0.3,0,0.6,0,0.9,0c0.9,0,1.9,0,2.8,0C113.2,117,113.5,117,113.8,117z"/>
	</g>
	<circle class="st1" cx="101.5" cy="48.9" r="16.6"/>
</g>
</svg>
