<?xml version="1.0" encoding="utf-8"?>
<!-- Generator: Adobe Illustrator 22.1.0, SVG Export Plug-In . SVG Version: 6.00 Build 0)  -->
<svg version="1.1" id="Layer_1" xmlns="http://www.w3.org/2000/svg" xmlns:xlink="http://www.w3.org/1999/xlink" x="0px" y="0px"
	 viewBox="0 0 150 150" style="enable-background:new 0 0 150 150;" xml:space="preserve">
<style type="text/css">
	.st0{fill:#444444;}
	.st1{fill:#E20613;}
	.st2{fill:#FFFFFF;}
	.st3{opacity:0.3;fill:#1C1742;}
	.st4{fill:#0091D8;}
	.st5{fill:#606060;}
	.st6{fill:#403A60;}
</style>
<g>
	<g id="XMLID_1_">
		<path id="XMLID_33_" class="st0" d="M129.2,70.8v18.8c0,13.1-10.6,23.7-23.7,23.7H40.3c-13.1,0-23.7-10.6-23.7-23.7V70.8
			c0-13.1,10.6-23.7,23.7-23.7h65.2C118.6,47.1,129.2,57.7,129.2,70.8z"/>
		<path id="XMLID_31_" class="st1" d="M107.3,112.1H38.4c-11.4,0-20.6-9.2-20.6-20.6V69c0-11.4,9.2-20.6,20.6-20.6h68.9
			c11.4,0,20.6,9.2,20.6,20.6v22.5C127.9,102.8,118.7,112.1,107.3,112.1z"/>
	</g>
	<g>
		<g>
			<path class="st2" d="M55,110.6h-6.5c-0.3,0-0.5-0.2-0.5-0.5s0.2-0.5,0.5-0.5H55c0.3,0,0.5,0.2,0.5,0.5S55.3,110.6,55,110.6z"/>
		</g>
		<g>
			<path class="st2" d="M55,112.8h-6.5c-0.3,0-0.5-0.2-0.5-0.5s0.2-0.5,0.5-0.5H55c0.3,0,0.5,0.2,0.5,0.5S55.3,112.8,55,112.8z"/>
		</g>
		<g>
			<path class="st2" d="M55,114.9h-6.5c-0.3,0-0.5-0.2-0.5-0.5c0-0.3,0.2-0.5,0.5-0.5H55c0.3,0,0.5,0.2,0.5,0.5
				C55.5,114.7,55.3,114.9,55,114.9z"/>
		</g>
	</g>
	<g>
		<path class="st2" d="M25.8,99.8c-2.1,0-3.8-1.7-3.8-3.8c0-2.1,1.7-3.8,3.8-3.8c2.1,0,3.8,1.7,3.8,3.8
			C29.6,98.1,27.9,99.8,25.8,99.8z M25.8,93.3c-1.5,0-2.7,1.2-2.7,2.7c0,1.5,1.2,2.7,2.7,2.7c1.5,0,2.7-1.2,2.7-2.7
			C28.5,94.5,27.3,93.3,25.8,93.3z"/>
	</g>
	<g>
		<path class="st2" d="M16.1,50.6c0-0.3,0.1-0.6,0.4-0.6l0,0c0.3,0,0.6,0.1,0.6,0.4l0,0c0.1,0.3-0.1,0.6-0.4,0.6l0,0l0,0l0,0
			c0,0-0.1,0-0.1,0l0,0C16.3,51,16.1,50.9,16.1,50.6z M14.1,50.6c-0.3-0.2-0.3-0.5-0.2-0.7l0,0c0.2-0.3,0.5-0.3,0.7-0.2l0,0
			c0.3,0.2,0.3,0.5,0.2,0.7l0,0c-0.1,0.2-0.3,0.3-0.5,0.3l0,0C14.3,50.7,14.2,50.6,14.1,50.6z M18.2,49.8c-0.2-0.2-0.3-0.5-0.1-0.8
			l0,0c0.2-0.2,0.5-0.3,0.8-0.1l0,0c0.2,0.2,0.3,0.5,0.1,0.8l0,0c-0.1,0.1-0.3,0.2-0.4,0.2l0,0C18.4,49.9,18.3,49.9,18.2,49.8z
			 M12.5,48.6c-0.1-0.3,0-0.6,0.3-0.7l0,0c0.3-0.1,0.6,0,0.7,0.3v0c0.1,0.3,0,0.6-0.3,0.7l0,0c-0.1,0-0.1,0-0.2,0l0,0
			C12.8,49,12.6,48.8,12.5,48.6z M18.7,47.3C18.7,47.3,18.7,47.3,18.7,47.3L18.7,47.3C18.7,47.3,18.7,47.3,18.7,47.3L18.7,47.3
			c0-0.3,0.2-0.6,0.5-0.6l0,0c0.3,0,0.5,0.2,0.5,0.5l0,0c0,0,0,0,0,0l0,0c0,0,0,0,0,0l0,0c0,0.3-0.2,0.5-0.5,0.5l0,0
			C19,47.8,18.7,47.6,18.7,47.3z M12.8,46.7c-0.3-0.1-0.4-0.4-0.3-0.7l0,0c0.1-0.3,0.4-0.4,0.7-0.3l0,0c0.3,0.1,0.4,0.4,0.3,0.7l0,0
			c-0.1,0.2-0.3,0.4-0.5,0.4l0,0C12.9,46.8,12.8,46.7,12.8,46.7z M18.1,45.5L18.1,45.5c-0.2-0.2-0.2-0.6,0.1-0.8l0,0
			c0.2-0.2,0.6-0.2,0.8,0.1l0,0c0.2,0.2,0.2,0.6-0.1,0.8l0,0c-0.1,0.1-0.2,0.1-0.4,0.1l0,0C18.3,45.7,18.2,45.7,18.1,45.5z
			 M13.9,44.8c-0.2-0.3-0.1-0.6,0.2-0.7l0,0c0.3-0.2,0.6-0.1,0.7,0.2l0,0c0.2,0.3,0.1,0.6-0.2,0.7l0,0c-0.1,0-0.2,0.1-0.3,0.1l0,0
			C14.2,45,14,45,13.9,44.8z M16.5,44.6c-0.3,0-0.5-0.3-0.4-0.6l0,0c0-0.3,0.3-0.5,0.6-0.4l0,0c0.3,0,0.5,0.3,0.4,0.6l0,0
			C17,44.5,16.8,44.6,16.5,44.6L16.5,44.6C16.5,44.6,16.5,44.6,16.5,44.6z"/>
	</g>
	<g>
		<path class="st2" d="M27.9,113.9c-0.9,0-1.6-0.7-1.6-1.6s0.7-1.6,1.6-1.6c0.9,0,1.6,0.7,1.6,1.6S28.8,113.9,27.9,113.9z
			 M27.9,111.7c-0.3,0-0.5,0.2-0.5,0.5s0.2,0.5,0.5,0.5c0.3,0,0.5-0.2,0.5-0.5S28.2,111.7,27.9,111.7z"/>
	</g>
	<g>
		<path class="st2" d="M67.4,118.7c0-0.3,0.2-0.5,0.5-0.5l0,0c0.3,0,0.5,0.2,0.5,0.5l0,0c0,0.3-0.2,0.5-0.5,0.5l0,0
			C67.7,119.3,67.4,119,67.4,118.7z M65.3,118.7c0-0.3,0.2-0.5,0.5-0.5l0,0c0.3,0,0.5,0.2,0.5,0.5l0,0c0,0.3-0.2,0.5-0.5,0.5l0,0
			C65.5,119.3,65.3,119,65.3,118.7z M63.1,118.7c0-0.3,0.2-0.5,0.5-0.5l0,0c0.3,0,0.5,0.2,0.5,0.5l0,0c0,0.3-0.2,0.5-0.5,0.5l0,0
			C63.3,119.3,63.1,119,63.1,118.7z M60.9,118.7c0-0.3,0.2-0.5,0.5-0.5l0,0c0.3,0,0.5,0.2,0.5,0.5l0,0c0,0.3-0.2,0.5-0.5,0.5l0,0
			C61.2,119.3,60.9,119,60.9,118.7z M58.8,118.7c0-0.3,0.2-0.5,0.5-0.5l0,0c0.3,0,0.5,0.2,0.5,0.5l0,0c0,0.3-0.2,0.5-0.5,0.5l0,0
			C59,119.3,58.8,119,58.8,118.7z M56.6,118.7c0-0.3,0.2-0.5,0.5-0.5l0,0c0.3,0,0.5,0.2,0.5,0.5l0,0c0,0.3-0.2,0.5-0.5,0.5l0,0
			C56.8,119.3,56.6,119,56.6,118.7z M54.4,118.7c0-0.3,0.2-0.5,0.5-0.5l0,0c0.3,0,0.5,0.2,0.5,0.5l0,0c0,0.3-0.2,0.5-0.5,0.5l0,0
			C54.7,119.3,54.4,119,54.4,118.7z M52.3,118.7c0-0.3,0.2-0.5,0.5-0.5l0,0c0.3,0,0.5,0.2,0.5,0.5l0,0c0,0.3-0.2,0.5-0.5,0.5l0,0
			C52.5,119.3,52.3,119,52.3,118.7z M50.1,118.7c0-0.3,0.2-0.5,0.5-0.5l0,0c0.3,0,0.5,0.2,0.5,0.5l0,0c0,0.3-0.2,0.5-0.5,0.5l0,0
			C50.4,119.3,50.1,119,50.1,118.7z M47.9,118.7c0-0.3,0.2-0.5,0.5-0.5l0,0c0.3,0,0.5,0.2,0.5,0.5l0,0c0,0.3-0.2,0.5-0.5,0.5l0,0
			C48.2,119.3,47.9,119,47.9,118.7z M45.8,118.7c0-0.3,0.2-0.5,0.5-0.5l0,0c0.3,0,0.5,0.2,0.5,0.5l0,0c0,0.3-0.2,0.5-0.5,0.5l0,0
			C46,119.3,45.8,119,45.8,118.7z"/>
	</g>
	<g>
		<path class="st2" d="M70.1,121.4h-6.5c-0.3,0-0.5-0.2-0.5-0.5s0.2-0.5,0.5-0.5h6.5c0.3,0,0.5,0.2,0.5,0.5S70.4,121.4,70.1,121.4z"
			/>
	</g>
	<g>
		<path class="st2" d="M31.2,58.7h-4.3c-0.3,0-0.5-0.2-0.5-0.5c0-0.3,0.2-0.5,0.5-0.5h4.3c0.3,0,0.5,0.2,0.5,0.5
			C31.7,58.4,31.5,58.7,31.2,58.7z"/>
	</g>
	<g>
		<path class="st2" d="M13.9,95.5h-2.2c-0.3,0-0.5-0.2-0.5-0.5s0.2-0.5,0.5-0.5h2.2c0.3,0,0.5,0.2,0.5,0.5S14.2,95.5,13.9,95.5z"/>
	</g>
	<g>
		<path class="st2" d="M26.8,60.8h-8.7c-0.3,0-0.5-0.2-0.5-0.5c0-0.3,0.2-0.5,0.5-0.5h8.7c0.3,0,0.5,0.2,0.5,0.5
			C27.4,60.6,27.1,60.8,26.8,60.8z"/>
	</g>
	<g>
		<path class="st2" d="M11.7,73.8H3c-0.3,0-0.5-0.2-0.5-0.5s0.2-0.5,0.5-0.5h8.7c0.3,0,0.5,0.2,0.5,0.5S12,73.8,11.7,73.8z"/>
	</g>
	<g>
		<path class="st2" d="M25.8,41.4c-0.9,0-1.6-0.7-1.6-1.6s0.7-1.6,1.6-1.6c0.9,0,1.6,0.7,1.6,1.6S26.7,41.4,25.8,41.4z M25.8,39.2
			c-0.3,0-0.5,0.2-0.5,0.5s0.2,0.5,0.5,0.5c0.3,0,0.5-0.2,0.5-0.5S26.1,39.2,25.8,39.2z"/>
	</g>
	<g>
		<g>
			<path class="st2" d="M11.7,109.5c-0.3,0-0.5-0.2-0.5-0.5v-2.2c0-0.3,0.2-0.5,0.5-0.5c0.3,0,0.5,0.2,0.5,0.5v2.2
				C12.2,109.3,12,109.5,11.7,109.5z"/>
		</g>
		<g>
			<path class="st2" d="M12.8,108.4h-2.2c-0.3,0-0.5-0.2-0.5-0.5c0-0.3,0.2-0.5,0.5-0.5h2.2c0.3,0,0.5,0.2,0.5,0.5
				C13.3,108.2,13.1,108.4,12.8,108.4z"/>
		</g>
	</g>
	<g>
		<path class="st2" d="M46.3,130.1c-1.5,0-2.7-1.2-2.7-2.7s1.2-2.7,2.7-2.7c1.5,0,2.7,1.2,2.7,2.7S47.8,130.1,46.3,130.1z
			 M46.3,125.8c-0.9,0-1.6,0.7-1.6,1.6c0,0.9,0.7,1.6,1.6,1.6c0.9,0,1.6-0.7,1.6-1.6C47.9,126.5,47.2,125.8,46.3,125.8z"/>
	</g>
	<g>
		<path class="st2" d="M59.8,42.6c-0.3,0-0.5-0.3-0.5-0.6l0,0c0-0.3,0.3-0.5,0.6-0.5l0,0c0.3,0,0.5,0.3,0.5,0.6l0,0
			C60.4,42.4,60.1,42.6,59.8,42.6L59.8,42.6C59.8,42.6,59.8,42.6,59.8,42.6z M61.5,42c0-0.3,0.2-0.6,0.5-0.6l0,0
			c0.3,0,0.6,0.2,0.6,0.5l0,0c0,0.3-0.2,0.6-0.5,0.6l0,0l0,0l0,0c0,0-0.1,0-0.1,0l0,0C61.8,42.5,61.5,42.3,61.5,42z M57.6,42.3
			L57.6,42.3L57.6,42.3c-0.3-0.1-0.5-0.4-0.4-0.7l0,0c0.1-0.3,0.4-0.5,0.7-0.4l0,0c0.3,0.1,0.5,0.4,0.4,0.7l0,0
			c-0.1,0.2-0.3,0.4-0.5,0.4l0,0C57.6,42.3,57.6,42.3,57.6,42.3z M63.7,41.6c-0.1-0.3,0-0.6,0.3-0.7l0,0c0.3-0.1,0.6,0,0.7,0.3l0,0
			c0.1,0.3,0,0.6-0.3,0.7l0,0c-0.1,0-0.1,0-0.2,0l0,0C63.9,41.9,63.7,41.8,63.7,41.6z M55.4,41.5c-0.3-0.1-0.4-0.5-0.2-0.7l0,0
			c0.1-0.3,0.5-0.4,0.7-0.2l0,0c0.3,0.1,0.4,0.5,0.2,0.7l0,0c-0.1,0.2-0.3,0.3-0.5,0.3l0,0C55.6,41.5,55.5,41.5,55.4,41.5z
			 M65.7,40.7c-0.2-0.3-0.1-0.6,0.2-0.7l0,0c0.3-0.2,0.6-0.1,0.7,0.2l0,0c0.2,0.3,0.1,0.6-0.2,0.7l0,0C66.3,41,66.2,41,66.1,41l0,0
			C65.9,41,65.8,40.9,65.7,40.7z M53.5,40.3C53.5,40.3,53.5,40.3,53.5,40.3L53.5,40.3c-0.2-0.2-0.3-0.5-0.1-0.8l0,0
			c0.2-0.2,0.5-0.3,0.8-0.1l0,0c0.2,0.2,0.3,0.5,0.1,0.8l0,0c-0.1,0.1-0.3,0.2-0.4,0.2l0,0C53.7,40.4,53.5,40.3,53.5,40.3z
			 M67.5,39.5c-0.2-0.2-0.2-0.6,0-0.8l0,0c0.2-0.2,0.6-0.2,0.8,0l0,0c0.2,0.2,0.2,0.6,0,0.8l0,0c-0.1,0.1-0.2,0.2-0.4,0.2l0,0
			C67.7,39.6,67.6,39.6,67.5,39.5z M51.8,38.7c-0.2-0.2-0.2-0.6,0.1-0.8l0,0c0.2-0.2,0.6-0.2,0.8,0.1l0,0c0.2,0.2,0.2,0.6-0.1,0.8
			l0,0c-0.1,0.1-0.2,0.1-0.4,0.1l0,0C52,38.9,51.9,38.8,51.8,38.7z M69,37.9c-0.2-0.2-0.3-0.5-0.1-0.8l0,0c0.2-0.2,0.5-0.3,0.8-0.1
			l0,0c0.2,0.2,0.3,0.5,0.1,0.8l0,0c-0.1,0.2-0.3,0.2-0.4,0.2l0,0C69.2,38,69.1,37.9,69,37.9z M50.5,36.8
			C50.5,36.8,50.5,36.8,50.5,36.8L50.5,36.8c-0.1-0.3,0-0.6,0.2-0.7l0,0c0.3-0.1,0.6,0,0.7,0.2l0,0c0.1,0.3,0.1,0.6-0.2,0.7l0,0
			c-0.1,0-0.2,0.1-0.3,0.1l0,0C50.8,37.1,50.6,37,50.5,36.8z M70.1,36c-0.3-0.1-0.4-0.4-0.3-0.7l0,0c0.1-0.3,0.4-0.4,0.7-0.3l0,0
			c0.3,0.1,0.4,0.4,0.3,0.7l0,0c-0.1,0.2-0.3,0.3-0.5,0.3l0,0C70.3,36.1,70.2,36.1,70.1,36z M49.6,34.7c-0.1-0.3,0.1-0.6,0.4-0.7
			l0,0c0.3-0.1,0.6,0.1,0.7,0.4l0,0c0.1,0.3-0.1,0.6-0.4,0.7l0,0c-0.1,0-0.1,0-0.2,0l0,0C49.8,35.1,49.6,34.9,49.6,34.7z M70.9,34
			c-0.3-0.1-0.5-0.3-0.4-0.6l0,0c0.1-0.3,0.3-0.5,0.6-0.4l0,0c0.3,0.1,0.5,0.3,0.4,0.6l0,0c0,0.3-0.3,0.4-0.5,0.4l0,0
			C71,34,70.9,34,70.9,34z M49.1,32.4L49.1,32.4L49.1,32.4c0-0.3,0.2-0.6,0.5-0.6l0,0c0.3,0,0.6,0.2,0.6,0.5l0,0
			c0,0.3-0.2,0.6-0.5,0.6l0,0c0,0,0,0-0.1,0l0,0C49.4,32.9,49.1,32.7,49.1,32.4z M70.7,31.3L70.7,31.3
			C70.7,31.3,70.7,31.3,70.7,31.3L70.7,31.3C70.7,31.2,70.7,31.2,70.7,31.3L70.7,31.3c0-0.3,0.2-0.6,0.5-0.6l0,0
			c0.3,0,0.5,0.2,0.5,0.5l0,0c0,0,0,0,0,0l0,0c0,0,0,0,0,0l0,0c0,0.3-0.2,0.5-0.5,0.5l0,0C70.9,31.8,70.7,31.6,70.7,31.3z
			 M70.7,31.2L70.7,31.2L70.7,31.2L70.7,31.2L70.7,31.2z M49.6,30.7c-0.3,0-0.5-0.3-0.5-0.6l0,0c0-0.3,0.3-0.5,0.6-0.5l0,0
			c0.3,0,0.5,0.3,0.5,0.6l0,0C50.1,30.5,49.9,30.7,49.6,30.7L49.6,30.7C49.6,30.7,49.6,30.7,49.6,30.7z M70.5,29.2
			c-0.1-0.3,0.1-0.6,0.4-0.6l0,0c0.3-0.1,0.6,0.1,0.6,0.4l0,0l0,0l0,0c0.1,0.3-0.1,0.6-0.4,0.6l0,0c0,0-0.1,0-0.1,0l0,0
			C70.7,29.6,70.5,29.4,70.5,29.2z M49.9,28.6c-0.3-0.1-0.4-0.4-0.4-0.7l0,0c0,0,0,0,0,0l0,0c0.1-0.3,0.4-0.4,0.7-0.4l0,0
			c0.3,0.1,0.4,0.4,0.4,0.7l0,0c-0.1,0.2-0.3,0.4-0.5,0.4l0,0C50,28.6,49.9,28.6,49.9,28.6z M69.8,27.2L69.8,27.2
			c-0.1-0.3,0-0.6,0.3-0.7l0,0c0.3-0.1,0.6,0,0.7,0.3l0,0c0.1,0.3,0,0.6-0.3,0.7l0,0c-0.1,0-0.1,0-0.2,0l0,0
			C70.1,27.5,69.9,27.4,69.8,27.2z M50.7,26.5c-0.3-0.1-0.4-0.5-0.2-0.7l0,0c0.1-0.3,0.5-0.4,0.7-0.2l0,0c0.3,0.1,0.4,0.5,0.2,0.7
			l0,0c-0.1,0.2-0.3,0.3-0.5,0.3l0,0C50.8,26.6,50.7,26.5,50.7,26.5z M68.8,25.4c-0.2-0.2-0.1-0.6,0.1-0.8l0,0
			c0.2-0.2,0.6-0.1,0.8,0.1l0,0l0,0l0,0c0.2,0.2,0.1,0.6-0.1,0.8l0,0c-0.1,0.1-0.2,0.1-0.3,0.1l0,0C69.1,25.6,68.9,25.5,68.8,25.4z
			 M51.8,24.6c-0.2-0.2-0.3-0.5-0.1-0.8l0,0c0.2-0.2,0.5-0.3,0.8-0.1l0,0c0.2,0.2,0.3,0.5,0.1,0.8l0,0c-0.1,0.1-0.3,0.2-0.4,0.2l0,0
			C52,24.8,51.9,24.7,51.8,24.6z M67.4,23.8L67.4,23.8c-0.2-0.2-0.2-0.5,0-0.8l0,0c0.2-0.2,0.5-0.2,0.8,0l0,0c0.2,0.2,0.2,0.5,0,0.8
			l0,0c-0.1,0.1-0.2,0.2-0.4,0.2l0,0C67.7,23.9,67.5,23.9,67.4,23.8z M53.3,23.1c-0.2-0.2-0.1-0.6,0.1-0.8l0,0
			c0.2-0.2,0.6-0.1,0.8,0.1l0,0c0.2,0.2,0.1,0.6-0.1,0.8v0c-0.1,0.1-0.2,0.1-0.3,0.1l0,0C53.6,23.3,53.4,23.2,53.3,23.1z M65.8,22.5
			c-0.2-0.2-0.3-0.5-0.2-0.7l0,0c0.2-0.3,0.5-0.3,0.7-0.2l0,0l0,0l0,0c0.3,0.2,0.3,0.5,0.2,0.7l0,0c-0.1,0.2-0.3,0.3-0.5,0.3l0,0
			C66,22.6,65.9,22.6,65.8,22.5z M55.1,21.8c-0.1-0.3,0-0.6,0.2-0.7l0,0c0.3-0.1,0.6,0,0.7,0.2l0,0c0.1,0.3,0,0.6-0.2,0.7l0,0
			c-0.1,0-0.2,0.1-0.2,0.1l0,0C55.4,22.1,55.2,22,55.1,21.8z M63.9,21.6c-0.3-0.1-0.4-0.4-0.3-0.7l0,0c0.1-0.3,0.4-0.4,0.7-0.3l0,0
			c0.3,0.1,0.4,0.4,0.3,0.7l0,0c-0.1,0.2-0.3,0.4-0.5,0.4l0,0C64.1,21.6,64,21.6,63.9,21.6z M57.1,20.9c-0.1-0.3,0.1-0.6,0.4-0.7
			l0,0c0.3-0.1,0.6,0.1,0.7,0.4l0,0c0.1,0.3-0.1,0.6-0.4,0.7v0c0,0-0.1,0-0.1,0l0,0C57.4,21.3,57.2,21.2,57.1,20.9z M61.9,21.1
			c-0.3,0-0.5-0.3-0.5-0.6l0,0c0-0.3,0.3-0.5,0.6-0.5l0,0l0,0l0,0c0.3,0,0.5,0.3,0.5,0.6l0,0C62.5,20.9,62.3,21.1,61.9,21.1
			L61.9,21.1C62,21.1,61.9,21.1,61.9,21.1z M59.3,20.5c0-0.3,0.2-0.6,0.5-0.6l0,0l0,0l0,0c0.3,0,0.6,0.2,0.6,0.5l0,0
			c0,0.3-0.2,0.6-0.5,0.6l0,0c0,0,0,0,0,0l0,0C59.5,21,59.3,20.8,59.3,20.5z"/>
	</g>
	<g>
		<path class="st2" d="M117.7,59.9c-0.9,0-1.6-0.7-1.6-1.6c0-0.9,0.7-1.6,1.6-1.6c0.9,0,1.6,0.7,1.6,1.6
			C119.4,59.2,118.6,59.9,117.7,59.9z M117.7,57.8c-0.3,0-0.5,0.2-0.5,0.5c0,0.3,0.2,0.5,0.5,0.5c0.3,0,0.5-0.2,0.5-0.5
			C118.3,58,118,57.8,117.7,57.8z"/>
	</g>
	<g>
		<path class="st2" d="M73.9,42.6c-1.2,0-2.2-1-2.2-2.2s1-2.2,2.2-2.2c1.2,0,2.2,1,2.2,2.2S75.1,42.6,73.9,42.6z M73.9,39.4
			c-0.6,0-1.1,0.5-1.1,1.1c0,0.6,0.5,1.1,1.1,1.1s1.1-0.5,1.1-1.1C75,39.9,74.5,39.4,73.9,39.4z"/>
	</g>
	<g>
		<path class="st2" d="M140.5,92.4c-2.1,0-3.8-1.7-3.8-3.8s1.7-3.8,3.8-3.8s3.8,1.7,3.8,3.8S142.6,92.4,140.5,92.4z M140.5,85.9
			c-1.5,0-2.7,1.2-2.7,2.7c0,1.5,1.2,2.7,2.7,2.7c1.5,0,2.7-1.2,2.7-2.7C143.2,87.1,142,85.9,140.5,85.9z"/>
	</g>
	<g>
		<g>
			<path class="st2" d="M127.5,111.9c-0.1,0-0.3-0.1-0.4-0.2c-0.1-0.1-0.2-0.2-0.2-0.4s0.1-0.3,0.2-0.4c0.2-0.2,0.6-0.2,0.8,0
				c0.1,0.1,0.2,0.2,0.2,0.4s-0.1,0.3-0.2,0.4C127.8,111.8,127.6,111.9,127.5,111.9z"/>
		</g>
		<g>
			<path class="st2" d="M144.3,111.3c0-0.3,0.2-0.5,0.5-0.5l0,0c0.3,0,0.5,0.2,0.5,0.5l0,0c0,0.3-0.2,0.5-0.5,0.5l0,0
				C144.5,111.9,144.3,111.6,144.3,111.3z M142.1,111.3c0-0.3,0.2-0.5,0.5-0.5l0,0c0.3,0,0.5,0.2,0.5,0.5l0,0c0,0.3-0.2,0.5-0.5,0.5
				l0,0C142.3,111.9,142.1,111.6,142.1,111.3z M139.9,111.3c0-0.3,0.2-0.5,0.5-0.5l0,0c0.3,0,0.5,0.2,0.5,0.5l0,0
				c0,0.3-0.2,0.5-0.5,0.5l0,0C140.2,111.9,139.9,111.6,139.9,111.3z M137.8,111.3c0-0.3,0.2-0.5,0.5-0.5l0,0c0.3,0,0.5,0.2,0.5,0.5
				l0,0c0,0.3-0.2,0.5-0.5,0.5l0,0C138,111.9,137.8,111.6,137.8,111.3z M135.6,111.3c0-0.3,0.2-0.5,0.5-0.5l0,0
				c0.3,0,0.5,0.2,0.5,0.5l0,0c0,0.3-0.2,0.5-0.5,0.5l0,0C135.8,111.9,135.6,111.6,135.6,111.3z M133.4,111.3c0-0.3,0.2-0.5,0.5-0.5
				l0,0c0.3,0,0.5,0.2,0.5,0.5l0,0c0,0.3-0.2,0.5-0.5,0.5l0,0C133.7,111.9,133.4,111.6,133.4,111.3z M131.3,111.3
				c0-0.3,0.2-0.5,0.5-0.5l0,0c0.3,0,0.5,0.2,0.5,0.5l0,0c0,0.3-0.2,0.5-0.5,0.5l0,0C131.5,111.9,131.3,111.6,131.3,111.3z
				 M129.1,111.3c0-0.3,0.2-0.5,0.5-0.5l0,0c0.3,0,0.5,0.2,0.5,0.5l0,0c0,0.3-0.2,0.5-0.5,0.5l0,0
				C129.3,111.9,129.1,111.6,129.1,111.3z"/>
		</g>
		<g>
			<path class="st2" d="M147,111.9c-0.1,0-0.3-0.1-0.4-0.2c-0.1-0.1-0.2-0.2-0.2-0.4c0-0.1,0.1-0.3,0.2-0.4c0.2-0.2,0.6-0.2,0.8,0
				c0.1,0.1,0.2,0.2,0.2,0.4c0,0.1-0.1,0.3-0.2,0.4C147.2,111.8,147.1,111.9,147,111.9z"/>
		</g>
	</g>
	<g>
		<path class="st2" d="M90.7,34H82c-0.3,0-0.5-0.2-0.5-0.5c0-0.3,0.2-0.5,0.5-0.5h8.7c0.3,0,0.5,0.2,0.5,0.5
			C91.2,33.7,91,34,90.7,34z"/>
	</g>
	<g>
		<path class="st2" d="M133.4,61.6c0-0.3,0.2-0.5,0.5-0.5l0,0c0.3,0,0.5,0.2,0.5,0.5l0,0c0,0.3-0.2,0.5-0.5,0.5l0,0
			C133.7,62.1,133.4,61.9,133.4,61.6z M131.3,61.6c0-0.3,0.2-0.5,0.5-0.5l0,0c0.3,0,0.5,0.2,0.5,0.5l0,0c0,0.3-0.2,0.5-0.5,0.5l0,0
			C131.5,62.1,131.3,61.9,131.3,61.6z M129.1,61.6c0-0.3,0.2-0.5,0.5-0.5l0,0c0.3,0,0.5,0.2,0.5,0.5l0,0c0,0.3-0.2,0.5-0.5,0.5l0,0
			C129.3,62.1,129.1,61.9,129.1,61.6z M126.9,61.6c0-0.3,0.2-0.5,0.5-0.5l0,0c0.3,0,0.5,0.2,0.5,0.5l0,0c0,0.3-0.2,0.5-0.5,0.5l0,0
			C127.2,62.1,126.9,61.9,126.9,61.6z"/>
	</g>
	<g>
		<path class="st2" d="M126.4,45.9h-2.2c-0.3,0-0.5-0.2-0.5-0.5s0.2-0.5,0.5-0.5h2.2c0.3,0,0.5,0.2,0.5,0.5S126.7,45.9,126.4,45.9z"
			/>
	</g>
	<g id="XMLID_967_">
		<path id="XMLID_1872_" class="st3" d="M47.7,99.6h15.2h37c1.2,0,2.1-1,2.1-2.1V65.9v-2.5c0-1.2-1-2.1-2.1-2.1H47.7
			c-1.2,0-2.1,1-2.1,2.1v2.5v31.5C45.6,98.6,46.5,99.6,47.7,99.6z"/>
		<g id="XMLID_374_">
			<path id="XMLID_213_" class="st4" d="M100.2,61.2c0-1.2-1-2.1-2.1-2.1H45.9c-1.2,0-2.1,1-2.1,2.1v2.5h56.4V61.2z"/>
			<path id="XMLID_205_" class="st2" d="M46,61.4c0-0.5,0.4-0.9,0.9-0.9s0.9,0.4,0.9,0.9c0,0.5-0.4,0.9-0.9,0.9S46,61.9,46,61.4z"/>
			<path id="XMLID_204_" class="st2" d="M48.7,61.4c0-0.5,0.4-0.9,0.9-0.9c0.5,0,0.9,0.4,0.9,0.9c0,0.5-0.4,0.9-0.9,0.9
				C49.1,62.3,48.7,61.9,48.7,61.4z"/>
			<path id="XMLID_201_" class="st2" d="M51.4,61.4c0-0.5,0.4-0.9,0.9-0.9c0.5,0,0.9,0.4,0.9,0.9c0,0.5-0.4,0.9-0.9,0.9
				C51.8,62.3,51.4,61.9,51.4,61.4z"/>
			<path id="XMLID_217_" class="st2" d="M43.8,63.7v31.5c0,1.2,1,2.1,2.1,2.1h15.2V63.7H43.8z"/>
			<path id="XMLID_218_" class="st5" d="M61.1,63.7v33.6h37c1.2,0,2.1-1,2.1-2.1V63.7H61.1z"/>
			<g id="XMLID_216_">
				<circle id="XMLID_198_" class="st4" cx="69.3" cy="69.8" r="1.7"/>
				<path id="XMLID_206_" class="st1" d="M80.1,70.3h-5.9c-0.3,0-0.5-0.2-0.5-0.5l0,0c0-0.3,0.2-0.5,0.5-0.5h5.9
					c0.3,0,0.5,0.2,0.5,0.5l0,0C80.6,70.1,80.4,70.3,80.1,70.3z"/>
				<path id="XMLID_214_" class="st2" d="M83,70.3h-0.9c-0.3,0-0.5-0.2-0.5-0.5l0,0c0-0.3,0.2-0.5,0.5-0.5H83c0.3,0,0.5,0.2,0.5,0.5
					l0,0C83.6,70.1,83.3,70.3,83,70.3z"/>
				<path id="XMLID_215_" class="st1" d="M92.1,70.3h-5.6c-0.3,0-0.5-0.2-0.5-0.5l0,0c0-0.3,0.2-0.5,0.5-0.5h5.6
					c0.3,0,0.5,0.2,0.5,0.5l0,0C92.7,70.1,92.4,70.3,92.1,70.3z"/>
			</g>
			<g id="XMLID_220_">
				<circle id="XMLID_224_" class="st4" cx="69.3" cy="79.5" r="1.7"/>
				<path id="XMLID_223_" class="st1" d="M86.3,78.9h5.9c0.3,0,0.5,0.2,0.5,0.5l0,0c0,0.3-0.2,0.5-0.5,0.5h-5.9
					c-0.3,0-0.5-0.2-0.5-0.5l0,0C85.7,79.1,85.9,78.9,86.3,78.9z"/>
				<path id="XMLID_222_" class="st1" d="M83.3,78.9h0.9c0.3,0,0.5,0.2,0.5,0.5l0,0c0,0.3-0.2,0.5-0.5,0.5h-0.9
					c-0.3,0-0.5-0.2-0.5-0.5l0,0C82.8,79.1,83,78.9,83.3,78.9z"/>
				<path id="XMLID_221_" class="st2" d="M74.2,78.9h5.6c0.3,0,0.5,0.2,0.5,0.5l0,0c0,0.3-0.2,0.5-0.5,0.5h-5.6
					c-0.3,0-0.5-0.2-0.5-0.5l0,0C73.7,79.1,73.9,78.9,74.2,78.9z"/>
			</g>
			<g id="XMLID_225_">
				<circle id="XMLID_229_" class="st4" cx="69.3" cy="89.1" r="1.7"/>
				<path id="XMLID_228_" class="st1" d="M80.1,89.6h-5.9c-0.3,0-0.5-0.2-0.5-0.5l0,0c0-0.3,0.2-0.5,0.5-0.5h5.9
					c0.3,0,0.5,0.2,0.5,0.5l0,0C80.6,89.4,80.4,89.6,80.1,89.6z"/>
				<path id="XMLID_227_" class="st1" d="M83,89.6h-0.9c-0.3,0-0.5-0.2-0.5-0.5l0,0c0-0.3,0.2-0.5,0.5-0.5H83c0.3,0,0.5,0.2,0.5,0.5
					l0,0C83.6,89.4,83.3,89.6,83,89.6z"/>
				<path id="XMLID_226_" class="st2" d="M92.1,89.6h-5.6c-0.3,0-0.5-0.2-0.5-0.5l0,0c0-0.3,0.2-0.5,0.5-0.5h5.6
					c0.3,0,0.5,0.2,0.5,0.5l0,0C92.7,89.4,92.4,89.6,92.1,89.6z"/>
			</g>
			<path id="XMLID_219_" class="st6" d="M51.9,67.9h-4.5c-0.2,0-0.4-0.2-0.4-0.4l0,0c0-0.2,0.2-0.4,0.4-0.4h4.5
				c0.2,0,0.4,0.2,0.4,0.4l0,0C52.3,67.7,52.1,67.9,51.9,67.9z"/>
			<path id="XMLID_230_" class="st6" d="M55.4,67.9h-1.2c-0.2,0-0.4-0.2-0.4-0.4l0,0c0-0.2,0.2-0.4,0.4-0.4h1.2
				c0.2,0,0.4,0.2,0.4,0.4l0,0C55.8,67.7,55.6,67.9,55.4,67.9z"/>
			<path id="XMLID_231_" class="st6" d="M57.9,67.9h-0.3c-0.2,0-0.4-0.2-0.4-0.4l0,0c0-0.2,0.2-0.4,0.4-0.4h0.3
				c0.2,0,0.4,0.2,0.4,0.4l0,0C58.3,67.7,58.1,67.9,57.9,67.9z"/>
			<path id="XMLID_235_" class="st6" d="M49.2,70.6h-1.8c-0.2,0-0.4-0.2-0.4-0.4l0,0c0-0.2,0.2-0.4,0.4-0.4h1.8
				c0.2,0,0.4,0.2,0.4,0.4l0,0C49.7,70.4,49.5,70.6,49.2,70.6z"/>
			<path id="XMLID_234_" class="st6" d="M54.3,70.6h-3c-0.2,0-0.4-0.2-0.4-0.4l0,0c0-0.2,0.2-0.4,0.4-0.4h3c0.2,0,0.4,0.2,0.4,0.4
				l0,0C54.7,70.4,54.5,70.6,54.3,70.6z"/>
			<path id="XMLID_233_" class="st6" d="M57.9,70.6h-1.7c-0.2,0-0.4-0.2-0.4-0.4l0,0c0-0.2,0.2-0.4,0.4-0.4h1.7
				c0.2,0,0.4,0.2,0.4,0.4l0,0C58.3,70.4,58.1,70.6,57.9,70.6z"/>
			<path id="XMLID_247_" class="st6" d="M51.9,87.6h-4.5c-0.2,0-0.4-0.2-0.4-0.4l0,0c0-0.2,0.2-0.4,0.4-0.4h4.5
				c0.2,0,0.4,0.2,0.4,0.4l0,0C52.3,87.4,52.1,87.6,51.9,87.6z"/>
			<path id="XMLID_246_" class="st6" d="M55.4,87.6h-1.2c-0.2,0-0.4-0.2-0.4-0.4l0,0c0-0.2,0.2-0.4,0.4-0.4h1.2
				c0.2,0,0.4,0.2,0.4,0.4l0,0C55.8,87.4,55.6,87.6,55.4,87.6z"/>
			<path id="XMLID_245_" class="st6" d="M57.9,87.6h-0.3c-0.2,0-0.4-0.2-0.4-0.4l0,0c0-0.2,0.2-0.4,0.4-0.4h0.3
				c0.2,0,0.4,0.2,0.4,0.4l0,0C58.3,87.4,58.1,87.6,57.9,87.6z"/>
			<path id="XMLID_244_" class="st6" d="M49.2,90.3h-1.8c-0.2,0-0.4-0.2-0.4-0.4l0,0c0-0.2,0.2-0.4,0.4-0.4h1.8
				c0.2,0,0.4,0.2,0.4,0.4l0,0C49.7,90.1,49.5,90.3,49.2,90.3z"/>
			<path id="XMLID_243_" class="st6" d="M54.3,90.3h-3c-0.2,0-0.4-0.2-0.4-0.4l0,0c0-0.2,0.2-0.4,0.4-0.4h3c0.2,0,0.4,0.2,0.4,0.4
				l0,0C54.7,90.1,54.5,90.3,54.3,90.3z"/>
			<path id="XMLID_242_" class="st6" d="M57.9,90.3h-1.7c-0.2,0-0.4-0.2-0.4-0.4l0,0c0-0.2,0.2-0.4,0.4-0.4h1.7
				c0.2,0,0.4,0.2,0.4,0.4l0,0C58.3,90.1,58.1,90.3,57.9,90.3z"/>
			<path id="XMLID_238_" class="st6" d="M51.9,74.3h-2.1c-0.2,0-0.4-0.2-0.4-0.4l0,0c0-0.2,0.2-0.4,0.4-0.4h2.1
				c0.2,0,0.4,0.2,0.4,0.4l0,0C52.3,74.1,52.1,74.3,51.9,74.3z"/>
			<path id="XMLID_237_" class="st6" d="M55.8,74.3h-1.7c-0.2,0-0.4-0.2-0.4-0.4l0,0c0-0.2,0.2-0.4,0.4-0.4h1.7
				c0.2,0,0.4,0.2,0.4,0.4l0,0C56.3,74.1,56.1,74.3,55.8,74.3z"/>
			<path id="XMLID_236_" class="st6" d="M57.9,74.3h-0.3c-0.2,0-0.4-0.2-0.4-0.4l0,0c0-0.2,0.2-0.4,0.4-0.4h0.3
				c0.2,0,0.4,0.2,0.4,0.4l0,0C58.3,74.1,58.1,74.3,57.9,74.3z"/>
			<path id="XMLID_241_" class="st6" d="M49.8,76.7h-2.4c-0.2,0-0.4-0.2-0.4-0.4l0,0c0-0.2,0.2-0.4,0.4-0.4h2.4
				c0.2,0,0.4,0.2,0.4,0.4l0,0C50.3,76.5,50.1,76.7,49.8,76.7z"/>
			<path id="XMLID_240_" class="st6" d="M55.4,76.7h-3.6c-0.2,0-0.4-0.2-0.4-0.4l0,0c0-0.2,0.2-0.4,0.4-0.4h3.6
				c0.2,0,0.4,0.2,0.4,0.4l0,0C55.8,76.5,55.6,76.7,55.4,76.7z"/>
			<path id="XMLID_239_" class="st6" d="M57.9,76.7h-0.3c-0.2,0-0.4-0.2-0.4-0.4l0,0c0-0.2,0.2-0.4,0.4-0.4h0.3
				c0.2,0,0.4,0.2,0.4,0.4l0,0C58.3,76.5,58.1,76.7,57.9,76.7z"/>
		</g>
	</g>
</g>
</svg>
