<?xml version="1.0" encoding="utf-8"?>
<!-- Generator: Adobe Illustrator 22.1.0, SVG Export Plug-In . SVG Version: 6.00 Build 0)  -->
<svg version="1.1" id="Layer_1" xmlns="http://www.w3.org/2000/svg" xmlns:xlink="http://www.w3.org/1999/xlink" x="0px" y="0px"
	 viewBox="0 0 150 150" style="enable-background:new 0 0 150 150;" xml:space="preserve">
<style type="text/css">
	.st0{fill:#FFFFFF;}
	.st1{fill:#0091D8;}
	.st2{fill:#E20613;}
</style>
<g>
	<path class="st0" d="M-22.3,49.4c4.4-0.6,8.7-1.1,13.1-1.7c1.1-0.1,2.1-0.5,3.2-0.5c2.2,0.1,3-1.1,3.9-2.9
		c2.3-4.8,4.7-9.5,7.2-14.5c1.2,2.5,2.3,4.8,3.4,7c1.6,3.3,3.1,6.6,4.8,9.9c0.6,1.2,0.3,1.5-0.8,2C10,49.9,10,50,8.7,47.4
		c-1.2-2.4-2.3-4.9-3.6-7.7c-1.5,3-3,5.7-4.1,8.5c-0.9,2.2-2.1,3-4.4,3.2c-3,0.2-6,0.8-8.7,1.2c2.1,2.3,4.1,4.8,6.5,6.9
		c1.6,1.4,1.9,2.8,1.5,4.8c-0.7,2.9-1.1,5.9-1.7,9.3c3-1.6,5.7-3,8.5-4.3c0.8-0.4,1.7-1.2,2.1,0.4C5,70.7,7,71.8,4.6,72.9
		c-5.1,2.6-10.1,5.4-15.2,8.2c-0.3,0.2-0.7,0.3-1.3,0.6c0.7-3.8,1.3-7.4,1.9-11c0.2-1.2,0.3-2.4,0.7-3.5c1.1-3.1,0.1-5.2-2.4-7.3
		c-3.7-3.2-7.1-6.7-10.6-10.1C-22.3,49.7-22.3,49.6-22.3,49.4z"/>
	<path class="st0" d="M172.3,49.8c-4.3,4.2-8.7,8.4-13,12.6c-0.4,0.4-0.6,1.2-0.5,1.8c0.9,5.7,2,11.4,3,17.4
		c-0.7-0.3-1.1-0.4-1.5-0.6c-5-2.7-9.9-5.5-15-8.1c-2.3-1.2-0.4-2.2-0.1-3.3c0.4-1.6,1.3-0.8,2.1-0.4c2.7,1.4,5.4,2.8,8.4,4.3
		c-0.5-3.2-0.8-6.2-1.6-9c-0.6-2.3-0.1-3.8,1.7-5.4c2.3-2,4.2-4.4,6.3-6.6c-2.7-0.4-5.7-1-8.6-1.3c-2.3-0.2-3.7-0.9-4.6-3.2
		c-1.1-2.8-2.6-5.4-4.1-8.5c-1.5,3.1-2.9,5.9-4.1,8.7c-0.6,1.3-1.1,1.6-2.3,0.8c-0.4-0.3-0.9-0.5-1.4-0.6c-0.8-0.3-1-0.6-0.6-1.5
		c2.8-5.6,5.5-11.2,8.3-17.1c0.3,0.5,0.6,0.9,0.8,1.3c2.3,4.8,4.6,9.6,6.9,14.3c0.3,0.6,1,1.3,1.5,1.4c5.9,0.9,11.8,1.7,17.6,2.5
		c0.2,0,0.3-0.1,0.5-0.1C172.3,49.6,172.3,49.7,172.3,49.8z"/>
	<path class="st1" d="M29.8,67c8.7-1.2,17.1-2.4,25.6-3.5c5.5-0.7,5.5-0.6,8-5.6c3.5-7.1,7-14.3,10.5-21.4c0.3-0.7,0.7-1.3,1.2-2.3
		c2.4,4.8,4.6,9.4,6.8,13.9c2.1,4.3,4.2,8.5,6.2,12.8c0.6,1.3,1.3,1.9,2.8,2.1c8.7,1.1,17.3,2.3,25.9,3.5c1.1,0.1,2.1,0.3,3.4,0.5
		c-0.5,0.6-0.9,1-1.4,1.4c-6.7,6.4-13.4,12.9-20.1,19.3c-0.8,0.8-1.1,1.4-0.9,2.6c1.7,9.1,3.2,18.3,4.8,27.4
		c0.1,0.7,0.2,1.3,0.3,2.3c-2.2-1.2-4.2-2.2-6.1-3.2c-6.8-3.6-13.6-7.2-20.4-10.9c-1-0.5-1.7-0.6-2.7,0c-8.2,4.4-16.4,8.7-24.6,13.1
		c-0.5,0.3-1.1,0.6-2,1c0.7-3.9,1.3-7.5,1.9-11c1.1-6.2,2.1-12.5,3.3-18.7c0.2-1.1,0-1.8-0.9-2.6c-6.7-6.4-13.4-12.9-20.2-19.3
		C30.8,68,30.4,67.6,29.8,67z M75,44.2c-0.4,0.8-0.7,1.3-0.9,1.8c-3.1,6.4-6.2,12.8-9.4,19.2c-0.3,0.7-1.1,1.4-1.8,1.5
		c-2,0.4-4.1,0.6-6.2,0.9c-5.7,0.8-11.5,1.5-17.5,2.4c0.7,0.6,1.1,1.1,1.6,1.5c5.1,4.9,10.2,9.9,15.3,14.8c0.8,0.7,1.1,1.3,0.8,2.5
		c-0.8,4.2-1.5,8.3-2.2,12.5c-0.6,3.5-1.2,6.9-1.8,10.7c7.1-3.8,13.9-7.4,20.7-11.1c1.1-0.6,1.9-0.6,2.9,0c6.3,3.4,12.7,6.8,19,10.2
		c0.5,0.2,0.9,0.5,1.6,0.8c-0.1-0.7-0.2-1.2-0.2-1.7c-1.2-7.1-2.4-14.2-3.7-21.3c-0.2-1.2,0.1-1.8,0.9-2.6
		c5.2-4.9,10.3-9.9,15.4-14.9c0.4-0.4,0.7-0.8,1.2-1.3c-7.8-1.1-15.4-2.1-23-3.1c-1.3-0.2-2-0.6-2.5-1.8
		C81.9,58.3,78.5,51.4,75,44.2z"/>
	<path class="st2" d="M37,34.2c3.6,7.2,6.9,14,10.4,20.7c0.7,1.4-0.2,1.6-1,2c-2.5,1.3-2.4,1.3-3.6-1.1c-1.9-3.8-3.7-7.7-5.8-11.8
		c-2.2,4.6-4.3,8.8-6.2,13c-0.7,1.5-1.5,2.3-3.3,2.5c-4.7,0.5-9.4,1.3-14.4,2.1c2.3,2.2,4.3,4.1,6.3,6.1c1.3,1.3,2.6,2.7,4,3.7
		c1.6,1.2,1.7,2.5,1.3,4.2c-0.9,4.6-1.7,9.3-2.6,14.2c4.4-2.3,8.5-4.4,12.6-6.6c1-0.6,1.6-0.5,2.1,0.6c0.2,0.6,0.7,1.1,0.9,1.7
		c0.1,0.3-0.1,1-0.3,1.1c-6.9,3.7-13.8,7.3-21.1,11.2c0.6-3.5,1.2-6.7,1.8-9.9c0.7-3.8,1.4-7.6,2.1-11.4c0.3-1.3,0-2.2-1-3.1
		C14.6,68.9,9.9,64.4,5.2,60c-0.5-0.4-1-0.8-1.9-1.5c3.9-0.6,7.1-1,10.3-1.5c3.9-0.6,7.9-1.2,11.8-1.6c1.2-0.1,1.8-0.8,2.3-1.8
		c2.8-5.9,5.6-11.8,8.5-17.8C36.4,35.4,36.6,34.9,37,34.2z"/>
	<path class="st2" d="M127.8,89.7c-0.9-5.2-1.8-10.2-2.8-15.2c-0.2-1.1,0.1-1.7,0.8-2.4c3.6-3.4,7.1-6.8,11-10.5
		c-2.6-0.4-4.9-0.7-7.1-1.1c-2.8-0.4-5.6-0.7-8.4-1.3c-0.6-0.1-1.4-0.8-1.7-1.5c-2.2-4.5-4.3-9-6.6-13.7c-0.3,0.5-0.6,0.9-0.8,1.3
		c-1.9,3.8-3.8,7.7-5.6,11.6c-0.4,0.9-0.7,1.2-1.7,0.6c-2.8-1.5-2.8-1.5-1.4-4.3c3.1-6.3,6.2-12.5,9.5-19c0.3,0.6,0.6,0.9,0.8,1.4
		c2.8,5.9,5.7,11.8,8.4,17.8c0.6,1.3,1.4,1.8,2.8,2c6.6,0.9,13.3,1.8,19.9,2.8c0.4,0.1,0.7,0.1,1.4,0.3c-0.5,0.5-0.8,0.9-1.2,1.3
		c-4.9,4.6-9.8,9.2-14.6,13.9c-0.5,0.5-0.8,1.5-0.7,2.2c1.1,6.7,2.4,13.3,3.6,20c0.1,0.5,0.1,1,0.2,1.8c-0.8-0.4-1.3-0.7-1.8-0.9
		c-6.1-3.2-12.3-6.5-18.4-9.7c-1.4-0.7-1.5-1.4-0.6-2.5c0.2-0.3,0.5-0.6,0.6-1c0.4-1.1,1-1,1.8-0.5c3.9,2.1,7.8,4.1,11.7,6.2
		C127.1,89.4,127.4,89.5,127.8,89.7z"/>
</g>
</svg>
