<?xml version="1.0" encoding="utf-8"?>
<!-- Generator: Adobe Illustrator 22.1.0, SVG Export Plug-In . SVG Version: 6.00 Build 0)  -->
<svg version="1.1" id="Layer_1" xmlns="http://www.w3.org/2000/svg" xmlns:xlink="http://www.w3.org/1999/xlink" x="0px" y="0px"
	 viewBox="0 0 150 150" style="enable-background:new 0 0 150 150;" xml:space="preserve">
<style type="text/css">
	.st0{fill:#444444;}
	.st1{fill:#BFBFBF;}
	.st2{opacity:0.3;fill:#FFFFFF;}
	.st3{opacity:0.3;fill:#1C1742;}
	.st4{fill:#FFFFFF;}
	.st5{fill:#606060;}
	.st6{fill:url(#XMLID_11_);}
	.st7{fill:#E20613;}
	.st8{fill:#0091D8;}
	.st9{fill:#403A60;}
</style>
<g>
	<g id="XMLID_369_">
		<path id="XMLID_151_" class="st0" d="M140,67.9v26.3c0,13.1-10.6,23.7-23.7,23.7H38.4c-13.1,0-23.7-10.6-23.7-23.7V67.9
			c0-13.1,10.6-23.7,23.7-23.7h77.9C129.4,44.2,140,54.8,140,67.9z"/>
		<path id="XMLID_314_" class="st1" d="M118,116.5H36.7c-11.4,0-20.6-9.2-20.6-20.6V66.2c0-11.4,9.2-20.6,20.6-20.6H118
			c11.4,0,20.6,9.2,20.6,20.6v29.7C138.6,107.3,129.3,116.5,118,116.5z"/>
		<path id="XMLID_380_" class="st2" d="M16.9,55v14.3l46.4,46.4h30L24,46.5C19.9,47.3,16.9,50.8,16.9,55z"/>
		<path id="XMLID_377_" class="st2" d="M60.5,46.4H37.7l69.4,69.4h22.1c0.2,0,0.5,0,0.7,0L60.5,46.4z"/>
		<path id="XMLID_383_" class="st2" d="M72.1,46.4l64.7,64.7c0.6-1.2,1-2.6,1-4v-5.4L82.6,46.4H72.1z"/>
	</g>
	<g>
		<g id="XMLID_855_">
			<path id="XMLID_1823_" class="st3" d="M93.4,104.9V87.8c0-0.7-0.6-1.3-1.3-1.3H68c-0.7,0-1.3,0.6-1.3,1.3v17.1
				c0,0.7,0.6,1.3,1.3,1.3h24.1C92.8,106.2,93.4,105.6,93.4,104.9z"/>
			<g id="XMLID_956_">
				<path id="XMLID_59_" class="st4" d="M88.9,104.8H68.7c-1.8,0-3.2-1.4-3.2-3.2V88.3c0-1.8,1.4-3.2,3.2-3.2h20.2
					c1.8,0,3.2,1.4,3.2,3.2v13.2C92.2,103.3,90.7,104.8,88.9,104.8z"/>
				
					<rect id="XMLID_65_" x="71.1" y="83.7" transform="matrix(-1.836970e-16 1 -1 -1.836970e-16 173.7783 16.1037)" class="st5" width="15.6" height="22.6"/>
				<radialGradient id="XMLID_11_" cx="76.8675" cy="97.1155" r="7.6845" gradientUnits="userSpaceOnUse">
					<stop  offset="0" style="stop-color:#AD0B32"/>
					<stop  offset="1" style="stop-color:#940B32"/>
				</radialGradient>
				<polygon id="XMLID_64_" class="st6" points="67.6,98.8 74.9,91.5 86.2,102.7 67.6,102.7 				"/>
				<polygon id="XMLID_51_" class="st7" points="79.5,96.1 82.8,92.9 90.1,100.1 90.1,102.7 86.2,102.7 				"/>
				<circle id="XMLID_66_" class="st8" cx="86.2" cy="90.4" r="2.1"/>
			</g>
		</g>
		<g id="XMLID_412_">
			<polygon id="XMLID_1866_" class="st3" points="64.5,111.5 67.7,108.2 69.6,110.1 72.1,101.9 63.9,104.4 65.7,106.2 62.5,109.5 
							"/>
			<polygon id="XMLID_166_" class="st4" points="70.9,100.4 62.7,103 64.6,104.8 61.3,108 63.3,110 66.5,106.8 68.4,108.6 			"/>
		</g>
	</g>
	<g id="XMLID_411_">
		<path id="XMLID_1867_" class="st3" d="M31.2,73.7c0-2.8-2.3-5.1-5.1-5.1H9.4c-2.8,0-5.1,2.3-5.1,5.1l0,0c0,2.8,2.3,5.1,5.1,5.1
			h16.7C29,78.8,31.2,76.5,31.2,73.7L31.2,73.7z"/>
		<path id="XMLID_1868_" class="st3" d="M31.2,86.2c0-2.8-2.3-5.1-5.1-5.1H9.4c-2.8,0-5.1,2.3-5.1,5.1c0,2.8,2.3,5.1,5.1,5.1h16.7
			C29,91.3,31.2,89,31.2,86.2z"/>
		<g id="XMLID_960_">
			<path id="XMLID_162_" class="st4" d="M24.3,76.6H7.6c-2.8,0-5.1-2.3-5.1-5.1l0,0c0-2.8,2.3-5.1,5.1-5.1h16.7
				c2.8,0,5.1,2.3,5.1,5.1l0,0C29.4,74.3,27.1,76.6,24.3,76.6z"/>
			<circle id="XMLID_164_" class="st8" cx="7.8" cy="71.5" r="3.5"/>
			<path id="XMLID_169_" class="st4" d="M24.3,89.1H7.6c-2.8,0-5.1-2.3-5.1-5.1v0c0-2.8,2.3-5.1,5.1-5.1h16.7c2.8,0,5.1,2.3,5.1,5.1
				v0C29.4,86.8,27.1,89.1,24.3,89.1z"/>
			<path id="XMLID_168_" class="st7" d="M20.4,84c0-1.9,1.6-3.5,3.5-3.5c1.9,0,3.5,1.6,3.5,3.5c0,1.9-1.6,3.5-3.5,3.5
				C22,87.5,20.4,85.9,20.4,84z"/>
		</g>
	</g>
	<g id="XMLID_970_">
		<path id="XMLID_1870_" class="st3" d="M136.6,101.7c-6,0-10.9,4.9-10.9,10.9c0,6,4.9,10.9,10.9,10.9c6,0,10.9-4.9,10.9-10.9
			C147.5,106.6,142.6,101.7,136.6,101.7z"/>
		<g id="XMLID_387_">
			
				<ellipse id="XMLID_184_" transform="matrix(0.9221 -0.3869 0.3869 0.9221 -32.1974 60.7538)" class="st4" cx="134.8" cy="110.3" rx="10.9" ry="10.9"/>
			<path id="XMLID_185_" class="st7" d="M129.8,107.4v5.9c0,0.6,0.8,1,1.3,0.6l3.4-3c0.4-0.3,0.4-0.8,0-1.1l-3.4-3
				C130.6,106.4,129.8,106.7,129.8,107.4z"/>
			<path id="XMLID_182_" class="st7" d="M135.9,114.1L135.9,114.1c-0.4,0-0.8-0.4-0.8-0.8v-6c0-0.4,0.4-0.8,0.8-0.8l0,0
				c0.4,0,0.8,0.4,0.8,0.8v6C136.7,113.8,136.3,114.1,135.9,114.1z"/>
			<path id="XMLID_187_" class="st7" d="M139,114.1L139,114.1c-0.4,0-0.8-0.4-0.8-0.8v-6c0-0.4,0.4-0.8,0.8-0.8h0
				c0.4,0,0.8,0.4,0.8,0.8v6C139.8,113.8,139.4,114.1,139,114.1z"/>
		</g>
	</g>
	<g id="XMLID_977_">
		
			<ellipse id="XMLID_1878_" transform="matrix(0.9903 -0.1391 0.1391 0.9903 -5.5339 19.0438)" class="st3" cx="133.4" cy="49.1" rx="12.2" ry="12.2"/>
		<g id="XMLID_841_">
			
				<ellipse id="XMLID_305_" transform="matrix(0.2429 -0.97 0.97 0.2429 54.0673 163.5394)" class="st4" cx="131.8" cy="47.1" rx="12.2" ry="12.2"/>
			<path id="XMLID_310_" class="st8" d="M131.8,50.8c-2.6,0-4.7-2.1-4.7-4.7c0-0.3,0.3-0.6,0.6-0.6c0.3,0,0.6,0.3,0.6,0.6
				c0,1.9,1.6,3.5,3.5,3.5s3.5-1.6,3.5-3.5c0-0.3,0.3-0.6,0.6-0.6c0.3,0,0.6,0.3,0.6,0.6C136.5,48.7,134.4,50.8,131.8,50.8z"/>
			<path id="XMLID_311_" class="st8" d="M131.8,49.1c-1.6,0-3-1.3-3-3v-3.9c0-1.6,1.3-3,3-3c1.6,0,3,1.3,3,3v3.9
				C134.8,47.7,133.4,49.1,131.8,49.1z M131.8,40.4c-1,0-1.8,0.8-1.8,1.8v3.9c0,1,0.8,1.8,1.8,1.8s1.8-0.8,1.8-1.8v-3.9
				C133.6,41.3,132.8,40.4,131.8,40.4z"/>
			<path id="XMLID_317_" class="st8" d="M131.8,54.8c-0.3,0-0.6-0.3-0.6-0.6v-4c0-0.3,0.3-0.6,0.6-0.6c0.3,0,0.6,0.3,0.6,0.6v4
				C132.4,54.5,132.1,54.8,131.8,54.8z"/>
			<path id="XMLID_318_" class="st8" d="M133.6,54.8h-3.5c-0.3,0-0.6-0.3-0.6-0.6c0-0.3,0.3-0.6,0.6-0.6h3.5c0.3,0,0.6,0.3,0.6,0.6
				C134.1,54.5,133.9,54.8,133.6,54.8z"/>
		</g>
	</g>
	<g id="XMLID_416_">
		<path id="XMLID_1829_" class="st3" d="M35.9,56.2c0,0,9.1-8.9,9.1-18.3c0-5-4.1-9.1-9.1-9.1c-5,0-9.1,4.1-9.1,9.1
			C26.8,47.4,35.9,56.2,35.9,56.2z M29.3,37.9c0-3.6,2.9-6.6,6.6-6.6c3.6,0,6.6,2.9,6.6,6.6c0,3.6-2.9,6.6-6.6,6.6
			C32.3,44.4,29.3,41.5,29.3,37.9z"/>
		<path id="XMLID_1830_" class="st3" d="M35.9,57.7c0.2,0,0.3-0.1,0.3-0.3v-0.6c0-0.2-0.1-0.3-0.3-0.3c-0.2,0-0.3,0.1-0.3,0.3v0.6
			C35.6,57.5,35.8,57.7,35.9,57.7z"/>
		<path id="XMLID_1831_" class="st3" d="M37.4,63.3c0.1,0,0.1,0.1,0.2,0.1c0.1,0,0.2,0,0.3-0.1c0.1-0.1,0.1-0.3-0.1-0.4
			c-0.3-0.2-0.6-0.5-0.8-0.8c-0.1-0.1-0.3-0.2-0.4-0.1c-0.1,0.1-0.2,0.3-0.1,0.4C36.8,62.8,37.1,63.1,37.4,63.3z"/>
		<path id="XMLID_1832_" class="st3" d="M48.5,47.5h0.2c0.2,0,0.5,0,0.7,0.1c0,0,0,0,0.1,0c0.1,0,0.3-0.1,0.3-0.3
			c0-0.2-0.1-0.3-0.2-0.4c-0.3-0.1-0.6-0.1-0.9-0.1h-0.2c-0.1,0-0.2,0-0.2,0c-0.2,0-0.3,0.2-0.3,0.3c0,0.2,0.1,0.3,0.3,0.3
			C48.3,47.5,48.4,47.5,48.5,47.5z"/>
		<path id="XMLID_1833_" class="st3" d="M45.7,48.7c0.3-0.3,0.6-0.5,0.9-0.7c0.2-0.1,0.2-0.3,0.1-0.4c-0.1-0.2-0.3-0.2-0.4-0.1
			c-0.4,0.2-0.8,0.5-1.1,0.8c-0.1,0.1-0.1,0.3,0,0.4c0.1,0.1,0.1,0.1,0.2,0.1C45.5,48.8,45.6,48.8,45.7,48.7z"/>
		<path id="XMLID_1834_" class="st3" d="M44,59.7c0,0.3,0,0.7-0.1,1c0,0.2,0.1,0.3,0.2,0.4c0,0,0.1,0,0.1,0c0.1,0,0.3-0.1,0.3-0.2
			c0.1-0.4,0.1-0.7,0.1-1.1v-0.2c0-0.2-0.1-0.3-0.3-0.3c-0.2,0-0.3,0.1-0.3,0.3V59.7z"/>
		<path id="XMLID_1835_" class="st3" d="M44,57.7c0,0.2,0.1,0.3,0.3,0.3c0.2,0,0.3-0.1,0.3-0.3v-1.3c0-0.2-0.1-0.3-0.3-0.3
			c-0.2,0-0.3,0.1-0.3,0.3V57.7z"/>
		<path id="XMLID_1836_" class="st3" d="M44,54.5c0,0.2,0.1,0.3,0.3,0.3c0.2,0,0.3-0.1,0.3-0.3v-1.3c0-0.2-0.1-0.3-0.3-0.3
			c-0.2,0-0.3,0.1-0.3,0.3V54.5z"/>
		<path id="XMLID_1837_" class="st3" d="M51.4,47.8c-0.1-0.1-0.3-0.1-0.4,0.1c-0.1,0.1-0.1,0.3,0.1,0.4c0.3,0.2,0.6,0.5,0.8,0.8
			c0.1,0.1,0.2,0.1,0.3,0.1c0.1,0,0.1,0,0.2-0.1c0.1-0.1,0.2-0.3,0.1-0.4C52.1,48.4,51.8,48.1,51.4,47.8z"/>
		<path id="XMLID_1838_" class="st3" d="M44.3,51.7c0.2,0,0.3-0.1,0.3-0.3c0-0.4,0.1-0.8,0.2-1.1c0.1-0.2,0-0.3-0.2-0.4
			c-0.2-0.1-0.3,0-0.4,0.2c-0.1,0.4-0.2,0.9-0.2,1.3C44,51.5,44.1,51.7,44.3,51.7L44.3,51.7z"/>
		<path id="XMLID_1839_" class="st3" d="M40.1,64.2L40.1,64.2c0.2,0,0.4,0,0.5,0c0.2,0,0.3-0.2,0.3-0.3c0-0.2-0.2-0.3-0.3-0.3
			c-0.1,0-0.3,0-0.4,0h-0.1c-0.2,0-0.5,0-0.7-0.1c-0.2,0-0.3,0.1-0.4,0.3c0,0.2,0.1,0.3,0.3,0.4C39.6,64.2,39.8,64.2,40.1,64.2z"/>
		<path id="XMLID_1840_" class="st3" d="M35.6,59.7c0,0.3,0,0.5,0.1,0.8c0,0.2,0.2,0.3,0.3,0.3c0,0,0,0,0.1,0c0.2,0,0.3-0.2,0.3-0.4
			c0-0.2-0.1-0.5-0.1-0.7v-0.5c0-0.2-0.1-0.3-0.3-0.3c-0.2,0-0.3,0.1-0.3,0.3V59.7z"/>
		<path id="XMLID_1841_" class="st3" d="M42.5,63.5c0.4-0.2,0.7-0.5,1-0.9c0.1-0.1,0.1-0.3,0-0.4c-0.1-0.1-0.3-0.1-0.4,0
			c-0.3,0.3-0.5,0.5-0.9,0.8c-0.1,0.1-0.2,0.3-0.1,0.4c0.1,0.1,0.2,0.1,0.3,0.1C42.4,63.6,42.5,63.6,42.5,63.5z"/>
		<path id="XMLID_1842_" class="st3" d="M52.9,51.7c0.2,0,0.3-0.1,0.3-0.3c0-0.2,0-0.5-0.1-0.7c0-0.2-0.2-0.3-0.4-0.3
			c-0.2,0-0.3,0.2-0.3,0.4c0,0.2,0,0.4,0,0.6C52.5,51.5,52.7,51.7,52.9,51.7z"/>
		<path id="XMLID_1843_" class="st3" d="M51.1,54.5c0,1,0.8,1.7,1.7,1.7c1,0,1.7-0.8,1.7-1.7c0-1-0.8-1.7-1.7-1.7
			C51.9,52.8,51.1,53.5,51.1,54.5z"/>
		<g id="XMLID_952_">
			<path id="XMLID_105_" class="st4" d="M34,26.6c-5,0-9.1,4.1-9.1,9.1C25,45.2,34,54,34,54s9.1-8.9,9.1-18.3
				C43.1,30.6,39.1,26.6,34,26.6z M34,29.1c3.6,0,6.6,2.9,6.6,6.6c0,3.6-2.9,6.6-6.6,6.6s-6.6-2.9-6.6-6.6
				C27.5,32,30.4,29.1,34,29.1z"/>
			<g id="XMLID_108_">
				<g>
					<path id="XMLID_135_" class="st9" d="M34.1,55.4c-0.2,0-0.3-0.1-0.3-0.3v-0.6c0-0.2,0.1-0.3,0.3-0.3c0.2,0,0.3,0.1,0.3,0.3v0.6
						C34.4,55.3,34.3,55.4,34.1,55.4z"/>
					<path id="XMLID_123_" class="st9" d="M38.3,62L38.3,62c-0.3,0-0.6,0-0.9-0.1c-0.2,0-0.3-0.2-0.3-0.4c0-0.2,0.2-0.3,0.4-0.3
						c0.2,0,0.5,0.1,0.7,0.1h0.1c0.1,0,0.3,0,0.4,0c0.2,0,0.3,0.1,0.3,0.3c0,0.2-0.1,0.3-0.3,0.3C38.6,62,38.5,62,38.3,62z
						 M40.5,61.4c-0.1,0-0.2-0.1-0.3-0.1c-0.1-0.1,0-0.3,0.1-0.4c0.3-0.2,0.6-0.5,0.9-0.8c0.1-0.1,0.3-0.1,0.4,0
						c0.1,0.1,0.1,0.3,0,0.4c-0.3,0.3-0.6,0.6-1,0.9C40.6,61.4,40.6,61.4,40.5,61.4z M35.8,61.2c-0.1,0-0.1,0-0.2-0.1
						c-0.4-0.3-0.7-0.6-1-1c-0.1-0.1-0.1-0.3,0.1-0.4c0.1-0.1,0.3-0.1,0.4,0.1c0.2,0.3,0.5,0.6,0.8,0.8c0.1,0.1,0.2,0.3,0.1,0.4
						C36,61.1,35.9,61.2,35.8,61.2z M42.4,58.9C42.3,58.9,42.3,58.9,42.4,58.9c-0.2-0.1-0.4-0.2-0.3-0.4c0.1-0.3,0.1-0.6,0.1-1v-0.2
						c0-0.2,0.1-0.3,0.3-0.3c0.2,0,0.3,0.1,0.3,0.3v0.2c0,0.4,0,0.8-0.1,1.1C42.6,58.8,42.5,58.9,42.4,58.9z M34.2,58.6
						c-0.2,0-0.3-0.1-0.3-0.3c0-0.3-0.1-0.5-0.1-0.8V57c0-0.2,0.1-0.3,0.3-0.3c0.2,0,0.3,0.1,0.3,0.3v0.5c0,0.2,0,0.5,0.1,0.7
						C34.5,58.4,34.4,58.5,34.2,58.6C34.2,58.6,34.2,58.6,34.2,58.6z M42.5,55.8c-0.2,0-0.3-0.1-0.3-0.3v-1.3c0-0.2,0.1-0.3,0.3-0.3
						c0.2,0,0.3,0.1,0.3,0.3v1.3C42.8,55.6,42.7,55.8,42.5,55.8z M42.5,52.6c-0.2,0-0.3-0.1-0.3-0.3V51c0-0.2,0.1-0.3,0.3-0.3
						c0.2,0,0.3,0.1,0.3,0.3v1.3C42.8,52.5,42.7,52.6,42.5,52.6z M42.5,49.5L42.5,49.5c-0.2,0-0.3-0.1-0.3-0.3
						c0-0.5,0.1-0.9,0.2-1.3c0.1-0.2,0.2-0.3,0.4-0.2c0.2,0.1,0.3,0.2,0.2,0.4c-0.1,0.4-0.2,0.8-0.2,1.1
						C42.8,49.3,42.7,49.5,42.5,49.5z M50.3,47.1c-0.1,0-0.2,0-0.3-0.1c-0.2-0.3-0.5-0.6-0.8-0.8c-0.1-0.1-0.2-0.3-0.1-0.4
						c0.1-0.1,0.3-0.2,0.4-0.1c0.4,0.3,0.7,0.6,0.9,1c0.1,0.1,0.1,0.3-0.1,0.4C50.4,47,50.3,47.1,50.3,47.1z M43.6,46.6
						c-0.1,0-0.2,0-0.2-0.1c-0.1-0.1-0.1-0.3,0-0.4c0.3-0.3,0.7-0.6,1.1-0.8c0.2-0.1,0.3,0,0.4,0.1c0.1,0.2,0,0.3-0.1,0.4
						c-0.3,0.2-0.6,0.4-0.9,0.7C43.8,46.6,43.7,46.6,43.6,46.6z M47.7,45.4C47.7,45.4,47.6,45.4,47.7,45.4c-0.3-0.1-0.6-0.1-0.8-0.1
						h-0.2c-0.1,0-0.1,0-0.2,0c-0.2,0-0.3-0.1-0.3-0.3c0-0.2,0.1-0.3,0.3-0.3c0.1,0,0.2,0,0.2,0h0.2c0.3,0,0.6,0,0.9,0.1
						c0.2,0,0.3,0.2,0.2,0.4C48,45.3,47.8,45.4,47.7,45.4z"/>
					<path id="XMLID_122_" class="st9" d="M51,49.5c-0.2,0-0.3-0.1-0.3-0.3c0-0.2,0-0.4,0-0.6c0-0.2,0.1-0.3,0.3-0.4
						c0.2,0,0.3,0.1,0.4,0.3c0,0.2,0.1,0.5,0.1,0.7C51.3,49.3,51.2,49.5,51,49.5z"/>
				</g>
			</g>
			<path id="XMLID_97_" class="st9" d="M49.3,52.3c0-1,0.8-1.7,1.7-1.7c1,0,1.7,0.8,1.7,1.7c0,1-0.8,1.7-1.7,1.7
				C50.1,54,49.3,53.2,49.3,52.3z"/>
		</g>
	</g>
	<g id="XMLID_413_">
		<path id="XMLID_1865_" class="st3" d="M91,54.3h-1v-4.9c0-5.6-4.6-10.2-10.2-10.2c-5.6,0-10.2,4.6-10.2,10.2v4.9h-1
			c-0.8,0-1.4,0.6-1.4,1.4v7.6c0,7,5.7,12.7,12.7,12.7h0c7,0,12.7-5.7,12.7-12.7v-7.6C92.4,54.9,91.8,54.3,91,54.3z M72.7,54.3v-4.9
			c0-3.9,3.2-7.1,7.1-7.1c3.9,0,7.1,3.2,7.1,7.1v4.9H72.7z"/>
		<g id="XMLID_961_">
			<path id="XMLID_161_" class="st5" d="M66.7,52.1h22.5c0.8,0,1.4,0.6,1.4,1.4v7.6c0,7-5.7,12.7-12.7,12.7h0
				c-7,0-12.7-5.7-12.7-12.7v-7.6C65.3,52.7,65.9,52.1,66.7,52.1z"/>
			<path id="XMLID_181_" class="st4" d="M88.2,52.1H85v-4.9c0-3.9-3.2-7.1-7.1-7.1c-3.9,0-7.1,3.2-7.1,7.1v4.9h-3.2v-4.9
				c0-5.6,4.6-10.2,10.2-10.2c5.6,0,10.2,4.6,10.2,10.2V52.1z"/>
			<path id="XMLID_167_" class="st4" d="M79.1,62.5c0.8-0.4,1.4-1.3,1.4-2.2c0-1.4-1.1-2.5-2.5-2.5c-1.4,0-2.5,1.1-2.5,2.5
				c0,1,0.6,1.8,1.4,2.2L75,65.7h2.9h2.9L79.1,62.5z"/>
		</g>
	</g>
</g>
</svg>
